AnekOdia-CondensedExtraBold.ufo
<glyph name="R" format="2">
  <advance width="877"/>
  <unicode hex="0052"/>
  <anchor x="448" y="0" name="bottom"/>
  <anchor x="439" y="1278" name="top"/>
  <outline>
    <contour>
      <point x="527" y="0" type="line"/>
      <point x="839" y="0" type="line"/>
      <point x="815" y="312" type="line" smooth="yes"/>
      <point x="800" y="502"/>
      <point x="764" y="614"/>
      <point x="527" y="627" type="curve"/>
      <point x="591" y="586" type="line"/>
      <point x="591" y="632" type="line"/>
      <point x="749" y="636"/>
      <point x="830" y="725"/>
      <point x="830" y="894" type="curve" smooth="yes"/>
      <point x="830" y="931" type="line" smooth="yes"/>
      <point x="830" y="1155"/>
      <point x="712" y="1278"/>
      <point x="446" y="1278" type="curve" smooth="yes"/>
      <point x="295" y="1278" type="line"/>
      <point x="295" y="1011" type="line"/>
      <point x="425" y="1011" type="line" smooth="yes"/>
      <point x="495" y="1011"/>
      <point x="517" y="975"/>
      <point x="517" y="877" type="curve" smooth="yes"/>
      <point x="517" y="811" type="line" smooth="yes"/>
      <point x="517" y="713"/>
      <point x="492" y="678"/>
      <point x="425" y="678" type="curve" smooth="yes"/>
      <point x="297" y="678" type="line"/>
      <point x="297" y="421" type="line"/>
      <point x="417" y="421" type="line" smooth="yes"/>
      <point x="483" y="421"/>
      <point x="511" y="382"/>
      <point x="514" y="305" type="curve" smooth="yes"/>
    </contour>
    <contour>
      <point x="74" y="0" type="line"/>
      <point x="383" y="0" type="line"/>
      <point x="383" y="470" type="line"/>
      <point x="381" y="601" type="line"/>
      <point x="381" y="1278" type="line"/>
      <point x="74" y="1278" type="line"/>
    </contour>
  </outline>
</glyph>
<glyph name="t" format="2">
  <advance width="584"/>
  <unicode hex="0074"/>
  <anchor x="321" y="0" name="bottom"/>
  <anchor x="292" y="503" name="center"/>
  <anchor x="261" y="1226" name="top"/>
  <anchor x="455" y="1435" name="topright"/>
  <outline>
    <contour>
      <point x="367" y="-15" type="curve" smooth="yes"/>
      <point x="445" y="-15"/>
      <point x="505" y="2"/>
      <point x="551" y="28" type="curve"/>
      <point x="570" y="283" type="line"/>
      <point x="544" y="274"/>
      <point x="517" y="267"/>
      <point x="485" y="267" type="curve" smooth="yes"/>
      <point x="425" y="267"/>
      <point x="402" y="291"/>
      <point x="402" y="348" type="curve" smooth="yes"/>
      <point x="402" y="968" type="line"/>
      <point x="97" y="968" type="line"/>
      <point x="97" y="274" type="line" smooth="yes"/>
      <point x="97" y="83"/>
      <point x="180" y="-15"/>
    </contour>
    <contour>
      <point x="12" y="756" type="line"/>
      <point x="546" y="756" type="line"/>
      <point x="565" y="1006" type="line"/>
      <point x="12" y="1006" type="line"/>
    </contour>
    <contour>
      <point x="103" y="988" type="line"/>
      <point x="394" y="988" type="line"/>
      <point x="404" y="1249" type="line"/>
      <point x="103" y="1213" type="line"/>
    </contour>
  </outline>
</glyph>
<glyph name="section" format="2">
  <advance width="708"/>
  <unicode hex="00A7"/>
  <outline>
    <contour>
      <point x="380" y="475" type="curve"/>
      <point x="510" y="356" type="line"/>
      <point x="508" y="431" type="line"/>
      <point x="603" y="445"/>
      <point x="658" y="513"/>
      <point x="658" y="626" type="curve"/>
      <point x="658" y="647" type="line"/>
      <point x="658" y="771"/>
      <point x="607" y="826"/>
      <point x="456" y="901" type="curve" smooth="yes"/>
      <point x="374" y="942"/>
      <point x="348" y="960"/>
      <point x="348" y="990" type="curve" smooth="yes"/>
      <point x="348" y="994" type="line"/>
      <point x="348" y="1027"/>
      <point x="370" y="1041"/>
      <point x="431" y="1041" type="curve" smooth="yes"/>
      <point x="508" y="1041"/>
      <point x="574" y="1013"/>
      <point x="625" y="985" type="curve"/>
      <point x="607" y="1237" type="line"/>
      <point x="557" y="1270"/>
      <point x="475" y="1300"/>
      <point x="378" y="1300" type="curve" smooth="yes"/>
      <point x="162" y="1300"/>
      <point x="46" y="1206"/>
      <point x="46" y="1031" type="curve" smooth="yes"/>
      <point x="46" y="1020" type="line" smooth="yes"/>
      <point x="46" y="893"/>
      <point x="84" y="802"/>
      <point x="239" y="719" type="curve" smooth="yes"/>
      <point x="369" y="649"/>
      <point x="419" y="624"/>
      <point x="419" y="560" type="curve"/>
      <point x="419" y="551" type="line"/>
      <point x="419" y="504"/>
      <point x="411" y="490"/>
    </contour>
    <contour>
      <point x="325" y="695" type="curve"/>
      <point x="195" y="814" type="line"/>
      <point x="197" y="739" type="line"/>
      <point x="102" y="724"/>
      <point x="47" y="657"/>
      <point x="47" y="542" type="curve" smooth="yes"/>
      <point x="47" y="525" type="line"/>
      <point x="47" y="411"/>
      <point x="114" y="338"/>
      <point x="234" y="274" type="curve" smooth="yes"/>
      <point x="338" y="218"/>
      <point x="354" y="206"/>
      <point x="354" y="174" type="curve"/>
      <point x="354" y="170" type="line"/>
      <point x="354" y="137"/>
      <point x="336" y="117"/>
      <point x="273" y="117" type="curve" smooth="yes"/>
      <point x="185" y="117"/>
      <point x="117" y="148"/>
      <point x="51" y="180" type="curve"/>
      <point x="69" y="-91" type="line"/>
      <point x="128" y="-122"/>
      <point x="213" y="-150"/>
      <point x="323" y="-150" type="curve" smooth="yes"/>
      <point x="553" y="-150"/>
      <point x="658" y="-47"/>
      <point x="658" y="138" type="curve" smooth="yes"/>
      <point x="658" y="150" type="line"/>
      <point x="658" y="310"/>
      <point x="615" y="378"/>
      <point x="485" y="438" type="curve" smooth="yes"/>
      <point x="358" y="497"/>
      <point x="286" y="537"/>
      <point x="286" y="604" type="curve" smooth="yes"/>
      <point x="286" y="619" type="line"/>
      <point x="286" y="666"/>
      <point x="294" y="680"/>
    </contour>
  </outline>
</glyph>
<glyph name="dotaccentcomb" format="2">
  <unicode hex="0307"/>
  <anchor x="248" y="1006" name="_top"/>
  <anchor x="248" y="1366" name="top"/>
  <outline>
    <contour>
      <point x="247" y="1063" type="curve" smooth="yes"/>
      <point x="345" y="1063"/>
      <point x="396" y="1120"/>
      <point x="396" y="1215" type="curve" smooth="yes"/>
      <point x="396" y="1222" type="line" smooth="yes"/>
      <point x="396" y="1317"/>
      <point x="345" y="1374"/>
      <point x="247" y="1374" type="curve" smooth="yes"/>
      <point x="150" y="1374"/>
      <point x="100" y="1317"/>
      <point x="100" y="1222" type="curve" smooth="yes"/>
      <point x="100" y="1215" type="line" smooth="yes"/>
      <point x="100" y="1120"/>
      <point x="150" y="1063"/>
    </contour>
  </outline>
</glyph>
<glyph name="Candrabindu.or" format="2">
  <unicode hex="0B01"/>
  <anchor x="-309" y="1423" name="_top2"/>
  <outline>
    <contour>
      <point x="-309" y="1661" type="curve" smooth="yes"/>
      <point x="-379" y="1661"/>
      <point x="-405" y="1708"/>
      <point x="-405" y="1788" type="curve" smooth="yes"/>
      <point x="-405" y="1799" type="line" smooth="yes"/>
      <point x="-405" y="1876"/>
      <point x="-379" y="1926"/>
      <point x="-309" y="1926" type="curve" smooth="yes"/>
      <point x="-239" y="1926"/>
      <point x="-213" y="1876"/>
      <point x="-213" y="1799" type="curve" smooth="yes"/>
      <point x="-213" y="1788" type="line" smooth="yes"/>
      <point x="-213" y="1708"/>
      <point x="-239" y="1661"/>
    </contour>
    <contour>
      <point x="-149" y="1797" type="line"/>
      <point x="42" y="1797" type="line"/>
      <point x="46" y="1765"/>
      <point x="46" y="1745"/>
      <point x="46" y="1729" type="curve" smooth="yes"/>
      <point x="46" y="1517"/>
      <point x="-76" y="1423"/>
      <point x="-309" y="1423" type="curve" smooth="yes"/>
      <point x="-542" y="1423"/>
      <point x="-663" y="1517"/>
      <point x="-663" y="1729" type="curve" smooth="yes"/>
      <point x="-663" y="1749"/>
      <point x="-662" y="1769"/>
      <point x="-658" y="1797" type="curve"/>
      <point x="-468" y="1797" type="line"/>
      <point x="-468" y="1760" type="line" smooth="yes"/>
      <point x="-468" y="1651"/>
      <point x="-423" y="1604"/>
      <point x="-309" y="1604" type="curve" smooth="yes"/>
      <point x="-194" y="1604"/>
      <point x="-149" y="1651"/>
      <point x="-149" y="1760" type="curve" smooth="yes"/>
    </contour>
  </outline>
</glyph>
<glyph name="Anusvara.or" format="2">
  <advance width="580"/>
  <unicode hex="0B02"/>
  <outline>
    <contour>
      <point x="290" y="701" type="curve" smooth="yes"/>
      <point x="472" y="701"/>
      <point x="562" y="798"/>
      <point x="562" y="985" type="curve" smooth="yes"/>
      <point x="562" y="1082" type="line" smooth="yes"/>
      <point x="562" y="1269"/>
      <point x="472" y="1366"/>
      <point x="290" y="1366" type="curve" smooth="yes"/>
      <point x="108" y="1366"/>
      <point x="18" y="1269"/>
      <point x="18" y="1082" type="curve" smooth="yes"/>
      <point x="18" y="985" type="line" smooth="yes"/>
      <point x="18" y="798"/>
      <point x="108" y="701"/>
    </contour>
    <contour>
      <point x="290" y="902" type="curve" smooth="yes"/>
      <point x="256" y="902"/>
      <point x="246" y="926"/>
      <point x="246" y="978" type="curve" smooth="yes"/>
      <point x="246" y="1086" type="line" smooth="yes"/>
      <point x="246" y="1138"/>
      <point x="256" y="1164"/>
      <point x="290" y="1164" type="curve" smooth="yes"/>
      <point x="324" y="1164"/>
      <point x="334" y="1138"/>
      <point x="334" y="1086" type="curve" smooth="yes"/>
      <point x="334" y="978" type="line" smooth="yes"/>
      <point x="334" y="926"/>
      <point x="324" y="902"/>
    </contour>
  </outline>
</glyph>
<glyph name="Visarga.or" format="2">
  <advance width="768"/>
  <unicode hex="0B03"/>
  <outline>
    <contour>
      <point x="382" y="-11" type="curve" smooth="yes"/>
      <point x="603" y="-11"/>
      <point x="720" y="102"/>
      <point x="720" y="320" type="curve" smooth="yes"/>
      <point x="720" y="377" type="line" smooth="yes"/>
      <point x="720" y="515"/>
      <point x="671" y="615"/>
      <point x="560" y="700" type="curve"/>
      <point x="389" y="802" type="line"/>
      <point x="342" y="849"/>
      <point x="319" y="907"/>
      <point x="319" y="980" type="curve" smooth="yes"/>
      <point x="319" y="1038" type="line" smooth="yes"/>
      <point x="319" y="1108"/>
      <point x="332" y="1142"/>
      <point x="380" y="1142" type="curve" smooth="yes"/>
      <point x="427" y="1142"/>
      <point x="442" y="1105"/>
      <point x="442" y="1026" type="curve" smooth="yes"/>
      <point x="442" y="968" type="line" smooth="yes"/>
      <point x="442" y="910"/>
      <point x="427" y="853"/>
      <point x="388" y="802" type="curve"/>
      <point x="207" y="671" type="line"/>
      <point x="104" y="592"/>
      <point x="55" y="481"/>
      <point x="55" y="369" type="curve" smooth="yes"/>
      <point x="55" y="312" type="line" smooth="yes"/>
      <point x="55" y="103"/>
      <point x="170" y="-11"/>
    </contour>
    <contour>
      <point x="387" y="228" type="curve" smooth="yes"/>
      <point x="340" y="228"/>
      <point x="326" y="267"/>
      <point x="326" y="348" type="curve" smooth="yes"/>
      <point x="326" y="399" type="line" smooth="yes"/>
      <point x="326" y="468"/>
      <point x="341" y="515"/>
      <point x="381" y="568" type="curve"/>
      <point x="554" y="679" type="line"/>
      <point x="656" y="753"/>
      <point x="713" y="863"/>
      <point x="713" y="1005" type="curve" smooth="yes"/>
      <point x="713" y="1069" type="line" smooth="yes"/>
      <point x="713" y="1269"/>
      <point x="597" y="1378"/>
      <point x="386" y="1378" type="curve" smooth="yes"/>
      <point x="168" y="1378"/>
      <point x="48" y="1263"/>
      <point x="48" y="1054" type="curve" smooth="yes"/>
      <point x="48" y="990" type="line" smooth="yes"/>
      <point x="48" y="852"/>
      <point x="107" y="728"/>
      <point x="239" y="640" type="curve"/>
      <point x="381" y="568" type="line"/>
      <point x="431" y="516"/>
      <point x="449" y="471"/>
      <point x="449" y="389" type="curve" smooth="yes"/>
      <point x="449" y="338" type="line" smooth="yes"/>
      <point x="449" y="264"/>
      <point x="433" y="228"/>
    </contour>
  </outline>
</glyph>
<glyph name="VowelA.or" format="2">
  <advance width="1302"/>
  <unicode hex="0B05"/>
  <anchor x="1081" y="1423" name="top2"/>
  <outline>
    <contour>
      <point x="962" y="0" type="line"/>
      <point x="1234" y="0" type="line"/>
      <point x="1234" y="1373" type="line"/>
      <point x="958" y="1373" type="line"/>
      <point x="958" y="333" type="line"/>
      <point x="966" y="223" type="line"/>
    </contour>
    <contour>
      <point x="528" y="-20" type="curve" smooth="yes"/>
      <point x="818" y="-20"/>
      <point x="914" y="74"/>
      <point x="955" y="212" type="curve"/>
      <point x="1083" y="212" type="line"/>
      <point x="969" y="475" type="line"/>
      <point x="949" y="354"/>
      <point x="811" y="248"/>
      <point x="602" y="248" type="curve" smooth="yes"/>
      <point x="411" y="248"/>
      <point x="339" y="301"/>
      <point x="339" y="390" type="curve" smooth="yes"/>
      <point x="339" y="405" type="line" smooth="yes"/>
      <point x="339" y="468"/>
      <point x="371" y="497"/>
      <point x="469" y="530" type="curve" smooth="yes"/>
      <point x="593" y="570" type="line" smooth="yes"/>
      <point x="803" y="640"/>
      <point x="887" y="747"/>
      <point x="887" y="926" type="curve" smooth="yes"/>
      <point x="887" y="1097" type="line" smooth="yes"/>
      <point x="887" y="1289"/>
      <point x="821" y="1380"/>
      <point x="667" y="1380" type="curve" smooth="yes"/>
      <point x="553" y="1380"/>
      <point x="489" y="1323"/>
      <point x="469" y="1231" type="curve"/>
      <point x="462" y="1231" type="line"/>
      <point x="442" y="1325"/>
      <point x="388" y="1380"/>
      <point x="270" y="1380" type="curve" smooth="yes"/>
      <point x="127" y="1380"/>
      <point x="44" y="1293"/>
      <point x="44" y="1104" type="curve" smooth="yes"/>
      <point x="44" y="1006" type="line" smooth="yes"/>
      <point x="44" y="951"/>
      <point x="48" y="910"/>
      <point x="60" y="866" type="curve"/>
      <point x="301" y="854" type="line"/>
      <point x="293" y="896"/>
      <point x="290" y="926"/>
      <point x="290" y="966" type="curve" smooth="yes"/>
      <point x="290" y="1091" type="line" smooth="yes"/>
      <point x="290" y="1131"/>
      <point x="297" y="1152"/>
      <point x="325" y="1152" type="curve" smooth="yes"/>
      <point x="354" y="1152"/>
      <point x="360" y="1131"/>
      <point x="360" y="1091" type="curve" smooth="yes"/>
      <point x="362" y="898" type="line"/>
      <point x="568" y="898" type="line"/>
      <point x="570" y="1091" type="line" smooth="yes"/>
      <point x="570" y="1131"/>
      <point x="577" y="1152"/>
      <point x="605" y="1152" type="curve" smooth="yes"/>
      <point x="634" y="1152"/>
      <point x="640" y="1131"/>
      <point x="640" y="1091" type="curve" smooth="yes"/>
      <point x="640" y="951" type="line" smooth="yes"/>
      <point x="640" y="868"/>
      <point x="610" y="845"/>
      <point x="513" y="813" type="curve" smooth="yes"/>
      <point x="373" y="767" type="line" smooth="yes"/>
      <point x="125" y="685"/>
      <point x="40" y="585"/>
      <point x="40" y="392" type="curve" smooth="yes"/>
      <point x="40" y="370" type="line" smooth="yes"/>
      <point x="40" y="124"/>
      <point x="199" y="-20"/>
    </contour>
  </outline>
</glyph>
<glyph name="VowelI.or" format="2">
  <advance width="1484"/>
  <unicode hex="0B07"/>
  <anchor x="1138" y="1423" name="top2"/>
  <outline>
    <contour>
      <point x="1518" y="-196" type="line"/>
      <point x="1518" y="93" type="line"/>
      <point x="1320" y="145" type="line"/>
      <point x="1337" y="125" type="line"/>
      <point x="1402" y="180"/>
      <point x="1413" y="254"/>
      <point x="1413" y="331" type="curve" smooth="yes"/>
      <point x="1413" y="763" type="line" smooth="yes"/>
      <point x="1413" y="1190"/>
      <point x="1165" y="1408"/>
      <point x="717" y="1408" type="curve" smooth="yes"/>
      <point x="305" y="1408"/>
      <point x="46" y="1195"/>
      <point x="46" y="833" type="curve" smooth="yes"/>
      <point x="46" y="729" type="line" smooth="yes"/>
      <point x="46" y="554"/>
      <point x="109" y="466"/>
      <point x="227" y="416" type="curve"/>
      <point x="390" y="604" type="line"/>
      <point x="353" y="633"/>
      <point x="337" y="681"/>
      <point x="337" y="736" type="curve" smooth="yes"/>
      <point x="337" y="822" type="line" smooth="yes"/>
      <point x="337" y="1032"/>
      <point x="465" y="1141"/>
      <point x="719" y="1141" type="curve" smooth="yes"/>
      <point x="1001" y="1141"/>
      <point x="1128" y="1000"/>
      <point x="1128" y="738" type="curve" smooth="yes"/>
      <point x="1128" y="241" type="line" smooth="yes"/>
      <point x="1128" y="162"/>
      <point x="1108" y="79"/>
      <point x="1055" y="15" type="curve"/>
    </contour>
    <contour>
      <point x="424" y="226" type="curve" smooth="yes"/>
      <point x="393" y="226"/>
      <point x="383" y="251"/>
      <point x="383" y="298" type="curve" smooth="yes"/>
      <point x="383" y="473" type="line" smooth="yes"/>
      <point x="383" y="520"/>
      <point x="393" y="545"/>
      <point x="424" y="545" type="curve" smooth="yes"/>
      <point x="455" y="545"/>
      <point x="465" y="520"/>
      <point x="465" y="473" type="curve" smooth="yes"/>
      <point x="465" y="298" type="line" smooth="yes"/>
      <point x="465" y="251"/>
      <point x="455" y="226"/>
    </contour>
    <contour>
      <point x="363" y="-6" type="curve" smooth="yes"/>
      <point x="487" y="-6"/>
      <point x="561" y="55"/>
      <point x="583" y="145" type="curve"/>
      <point x="590" y="145" type="line"/>
      <point x="615" y="57"/>
      <point x="687" y="-6"/>
      <point x="813" y="-6" type="curve" smooth="yes"/>
      <point x="979" y="-6"/>
      <point x="1053" y="95"/>
      <point x="1053" y="307" type="curve" smooth="yes"/>
      <point x="1053" y="464" type="line" smooth="yes"/>
      <point x="1053" y="676"/>
      <point x="982" y="776"/>
      <point x="813" y="776" type="curve" smooth="yes"/>
      <point x="693" y="776"/>
      <point x="624" y="718"/>
      <point x="597" y="629" type="curve"/>
      <point x="590" y="629" type="line"/>
      <point x="573" y="729"/>
      <point x="515" y="776"/>
      <point x="424" y="776" type="curve" smooth="yes"/>
      <point x="340" y="776"/>
      <point x="290" y="734"/>
      <point x="263" y="650" type="curve"/>
      <point x="164" y="631" type="line"/>
      <point x="131" y="581"/>
      <point x="123" y="527"/>
      <point x="123" y="453" type="curve" smooth="yes"/>
      <point x="123" y="307" type="line" smooth="yes"/>
      <point x="123" y="95"/>
      <point x="194" y="-6"/>
    </contour>
    <contour>
      <point x="752" y="226" type="curve" smooth="yes"/>
      <point x="722" y="226"/>
      <point x="711" y="251"/>
      <point x="711" y="298" type="curve" smooth="yes"/>
      <point x="711" y="473" type="line" smooth="yes"/>
      <point x="711" y="520"/>
      <point x="722" y="545"/>
      <point x="752" y="545" type="curve" smooth="yes"/>
      <point x="783" y="545"/>
      <point x="793" y="520"/>
      <point x="793" y="473" type="curve" smooth="yes"/>
      <point x="793" y="298" type="line" smooth="yes"/>
      <point x="793" y="251"/>
      <point x="783" y="226"/>
    </contour>
  </outline>
</glyph>
<glyph name="VowelIi.or" format="2">
  <advance width="1487"/>
  <unicode hex="0B08"/>
  <anchor x="1156" y="1423" name="top2"/>
  <outline>
    <contour>
      <point x="1521" y="-196" type="line"/>
      <point x="1521" y="93" type="line"/>
      <point x="1323" y="145" type="line"/>
      <point x="1340" y="125" type="line"/>
      <point x="1405" y="180"/>
      <point x="1416" y="254"/>
      <point x="1416" y="331" type="curve" smooth="yes"/>
      <point x="1416" y="757" type="line" smooth="yes"/>
      <point x="1416" y="1190"/>
      <point x="1191" y="1408"/>
      <point x="771" y="1408" type="curve" smooth="yes"/>
      <point x="394" y="1408"/>
      <point x="189" y="1223"/>
      <point x="189" y="997" type="curve" smooth="yes"/>
      <point x="189" y="964"/>
      <point x="192" y="928"/>
      <point x="200" y="894" type="curve"/>
      <point x="501" y="898" type="line"/>
      <point x="492" y="926"/>
      <point x="489" y="958"/>
      <point x="489" y="986" type="curve" smooth="yes"/>
      <point x="489" y="1079"/>
      <point x="563" y="1143"/>
      <point x="758" y="1143" type="curve" smooth="yes"/>
      <point x="1016" y="1143"/>
      <point x="1131" y="999"/>
      <point x="1131" y="735" type="curve" smooth="yes"/>
      <point x="1131" y="241" type="line" smooth="yes"/>
      <point x="1131" y="162"/>
      <point x="1111" y="79"/>
      <point x="1058" y="15" type="curve"/>
    </contour>
    <contour>
      <point x="426" y="224" type="curve" smooth="yes"/>
      <point x="396" y="224"/>
      <point x="385" y="249"/>
      <point x="385" y="296" type="curve" smooth="yes"/>
      <point x="385" y="460" type="line" smooth="yes"/>
      <point x="385" y="507"/>
      <point x="396" y="532"/>
      <point x="426" y="532" type="curve" smooth="yes"/>
      <point x="457" y="532"/>
      <point x="467" y="507"/>
      <point x="467" y="460" type="curve" smooth="yes"/>
      <point x="467" y="296" type="line" smooth="yes"/>
      <point x="467" y="249"/>
      <point x="457" y="224"/>
    </contour>
    <contour>
      <point x="366" y="-6" type="curve" smooth="yes"/>
      <point x="490" y="-6"/>
      <point x="563" y="55"/>
      <point x="585" y="145" type="curve"/>
      <point x="593" y="145" type="line"/>
      <point x="617" y="57"/>
      <point x="690" y="-6"/>
      <point x="816" y="-6" type="curve" smooth="yes"/>
      <point x="982" y="-6"/>
      <point x="1055" y="95"/>
      <point x="1055" y="307" type="curve" smooth="yes"/>
      <point x="1055" y="449" type="line" smooth="yes"/>
      <point x="1055" y="662"/>
      <point x="985" y="762"/>
      <point x="816" y="762" type="curve" smooth="yes"/>
      <point x="695" y="762"/>
      <point x="627" y="703"/>
      <point x="600" y="615" type="curve"/>
      <point x="593" y="615" type="line"/>
      <point x="576" y="714"/>
      <point x="517" y="762"/>
      <point x="426" y="762" type="curve" smooth="yes"/>
      <point x="339" y="762"/>
      <point x="289" y="719"/>
      <point x="264" y="635" type="curve"/>
      <point x="167" y="616" type="line"/>
      <point x="133" y="566"/>
      <point x="126" y="513"/>
      <point x="126" y="438" type="curve" smooth="yes"/>
      <point x="126" y="307" type="line" smooth="yes"/>
      <point x="126" y="95"/>
      <point x="197" y="-6"/>
    </contour>
    <contour>
      <point x="185" y="460" type="curve"/>
      <point x="343" y="613" type="line"/>
      <point x="308" y="637"/>
      <point x="292" y="672"/>
      <point x="292" y="716" type="curve" smooth="yes"/>
      <point x="292" y="725" type="line" smooth="yes"/>
      <point x="292" y="808"/>
      <point x="352" y="841"/>
      <point x="465" y="841" type="curve" smooth="yes"/>
      <point x="470" y="841" type="line" smooth="yes"/>
      <point x="538" y="841"/>
      <point x="595" y="828"/>
      <point x="639" y="813" type="curve"/>
      <point x="617" y="1029" type="line"/>
      <point x="575" y="1041"/>
      <point x="512" y="1049"/>
      <point x="446" y="1052" type="curve"/>
      <point x="339" y="1054" type="line"/>
      <point x="157" y="1047"/>
      <point x="25" y="942"/>
      <point x="25" y="734" type="curve" smooth="yes"/>
      <point x="25" y="714" type="line" smooth="yes"/>
      <point x="25" y="572"/>
      <point x="79" y="489"/>
    </contour>
    <contour>
      <point x="755" y="224" type="curve" smooth="yes"/>
      <point x="724" y="224"/>
      <point x="714" y="249"/>
      <point x="714" y="296" type="curve" smooth="yes"/>
      <point x="714" y="460" type="line" smooth="yes"/>
      <point x="714" y="507"/>
      <point x="724" y="532"/>
      <point x="755" y="532" type="curve" smooth="yes"/>
      <point x="786" y="532"/>
      <point x="796" y="507"/>
      <point x="796" y="460" type="curve" smooth="yes"/>
      <point x="796" y="296" type="line" smooth="yes"/>
      <point x="796" y="249"/>
      <point x="786" y="224"/>
    </contour>
  </outline>
</glyph>
<glyph name="VowelU.or" format="2">
  <advance width="1383"/>
  <unicode hex="0B09"/>
  <anchor x="1063" y="1423" name="top2"/>
  <outline>
    <contour>
      <point x="1417" y="-196" type="line"/>
      <point x="1417" y="93" type="line"/>
      <point x="1219" y="145" type="line"/>
      <point x="1236" y="125" type="line"/>
      <point x="1301" y="180"/>
      <point x="1312" y="254"/>
      <point x="1312" y="331" type="curve" smooth="yes"/>
      <point x="1312" y="783" type="line" smooth="yes"/>
      <point x="1312" y="1200"/>
      <point x="1091" y="1408"/>
      <point x="685" y="1408" type="curve" smooth="yes"/>
      <point x="287" y="1408"/>
      <point x="46" y="1199"/>
      <point x="46" y="818" type="curve" smooth="yes"/>
      <point x="46" y="753" type="line" smooth="yes"/>
      <point x="46" y="561"/>
      <point x="116" y="447"/>
      <point x="236" y="388" type="curve"/>
      <point x="381" y="638" type="line"/>
      <point x="348" y="666"/>
      <point x="341" y="697"/>
      <point x="341" y="756" type="curve" smooth="yes"/>
      <point x="341" y="821" type="line" smooth="yes"/>
      <point x="341" y="1031"/>
      <point x="458" y="1141"/>
      <point x="683" y="1141" type="curve" smooth="yes"/>
      <point x="913" y="1141"/>
      <point x="1027" y="1013"/>
      <point x="1027" y="783" type="curve" smooth="yes"/>
      <point x="1027" y="241" type="line" smooth="yes"/>
      <point x="1027" y="162"/>
      <point x="1007" y="79"/>
      <point x="954" y="15" type="curve"/>
    </contour>
    <contour>
      <point x="575" y="-22" type="curve" smooth="yes"/>
      <point x="814" y="-22"/>
      <point x="941" y="98"/>
      <point x="941" y="315" type="curve" smooth="yes"/>
      <point x="941" y="335" type="line" smooth="yes"/>
      <point x="941" y="449"/>
      <point x="909" y="493"/>
      <point x="836" y="523" type="curve"/>
      <point x="836" y="559" type="line"/>
      <point x="665" y="438" type="line"/>
      <point x="677" y="420"/>
      <point x="679" y="403"/>
      <point x="679" y="364" type="curve" smooth="yes"/>
      <point x="679" y="328" type="line" smooth="yes"/>
      <point x="679" y="260"/>
      <point x="656" y="206"/>
      <point x="584" y="206" type="curve" smooth="yes"/>
      <point x="512" y="206"/>
      <point x="488" y="260"/>
      <point x="488" y="325" type="curve" smooth="yes"/>
      <point x="488" y="432" type="line" smooth="yes"/>
      <point x="488" y="482"/>
      <point x="501" y="504"/>
      <point x="529" y="521" type="curve"/>
      <point x="529" y="795" type="line"/>
      <point x="431" y="776"/>
      <point x="341" y="721"/>
      <point x="297" y="633" type="curve"/>
      <point x="232" y="545" type="line"/>
      <point x="212" y="495"/>
      <point x="212" y="458"/>
      <point x="212" y="403" type="curve" smooth="yes"/>
      <point x="212" y="332" type="line" smooth="yes"/>
      <point x="212" y="100"/>
      <point x="329" y="-22"/>
    </contour>
    <contour>
      <point x="584" y="351" type="line"/>
      <point x="711" y="445" type="line"/>
      <point x="812" y="512" type="line"/>
      <point x="931" y="594" type="line"/>
      <point x="931" y="856" type="line"/>
      <point x="584" y="624" type="line"/>
    </contour>
  </outline>
</glyph>
<glyph name="VowelUu.or" format="2">
  <advance width="1410"/>
  <unicode hex="0B0A"/>
  <anchor x="1096" y="1423" name="top2"/>
  <outline>
    <contour>
      <point x="1415" y="-196" type="line"/>
      <point x="1415" y="95" type="line"/>
      <point x="1160" y="168" type="line"/>
      <point x="1160" y="125" type="line"/>
      <point x="1201" y="137" type="line"/>
      <point x="1323" y="152"/>
      <point x="1369" y="224"/>
      <point x="1369" y="345" type="curve" smooth="yes"/>
      <point x="1369" y="408" type="line" smooth="yes"/>
      <point x="1369" y="533"/>
      <point x="1332" y="598"/>
      <point x="1251" y="627" type="curve"/>
      <point x="1248" y="581" type="line"/>
      <point x="1314" y="627"/>
      <point x="1327" y="686"/>
      <point x="1327" y="765" type="curve" smooth="yes"/>
      <point x="1327" y="813" type="line" smooth="yes"/>
      <point x="1327" y="1205"/>
      <point x="1099" y="1408"/>
      <point x="692" y="1408" type="curve" smooth="yes"/>
      <point x="296" y="1408"/>
      <point x="46" y="1198"/>
      <point x="46" y="834" type="curve" smooth="yes"/>
      <point x="46" y="753" type="line" smooth="yes"/>
      <point x="46" y="559"/>
      <point x="116" y="451"/>
      <point x="236" y="392" type="curve"/>
      <point x="381" y="638" type="line"/>
      <point x="348" y="666"/>
      <point x="341" y="692"/>
      <point x="341" y="753" type="curve" smooth="yes"/>
      <point x="341" y="834" type="line" smooth="yes"/>
      <point x="341" y="1027"/>
      <point x="464" y="1141"/>
      <point x="690" y="1141" type="curve" smooth="yes"/>
      <point x="920" y="1141"/>
      <point x="1042" y="1019"/>
      <point x="1042" y="810" type="curve" smooth="yes"/>
      <point x="1042" y="718" type="line" smooth="yes"/>
      <point x="1042" y="681"/>
      <point x="1036" y="660"/>
      <point x="1009" y="657" type="curve" smooth="yes"/>
      <point x="993" y="655" type="line"/>
      <point x="993" y="462" type="line"/>
      <point x="1027" y="460" type="line" smooth="yes"/>
      <point x="1081" y="457"/>
      <point x="1104" y="426"/>
      <point x="1104" y="353" type="curve" smooth="yes"/>
      <point x="1104" y="323" type="line" smooth="yes"/>
      <point x="1104" y="250"/>
      <point x="1081" y="215"/>
      <point x="1024" y="212" type="curve" smooth="yes"/>
      <point x="989" y="210" type="line"/>
      <point x="989" y="11" type="line"/>
    </contour>
    <contour>
      <point x="556" y="-22" type="curve" smooth="yes"/>
      <point x="795" y="-22"/>
      <point x="922" y="98"/>
      <point x="922" y="315" type="curve" smooth="yes"/>
      <point x="922" y="335" type="line" smooth="yes"/>
      <point x="922" y="449"/>
      <point x="890" y="493"/>
      <point x="817" y="523" type="curve"/>
      <point x="817" y="559" type="line"/>
      <point x="646" y="438" type="line"/>
      <point x="658" y="420"/>
      <point x="660" y="403"/>
      <point x="660" y="364" type="curve" smooth="yes"/>
      <point x="660" y="328" type="line" smooth="yes"/>
      <point x="660" y="260"/>
      <point x="637" y="206"/>
      <point x="565" y="206" type="curve" smooth="yes"/>
      <point x="493" y="206"/>
      <point x="469" y="260"/>
      <point x="469" y="325" type="curve" smooth="yes"/>
      <point x="469" y="432" type="line" smooth="yes"/>
      <point x="469" y="482"/>
      <point x="482" y="504"/>
      <point x="510" y="521" type="curve"/>
      <point x="510" y="795" type="line"/>
      <point x="412" y="776"/>
      <point x="322" y="721"/>
      <point x="278" y="633" type="curve"/>
      <point x="213" y="545" type="line"/>
      <point x="193" y="495"/>
      <point x="193" y="458"/>
      <point x="193" y="403" type="curve" smooth="yes"/>
      <point x="193" y="332" type="line" smooth="yes"/>
      <point x="193" y="100"/>
      <point x="310" y="-22"/>
    </contour>
    <contour>
      <point x="565" y="351" type="line"/>
      <point x="692" y="445" type="line"/>
      <point x="793" y="512" type="line"/>
      <point x="894" y="583" type="line"/>
      <point x="894" y="845" type="line"/>
      <point x="565" y="624" type="line"/>
    </contour>
  </outline>
</glyph>
<glyph name="VowelVocalicR.or" format="2">
  <advance width="1358"/>
  <unicode hex="0B0B"/>
  <anchor x="661" y="1804" name="top1"/>
  <anchor x="1062" y="1423" name="top2"/>
  <outline>
    <contour>
      <point x="1363" y="-196" type="line"/>
      <point x="1363" y="95" type="line"/>
      <point x="1108" y="168" type="line"/>
      <point x="1108" y="125" type="line"/>
      <point x="1149" y="137" type="line"/>
      <point x="1271" y="152"/>
      <point x="1317" y="224"/>
      <point x="1317" y="345" type="curve" smooth="yes"/>
      <point x="1317" y="408" type="line" smooth="yes"/>
      <point x="1317" y="533"/>
      <point x="1280" y="598"/>
      <point x="1199" y="627" type="curve"/>
      <point x="1196" y="581" type="line"/>
      <point x="1262" y="627"/>
      <point x="1275" y="686"/>
      <point x="1275" y="765" type="curve" smooth="yes"/>
      <point x="1275" y="824" type="line" smooth="yes"/>
      <point x="1275" y="1209"/>
      <point x="1058" y="1408"/>
      <point x="663" y="1408" type="curve" smooth="yes"/>
      <point x="280" y="1408"/>
      <point x="46" y="1205"/>
      <point x="46" y="841" type="curve" smooth="yes"/>
      <point x="46" y="764" type="line" smooth="yes"/>
      <point x="46" y="578"/>
      <point x="116" y="466"/>
      <point x="241" y="407" type="curve"/>
      <point x="385" y="657" type="line"/>
      <point x="346" y="684"/>
      <point x="337" y="716"/>
      <point x="337" y="775" type="curve" smooth="yes"/>
      <point x="337" y="843" type="line" smooth="yes"/>
      <point x="337" y="1034"/>
      <point x="445" y="1141"/>
      <point x="661" y="1141" type="curve" smooth="yes"/>
      <point x="883" y="1141"/>
      <point x="990" y="1023"/>
      <point x="990" y="821" type="curve" smooth="yes"/>
      <point x="990" y="718" type="line" smooth="yes"/>
      <point x="990" y="681"/>
      <point x="984" y="660"/>
      <point x="957" y="657" type="curve" smooth="yes"/>
      <point x="941" y="655" type="line"/>
      <point x="941" y="462" type="line"/>
      <point x="975" y="460" type="line" smooth="yes"/>
      <point x="1029" y="457"/>
      <point x="1052" y="426"/>
      <point x="1052" y="353" type="curve" smooth="yes"/>
      <point x="1052" y="323" type="line" smooth="yes"/>
      <point x="1052" y="250"/>
      <point x="1029" y="215"/>
      <point x="972" y="212" type="curve" smooth="yes"/>
      <point x="937" y="210" type="line"/>
      <point x="937" y="11" type="line"/>
    </contour>
    <contour>
      <point x="543" y="-20" type="curve" smooth="yes"/>
      <point x="767" y="-20"/>
      <point x="878" y="103"/>
      <point x="878" y="337" type="curve" smooth="yes"/>
      <point x="878" y="420" type="line" smooth="yes"/>
      <point x="878" y="651"/>
      <point x="773" y="776"/>
      <point x="569" y="776" type="curve" smooth="yes"/>
      <point x="411" y="776"/>
      <point x="341" y="699"/>
      <point x="289" y="600" type="curve"/>
      <point x="225" y="519" type="line"/>
      <point x="217" y="489"/>
      <point x="214" y="451"/>
      <point x="214" y="420" type="curve" smooth="yes"/>
      <point x="214" y="337" type="line" smooth="yes"/>
      <point x="214" y="103"/>
      <point x="319" y="-20"/>
    </contour>
    <contour>
      <point x="545" y="198" type="curve" smooth="yes"/>
      <point x="501" y="198"/>
      <point x="488" y="231"/>
      <point x="488" y="299" type="curve" smooth="yes"/>
      <point x="488" y="454" type="line" smooth="yes"/>
      <point x="488" y="523"/>
      <point x="501" y="556"/>
      <point x="545" y="556" type="curve" smooth="yes"/>
      <point x="589" y="556"/>
      <point x="602" y="523"/>
      <point x="602" y="454" type="curve" smooth="yes"/>
      <point x="602" y="299" type="line" smooth="yes"/>
      <point x="602" y="231"/>
      <point x="589" y="198"/>
    </contour>
  </outline>
</glyph>
<glyph name="VowelE.or" format="2">
  <advance width="1077"/>
  <unicode hex="0B0F"/>
  <anchor x="784" y="1423" name="top2"/>
  <outline>
    <contour>
      <point x="599" y="0" type="line"/>
      <point x="1009" y="0" type="line"/>
      <point x="1009" y="1372" type="line"/>
      <point x="615" y="1372" type="line"/>
      <point x="309" y="850" type="line"/>
      <point x="604" y="850" type="line"/>
      <point x="736" y="1123" type="line"/>
      <point x="749" y="1123" type="line"/>
      <point x="743" y="995"/>
      <point x="739" y="893"/>
      <point x="739" y="761" type="curve" smooth="yes"/>
      <point x="739" y="260" type="line"/>
      <point x="724" y="260" type="line"/>
      <point x="24" y="1119" type="line"/>
      <point x="24" y="689" type="line"/>
    </contour>
  </outline>
</glyph>
<glyph name="VowelAi.or" format="2">
  <advance width="1500"/>
  <unicode hex="0B10"/>
  <anchor x="1514" y="1543" name="top2"/>
  <outline>
    <contour>
      <point x="1156" y="0" type="line"/>
      <point x="1432" y="0" type="line"/>
      <point x="1432" y="1347" type="line" smooth="yes"/>
      <point x="1432" y="1619"/>
      <point x="1314" y="1721"/>
      <point x="1035" y="1726" type="curve" smooth="yes"/>
      <point x="796" y="1730" type="line" smooth="yes"/>
      <point x="713" y="1731"/>
      <point x="677" y="1763"/>
      <point x="673" y="1829" type="curve" smooth="yes"/>
      <point x="671" y="1861" type="line"/>
      <point x="397" y="1861" type="line"/>
      <point x="397" y="1822" type="line" smooth="yes"/>
      <point x="397" y="1598"/>
      <point x="507" y="1499"/>
      <point x="783" y="1494" type="curve" smooth="yes"/>
      <point x="1011" y="1490" type="line" smooth="yes"/>
      <point x="1127" y="1488"/>
      <point x="1156" y="1444"/>
      <point x="1156" y="1343" type="curve" smooth="yes"/>
    </contour>
    <contour>
      <point x="963" y="622" type="line"/>
      <point x="1222" y="622" type="line"/>
      <point x="1222" y="872" type="line"/>
      <point x="963" y="872" type="line"/>
    </contour>
    <component base="VowelE.or"/>
  </outline>
</glyph>
<glyph name="VowelO.or" format="2">
  <advance width="1162"/>
  <unicode hex="0B13"/>
  <anchor x="980" y="1423" name="top2"/>
  <outline>
    <contour>
      <point x="613" y="-20" type="curve" smooth="yes"/>
      <point x="936" y="-20"/>
      <point x="1118" y="135"/>
      <point x="1118" y="396" type="curve" smooth="yes"/>
      <point x="1118" y="422" type="line" smooth="yes"/>
      <point x="1118" y="577"/>
      <point x="1054" y="654"/>
      <point x="961" y="714" type="curve"/>
      <point x="756" y="560" type="line"/>
      <point x="798" y="537"/>
      <point x="817" y="497"/>
      <point x="817" y="442" type="curve" smooth="yes"/>
      <point x="817" y="424" type="line" smooth="yes"/>
      <point x="817" y="318"/>
      <point x="750" y="254"/>
      <point x="613" y="254" type="curve" smooth="yes"/>
      <point x="429" y="254"/>
      <point x="347" y="372"/>
      <point x="347" y="594" type="curve" smooth="yes"/>
      <point x="347" y="852" type="line" smooth="yes"/>
      <point x="347" y="1038"/>
      <point x="351" y="1159"/>
      <point x="427" y="1373" type="curve"/>
      <point x="147" y="1373" type="line"/>
      <point x="73" y="1196"/>
      <point x="62" y="1023"/>
      <point x="62" y="846" type="curve" smooth="yes"/>
      <point x="62" y="585" type="line" smooth="yes"/>
      <point x="62" y="180"/>
      <point x="250" y="-20"/>
    </contour>
    <contour>
      <point x="576" y="496" type="line"/>
      <point x="629" y="496" type="line" smooth="yes"/>
      <point x="707" y="496"/>
      <point x="788" y="509"/>
      <point x="844" y="541" type="curve"/>
      <point x="949" y="610" type="line"/>
      <point x="1063" y="687"/>
      <point x="1093" y="778"/>
      <point x="1093" y="931" type="curve" smooth="yes"/>
      <point x="1093" y="1071" type="line" smooth="yes"/>
      <point x="1093" y="1288"/>
      <point x="988" y="1400"/>
      <point x="774" y="1400" type="curve" smooth="yes"/>
      <point x="564" y="1400"/>
      <point x="459" y="1286"/>
      <point x="459" y="1083" type="curve" smooth="yes"/>
      <point x="459" y="1014" type="line" smooth="yes"/>
      <point x="459" y="964"/>
      <point x="466" y="928"/>
      <point x="477" y="888" type="curve"/>
      <point x="728" y="876" type="line"/>
      <point x="721" y="918"/>
      <point x="717" y="959"/>
      <point x="717" y="994" type="curve" smooth="yes"/>
      <point x="717" y="1087" type="line" smooth="yes"/>
      <point x="717" y="1144"/>
      <point x="729" y="1172"/>
      <point x="767" y="1172" type="curve" smooth="yes"/>
      <point x="805" y="1172"/>
      <point x="817" y="1144"/>
      <point x="817" y="1087" type="curve" smooth="yes"/>
      <point x="817" y="913" type="line" smooth="yes"/>
      <point x="817" y="784"/>
      <point x="755" y="738"/>
      <point x="638" y="734" type="curve" smooth="yes"/>
      <point x="576" y="732" type="line"/>
    </contour>
  </outline>
</glyph>
<glyph name="VowelAu.or" format="2">
  <advance width="1570"/>
  <unicode hex="0B14"/>
  <anchor x="1584" y="1543" name="top2"/>
  <outline>
    <contour>
      <point x="1226" y="0" type="line"/>
      <point x="1502" y="0" type="line"/>
      <point x="1502" y="1347" type="line" smooth="yes"/>
      <point x="1502" y="1619"/>
      <point x="1384" y="1721"/>
      <point x="1105" y="1726" type="curve" smooth="yes"/>
      <point x="866" y="1730" type="line" smooth="yes"/>
      <point x="783" y="1731"/>
      <point x="747" y="1763"/>
      <point x="743" y="1829" type="curve" smooth="yes"/>
      <point x="741" y="1861" type="line"/>
      <point x="467" y="1861" type="line"/>
      <point x="467" y="1822" type="line" smooth="yes"/>
      <point x="467" y="1598"/>
      <point x="577" y="1499"/>
      <point x="853" y="1494" type="curve" smooth="yes"/>
      <point x="1081" y="1490" type="line" smooth="yes"/>
      <point x="1197" y="1488"/>
      <point x="1226" y="1444"/>
      <point x="1226" y="1343" type="curve" smooth="yes"/>
    </contour>
    <contour>
      <point x="1038" y="322" type="line"/>
      <point x="1298" y="322" type="line"/>
      <point x="1298" y="572" type="line"/>
      <point x="1038" y="572" type="line"/>
    </contour>
    <component base="VowelO.or"/>
  </outline>
</glyph>
<glyph name="Kha.or" format="2">
  <advance width="1303"/>
  <unicode hex="0B16"/>
  <anchor x="1235" y="66" name="bottom"/>
  <anchor x="663" y="66" name="nukta"/>
  <anchor x="663" y="1804" name="top1"/>
  <anchor x="1082" y="1423" name="top2"/>
  <outline>
    <contour>
      <point x="241" y="403" type="curve"/>
      <point x="383" y="661" type="line"/>
      <point x="348" y="683"/>
      <point x="339" y="720"/>
      <point x="339" y="777" type="curve" smooth="yes"/>
      <point x="339" y="868" type="line" smooth="yes"/>
      <point x="339" y="1046"/>
      <point x="431" y="1137"/>
      <point x="590" y="1137" type="curve" smooth="yes"/>
      <point x="660" y="1137"/>
      <point x="712" y="1124"/>
      <point x="756" y="1111" type="curve"/>
      <point x="582" y="1306" type="line"/>
      <point x="582" y="1254"/>
      <point x="582" y="1201"/>
      <point x="582" y="1148" type="curve" smooth="yes"/>
      <point x="582" y="1067" type="line" smooth="yes"/>
      <point x="582" y="885"/>
      <point x="646" y="782"/>
      <point x="792" y="782" type="curve" smooth="yes"/>
      <point x="889" y="782"/>
      <point x="937" y="828"/>
      <point x="953" y="896" type="curve"/>
      <point x="1034" y="896" type="line"/>
      <point x="964" y="1059" type="line"/>
      <point x="960" y="1024"/>
      <point x="943" y="1005"/>
      <point x="911" y="1005" type="curve" smooth="yes"/>
      <point x="867" y="1005"/>
      <point x="856" y="1036"/>
      <point x="856" y="1097" type="curve" smooth="yes"/>
      <point x="856" y="1198" type="line" smooth="yes"/>
      <point x="856" y="1253"/>
      <point x="856" y="1307"/>
      <point x="856" y="1362" type="curve"/>
      <point x="784" y="1384"/>
      <point x="713" y="1402"/>
      <point x="584" y="1402" type="curve" smooth="yes"/>
      <point x="248" y="1402"/>
      <point x="46" y="1208"/>
      <point x="46" y="873" type="curve" smooth="yes"/>
      <point x="46" y="771" type="line" smooth="yes"/>
      <point x="46" y="578"/>
      <point x="113" y="466"/>
    </contour>
    <contour>
      <point x="542" y="-20" type="curve" smooth="yes"/>
      <point x="765" y="-20"/>
      <point x="875" y="103"/>
      <point x="875" y="337" type="curve" smooth="yes"/>
      <point x="875" y="409" type="line" smooth="yes"/>
      <point x="875" y="642"/>
      <point x="772" y="766"/>
      <point x="564" y="766" type="curve" smooth="yes"/>
      <point x="408" y="766"/>
      <point x="341" y="690"/>
      <point x="284" y="589" type="curve"/>
      <point x="220" y="508" type="line"/>
      <point x="213" y="479"/>
      <point x="209" y="440"/>
      <point x="209" y="409" type="curve" smooth="yes"/>
      <point x="209" y="337" type="line" smooth="yes"/>
      <point x="209" y="103"/>
      <point x="318" y="-20"/>
    </contour>
    <contour>
      <point x="542" y="198" type="curve" smooth="yes"/>
      <point x="498" y="198"/>
      <point x="485" y="231"/>
      <point x="485" y="299" type="curve" smooth="yes"/>
      <point x="485" y="444" type="line" smooth="yes"/>
      <point x="485" y="512"/>
      <point x="498" y="545"/>
      <point x="542" y="545" type="curve" smooth="yes"/>
      <point x="586" y="545"/>
      <point x="599" y="512"/>
      <point x="599" y="444" type="curve" smooth="yes"/>
      <point x="599" y="299" type="line" smooth="yes"/>
      <point x="599" y="231"/>
      <point x="586" y="198"/>
    </contour>
    <contour>
      <point x="959" y="0" type="line"/>
      <point x="1235" y="0" type="line"/>
      <point x="1235" y="1373" type="line"/>
      <point x="963" y="1373" type="line"/>
      <point x="963" y="1018" type="line"/>
      <point x="963" y="926" type="line"/>
      <point x="959" y="708" type="line"/>
    </contour>
  </outline>
</glyph>
<glyph name="Ga.or" format="2">
  <advance width="1303"/>
  <unicode hex="0B17"/>
  <anchor x="1235" y="66" name="bottom"/>
  <anchor x="662" y="66" name="nukta"/>
  <anchor x="662" y="1804" name="top1"/>
  <anchor x="1082" y="1423" name="top2"/>
  <outline>
    <contour>
      <point x="241" y="403" type="curve"/>
      <point x="379" y="661" type="line"/>
      <point x="346" y="689"/>
      <point x="339" y="718"/>
      <point x="339" y="775" type="curve" smooth="yes"/>
      <point x="339" y="861" type="line" smooth="yes"/>
      <point x="339" y="1039"/>
      <point x="435" y="1137"/>
      <point x="639" y="1137" type="curve" smooth="yes"/>
      <point x="843" y="1137"/>
      <point x="955" y="1026"/>
      <point x="959" y="826" type="curve"/>
      <point x="968" y="1135" type="line"/>
      <point x="944" y="1306"/>
      <point x="819" y="1408"/>
      <point x="569" y="1408" type="curve" smooth="yes"/>
      <point x="244" y="1408"/>
      <point x="46" y="1206"/>
      <point x="46" y="868" type="curve" smooth="yes"/>
      <point x="46" y="771" type="line" smooth="yes"/>
      <point x="46" y="578"/>
      <point x="112" y="464"/>
    </contour>
    <contour>
      <point x="541" y="-20" type="curve" smooth="yes"/>
      <point x="764" y="-20"/>
      <point x="875" y="103"/>
      <point x="875" y="337" type="curve" smooth="yes"/>
      <point x="875" y="420" type="line" smooth="yes"/>
      <point x="875" y="654"/>
      <point x="772" y="776"/>
      <point x="564" y="776" type="curve" smooth="yes"/>
      <point x="408" y="776"/>
      <point x="341" y="701"/>
      <point x="284" y="600" type="curve"/>
      <point x="219" y="519" type="line"/>
      <point x="212" y="490"/>
      <point x="208" y="451"/>
      <point x="208" y="420" type="curve" smooth="yes"/>
      <point x="208" y="337" type="line" smooth="yes"/>
      <point x="208" y="103"/>
      <point x="317" y="-20"/>
    </contour>
    <contour>
      <point x="541" y="198" type="curve" smooth="yes"/>
      <point x="497" y="198"/>
      <point x="484" y="231"/>
      <point x="484" y="299" type="curve" smooth="yes"/>
      <point x="484" y="454" type="line" smooth="yes"/>
      <point x="484" y="522"/>
      <point x="497" y="556"/>
      <point x="541" y="556" type="curve" smooth="yes"/>
      <point x="585" y="556"/>
      <point x="599" y="522"/>
      <point x="599" y="454" type="curve" smooth="yes"/>
      <point x="599" y="299" type="line" smooth="yes"/>
      <point x="599" y="231"/>
      <point x="585" y="198"/>
    </contour>
    <contour>
      <point x="959" y="0" type="line"/>
      <point x="1235" y="0" type="line"/>
      <point x="1235" y="1373" type="line"/>
      <point x="968" y="1373" type="line"/>
      <point x="974" y="1166" type="line"/>
      <point x="935" y="1166" type="line"/>
      <point x="959" y="956" type="line"/>
    </contour>
  </outline>
</glyph>
<glyph name="Gha.or" format="2">
  <advance width="1280"/>
  <unicode hex="0B18"/>
  <anchor x="1212" y="66" name="bottom"/>
  <anchor x="647" y="66" name="nukta"/>
  <anchor x="1600" y="56" name="rasmall"/>
  <anchor x="647" y="1804" name="top1"/>
  <anchor x="1059" y="1423" name="top2"/>
  <outline>
    <contour>
      <point x="234" y="425" type="curve"/>
      <point x="383" y="677" type="line"/>
      <point x="346" y="705"/>
      <point x="339" y="736"/>
      <point x="339" y="793" type="curve" smooth="yes"/>
      <point x="339" y="863" type="line" smooth="yes"/>
      <point x="339" y="1040"/>
      <point x="431" y="1137"/>
      <point x="628" y="1137" type="curve" smooth="yes"/>
      <point x="826" y="1137"/>
      <point x="937" y="1027"/>
      <point x="940" y="828" type="curve"/>
      <point x="942" y="1137" type="line"/>
      <point x="918" y="1306"/>
      <point x="799" y="1408"/>
      <point x="554" y="1408" type="curve" smooth="yes"/>
      <point x="238" y="1408"/>
      <point x="46" y="1209"/>
      <point x="46" y="876" type="curve" smooth="yes"/>
      <point x="46" y="771" type="line" smooth="yes"/>
      <point x="46" y="587"/>
      <point x="114" y="478"/>
    </contour>
    <contour>
      <point x="440" y="-4" type="curve" smooth="yes"/>
      <point x="552" y="-4"/>
      <point x="624" y="57"/>
      <point x="639" y="149" type="curve"/>
      <point x="648" y="149" type="line"/>
      <point x="652" y="61"/>
      <point x="692" y="-4"/>
      <point x="793" y="-4" type="curve" smooth="yes"/>
      <point x="898" y="-4"/>
      <point x="929" y="48"/>
      <point x="942" y="145" type="curve"/>
      <point x="1139" y="145" type="line"/>
      <point x="942" y="296" type="line"/>
      <point x="937" y="263"/>
      <point x="915" y="241"/>
      <point x="882" y="241" type="curve" smooth="yes"/>
      <point x="834" y="241"/>
      <point x="822" y="276"/>
      <point x="821" y="344" type="curve" smooth="yes"/>
      <point x="819" y="539" type="line"/>
      <point x="580" y="539" type="line"/>
      <point x="578" y="342" type="line" smooth="yes"/>
      <point x="577" y="276"/>
      <point x="565" y="241"/>
      <point x="517" y="241" type="curve" smooth="yes"/>
      <point x="469" y="241"/>
      <point x="457" y="276"/>
      <point x="457" y="340" type="curve" smooth="yes"/>
      <point x="457" y="460" type="line" smooth="yes"/>
      <point x="457" y="517"/>
      <point x="473" y="543"/>
      <point x="512" y="554" type="curve"/>
      <point x="512" y="821" type="line"/>
      <point x="407" y="804"/>
      <point x="311" y="743"/>
      <point x="271" y="659" type="curve"/>
      <point x="197" y="558" type="line"/>
      <point x="179" y="519"/>
      <point x="177" y="506"/>
      <point x="177" y="449" type="curve" smooth="yes"/>
      <point x="177" y="331" type="line" smooth="yes"/>
      <point x="177" y="109"/>
      <point x="260" y="-4"/>
    </contour>
    <contour>
      <point x="951" y="0" type="line"/>
      <point x="1212" y="0" type="line"/>
      <point x="1212" y="1373" type="line"/>
      <point x="942" y="1373" type="line"/>
      <point x="948" y="1168" type="line"/>
      <point x="933" y="1168" type="line"/>
      <point x="940" y="973" type="line"/>
      <point x="940" y="204" type="line"/>
      <point x="953" y="204" type="line"/>
    </contour>
  </outline>
</glyph>
<glyph name="Nga.or" format="2">
  <advance width="1507"/>
  <unicode hex="0B19"/>
  <anchor x="780" y="66" name="bottom"/>
  <anchor x="651" y="66" name="nukta"/>
  <anchor x="661" y="1804" name="top1"/>
  <anchor x="1038" y="1423" name="top2"/>
  <outline>
    <contour>
      <point x="276" y="370" type="curve"/>
      <point x="377" y="637" type="line"/>
      <point x="342" y="665"/>
      <point x="337" y="697"/>
      <point x="337" y="756" type="curve" smooth="yes"/>
      <point x="337" y="820" type="line" smooth="yes"/>
      <point x="337" y="1032"/>
      <point x="454" y="1141"/>
      <point x="668" y="1141" type="curve" smooth="yes"/>
      <point x="817" y="1141"/>
      <point x="906" y="1096"/>
      <point x="970" y="1036" type="curve"/>
      <point x="1103" y="1239" type="line"/>
      <point x="1010" y="1329"/>
      <point x="859" y="1408"/>
      <point x="661" y="1408" type="curve" smooth="yes"/>
      <point x="301" y="1408"/>
      <point x="46" y="1200"/>
      <point x="46" y="823" type="curve" smooth="yes"/>
      <point x="46" y="751" type="line" smooth="yes"/>
      <point x="46" y="552"/>
      <point x="131" y="422"/>
    </contour>
    <contour>
      <point x="616" y="-22" type="curve" smooth="yes"/>
      <point x="856" y="-22"/>
      <point x="982" y="98"/>
      <point x="982" y="315" type="curve" smooth="yes"/>
      <point x="982" y="335" type="line" smooth="yes"/>
      <point x="982" y="449"/>
      <point x="951" y="494"/>
      <point x="877" y="523" type="curve"/>
      <point x="877" y="559" type="line"/>
      <point x="706" y="438" type="line"/>
      <point x="719" y="420"/>
      <point x="720" y="403"/>
      <point x="720" y="364" type="curve" smooth="yes"/>
      <point x="720" y="328" type="line" smooth="yes"/>
      <point x="720" y="260"/>
      <point x="697" y="206"/>
      <point x="625" y="206" type="curve" smooth="yes"/>
      <point x="553" y="206"/>
      <point x="529" y="260"/>
      <point x="529" y="325" type="curve" smooth="yes"/>
      <point x="529" y="432" type="line" smooth="yes"/>
      <point x="529" y="482"/>
      <point x="542" y="504"/>
      <point x="570" y="521" type="curve"/>
      <point x="570" y="795" type="line"/>
      <point x="472" y="777"/>
      <point x="382" y="721"/>
      <point x="338" y="633" type="curve"/>
      <point x="273" y="545" type="line"/>
      <point x="253" y="495"/>
      <point x="253" y="458"/>
      <point x="253" y="403" type="curve" smooth="yes"/>
      <point x="253" y="332" type="line" smooth="yes"/>
      <point x="253" y="100"/>
      <point x="371" y="-22"/>
    </contour>
    <contour>
      <point x="625" y="351" type="line"/>
      <point x="752" y="445" type="line"/>
      <point x="853" y="512" type="line"/>
      <point x="954" y="583" type="line"/>
      <point x="954" y="845" type="line"/>
      <point x="625" y="624" type="line"/>
    </contour>
    <contour>
      <point x="1215" y="750" type="curve" smooth="yes"/>
      <point x="1402" y="750"/>
      <point x="1492" y="855"/>
      <point x="1492" y="1015" type="curve" smooth="yes"/>
      <point x="1492" y="1082" type="line" smooth="yes"/>
      <point x="1492" y="1254"/>
      <point x="1404" y="1355"/>
      <point x="1227" y="1355" type="curve" smooth="yes"/>
      <point x="1097" y="1355"/>
      <point x="1038" y="1292"/>
      <point x="994" y="1211" type="curve"/>
      <point x="951" y="1152" type="line"/>
      <point x="945" y="1128"/>
      <point x="942" y="1097"/>
      <point x="942" y="1082" type="curve" smooth="yes"/>
      <point x="942" y="1020" type="line" smooth="yes"/>
      <point x="942" y="855"/>
      <point x="1032" y="750"/>
    </contour>
    <contour>
      <point x="1215" y="924" type="curve" smooth="yes"/>
      <point x="1180" y="924"/>
      <point x="1164" y="949"/>
      <point x="1164" y="1005" type="curve" smooth="yes"/>
      <point x="1164" y="1091" type="line" smooth="yes"/>
      <point x="1164" y="1149"/>
      <point x="1180" y="1174"/>
      <point x="1215" y="1174" type="curve" smooth="yes"/>
      <point x="1251" y="1174"/>
      <point x="1266" y="1149"/>
      <point x="1266" y="1092" type="curve" smooth="yes"/>
      <point x="1266" y="1006" type="line" smooth="yes"/>
      <point x="1266" y="950"/>
      <point x="1251" y="924"/>
    </contour>
  </outline>
</glyph>
<glyph name="Ca.or" format="2">
  <advance width="1317"/>
  <unicode hex="0B1A"/>
  <anchor x="757" y="66" name="bottom"/>
  <anchor x="612" y="66" name="nukta"/>
  <anchor x="632" y="1804" name="top1"/>
  <anchor x="1030" y="1423" name="top2"/>
  <outline>
    <contour>
      <point x="281" y="370" type="curve"/>
      <point x="389" y="644" type="line"/>
      <point x="343" y="675"/>
      <point x="337" y="711"/>
      <point x="337" y="775" type="curve" smooth="yes"/>
      <point x="337" y="840" type="line" smooth="yes"/>
      <point x="337" y="1038"/>
      <point x="449" y="1141"/>
      <point x="662" y="1141" type="curve" smooth="yes"/>
      <point x="881" y="1141"/>
      <point x="985" y="1028"/>
      <point x="985" y="824" type="curve" smooth="yes"/>
      <point x="985" y="632" type="line" smooth="yes"/>
      <point x="985" y="565"/>
      <point x="980" y="513"/>
      <point x="967" y="443" type="curve"/>
      <point x="1231" y="475" type="line"/>
      <point x="1257" y="534"/>
      <point x="1270" y="633"/>
      <point x="1270" y="702" type="curve" smooth="yes"/>
      <point x="1270" y="824" type="line" smooth="yes"/>
      <point x="1270" y="1212"/>
      <point x="1057" y="1408"/>
      <point x="660" y="1408" type="curve" smooth="yes"/>
      <point x="284" y="1408"/>
      <point x="46" y="1205"/>
      <point x="46" y="837" type="curve" smooth="yes"/>
      <point x="46" y="759" type="line" smooth="yes"/>
      <point x="46" y="556"/>
      <point x="125" y="422"/>
    </contour>
    <contour>
      <point x="602" y="-20" type="curve" smooth="yes"/>
      <point x="825" y="-20"/>
      <point x="935" y="103"/>
      <point x="935" y="337" type="curve" smooth="yes"/>
      <point x="935" y="420" type="line" smooth="yes"/>
      <point x="935" y="652"/>
      <point x="830" y="776"/>
      <point x="626" y="776" type="curve" smooth="yes"/>
      <point x="460" y="776"/>
      <point x="385" y="698"/>
      <point x="339" y="600" type="curve"/>
      <point x="280" y="519" type="line"/>
      <point x="274" y="490"/>
      <point x="271" y="451"/>
      <point x="271" y="420" type="curve" smooth="yes"/>
      <point x="271" y="337" type="line" smooth="yes"/>
      <point x="271" y="103"/>
      <point x="376" y="-20"/>
    </contour>
    <contour>
      <point x="602" y="198" type="curve" smooth="yes"/>
      <point x="558" y="198"/>
      <point x="545" y="231"/>
      <point x="545" y="299" type="curve" smooth="yes"/>
      <point x="545" y="454" type="line" smooth="yes"/>
      <point x="545" y="522"/>
      <point x="558" y="556"/>
      <point x="602" y="556" type="curve" smooth="yes"/>
      <point x="646" y="556"/>
      <point x="659" y="522"/>
      <point x="659" y="454" type="curve" smooth="yes"/>
      <point x="659" y="299" type="line" smooth="yes"/>
      <point x="659" y="231"/>
      <point x="646" y="198"/>
    </contour>
  </outline>
</glyph>
<glyph name="Cha.or" format="2">
  <advance width="1317"/>
  <unicode hex="0B1B"/>
  <anchor x="906" y="-214" name="bottom"/>
  <anchor x="602" y="-216" name="nukta"/>
  <anchor x="632" y="1804" name="top1"/>
  <anchor x="1030" y="1423" name="top2"/>
  <outline>
    <contour>
      <point x="281" y="370" type="curve"/>
      <point x="389" y="644" type="line"/>
      <point x="343" y="675"/>
      <point x="337" y="711"/>
      <point x="337" y="775" type="curve" smooth="yes"/>
      <point x="337" y="840" type="line" smooth="yes"/>
      <point x="337" y="1038"/>
      <point x="449" y="1141"/>
      <point x="662" y="1141" type="curve" smooth="yes"/>
      <point x="881" y="1141"/>
      <point x="985" y="1028"/>
      <point x="985" y="824" type="curve" smooth="yes"/>
      <point x="985" y="632" type="line" smooth="yes"/>
      <point x="985" y="565"/>
      <point x="980" y="513"/>
      <point x="967" y="443" type="curve"/>
      <point x="1231" y="475" type="line"/>
      <point x="1257" y="534"/>
      <point x="1270" y="633"/>
      <point x="1270" y="702" type="curve" smooth="yes"/>
      <point x="1270" y="824" type="line" smooth="yes"/>
      <point x="1270" y="1212"/>
      <point x="1057" y="1408"/>
      <point x="660" y="1408" type="curve" smooth="yes"/>
      <point x="284" y="1408"/>
      <point x="46" y="1205"/>
      <point x="46" y="837" type="curve" smooth="yes"/>
      <point x="46" y="759" type="line" smooth="yes"/>
      <point x="46" y="556"/>
      <point x="125" y="422"/>
    </contour>
    <contour>
      <point x="384" y="-353" type="curve" smooth="yes"/>
      <point x="507" y="-353"/>
      <point x="587" y="-287"/>
      <point x="621" y="-170" type="curve"/>
      <point x="702" y="-84" type="line"/>
      <point x="723" y="2"/>
      <point x="745" y="33"/>
      <point x="780" y="33" type="curve" smooth="yes"/>
      <point x="809" y="33"/>
      <point x="829" y="12"/>
      <point x="829" y="-46" type="curve" smooth="yes"/>
      <point x="829" y="-74" type="line" smooth="yes"/>
      <point x="829" y="-135"/>
      <point x="809" y="-155"/>
      <point x="782" y="-155" type="curve" smooth="yes"/>
      <point x="746" y="-155"/>
      <point x="725" y="-132"/>
      <point x="705" y="-61" type="curve"/>
      <point x="624" y="71" type="line"/>
      <point x="584" y="156"/>
      <point x="488" y="210"/>
      <point x="384" y="210" type="curve" smooth="yes"/>
      <point x="231" y="210"/>
      <point x="144" y="121"/>
      <point x="144" y="-37" type="curve" smooth="yes"/>
      <point x="144" y="-95" type="line" smooth="yes"/>
      <point x="144" y="-260"/>
      <point x="223" y="-353"/>
    </contour>
    <contour>
      <point x="824" y="-353" type="curve" smooth="yes"/>
      <point x="984" y="-353"/>
      <point x="1063" y="-260"/>
      <point x="1063" y="-95" type="curve" smooth="yes"/>
      <point x="1063" y="-37" type="line" smooth="yes"/>
      <point x="1063" y="121"/>
      <point x="976" y="210"/>
      <point x="823" y="210" type="curve" smooth="yes"/>
      <point x="719" y="210"/>
      <point x="623" y="156"/>
      <point x="583" y="71" type="curve"/>
      <point x="502" y="-61" type="line"/>
      <point x="480" y="-132"/>
      <point x="461" y="-155"/>
      <point x="427" y="-155" type="curve" smooth="yes"/>
      <point x="398" y="-155"/>
      <point x="378" y="-136"/>
      <point x="378" y="-74" type="curve" smooth="yes"/>
      <point x="378" y="-46" type="line" smooth="yes"/>
      <point x="378" y="12"/>
      <point x="398" y="33"/>
      <point x="427" y="33" type="curve" smooth="yes"/>
      <point x="462" y="33"/>
      <point x="484" y="2"/>
      <point x="505" y="-84" type="curve"/>
      <point x="577" y="-170" type="line"/>
      <point x="617" y="-287"/>
      <point x="700" y="-353"/>
    </contour>
    <contour>
      <point x="602" y="46" type="curve"/>
      <point x="830" y="46"/>
      <point x="935" y="156"/>
      <point x="935" y="346" type="curve" smooth="yes"/>
      <point x="935" y="430" type="line" smooth="yes"/>
      <point x="935" y="662"/>
      <point x="830" y="786"/>
      <point x="626" y="786" type="curve" smooth="yes"/>
      <point x="460" y="786"/>
      <point x="385" y="708"/>
      <point x="338" y="609" type="curve"/>
      <point x="280" y="528" type="line"/>
      <point x="274" y="499"/>
      <point x="271" y="460"/>
      <point x="271" y="429" type="curve" smooth="yes"/>
      <point x="271" y="346" type="line" smooth="yes"/>
      <point x="271" y="156"/>
      <point x="376" y="46"/>
    </contour>
    <contour>
      <point x="602" y="208" type="curve" smooth="yes"/>
      <point x="558" y="208"/>
      <point x="545" y="241"/>
      <point x="545" y="309" type="curve" smooth="yes"/>
      <point x="545" y="465" type="line" smooth="yes"/>
      <point x="545" y="533"/>
      <point x="558" y="566"/>
      <point x="602" y="566" type="curve" smooth="yes"/>
      <point x="646" y="566"/>
      <point x="659" y="533"/>
      <point x="659" y="465" type="curve" smooth="yes"/>
      <point x="659" y="309" type="line" smooth="yes"/>
      <point x="659" y="241"/>
      <point x="646" y="208"/>
    </contour>
  </outline>
</glyph>
<glyph name="Ja.or" format="2">
  <advance width="1366"/>
  <unicode hex="0B1C"/>
  <anchor x="1077" y="66" name="bottom"/>
  <anchor x="680" y="66" name="nukta"/>
  <anchor x="680" y="1804" name="top1"/>
  <anchor x="1065" y="1423" name="top2"/>
  <outline>
    <contour>
      <point x="223" y="394" type="curve"/>
      <point x="390" y="589" type="line"/>
      <point x="353" y="620"/>
      <point x="337" y="673"/>
      <point x="337" y="732" type="curve" smooth="yes"/>
      <point x="337" y="832" type="line" smooth="yes"/>
      <point x="337" y="1032"/>
      <point x="444" y="1141"/>
      <point x="680" y="1141" type="curve" smooth="yes"/>
      <point x="928" y="1141"/>
      <point x="1035" y="1020"/>
      <point x="1035" y="787" type="curve" smooth="yes"/>
      <point x="1035" y="622" type="line" smooth="yes"/>
      <point x="1035" y="559"/>
      <point x="1036" y="521"/>
      <point x="1023" y="442" type="curve"/>
      <point x="1286" y="477" type="line"/>
      <point x="1310" y="538"/>
      <point x="1319" y="618"/>
      <point x="1319" y="686" type="curve" smooth="yes"/>
      <point x="1319" y="799" type="line" smooth="yes"/>
      <point x="1319" y="1201"/>
      <point x="1091" y="1408"/>
      <point x="676" y="1408" type="curve" smooth="yes"/>
      <point x="285" y="1408"/>
      <point x="46" y="1196"/>
      <point x="46" y="834" type="curve" smooth="yes"/>
      <point x="46" y="719" type="line" smooth="yes"/>
      <point x="46" y="544"/>
      <point x="118" y="436"/>
    </contour>
    <contour>
      <point x="461" y="-17" type="curve" smooth="yes"/>
      <point x="647" y="-17"/>
      <point x="754" y="73"/>
      <point x="754" y="258" type="curve" smooth="yes"/>
      <point x="754" y="291" type="line" smooth="yes"/>
      <point x="754" y="377"/>
      <point x="731" y="427"/>
      <point x="674" y="446" type="curve"/>
      <point x="674" y="454" type="line"/>
      <point x="906" y="542" type="line"/>
      <point x="842" y="572" type="line"/>
      <point x="809" y="471"/>
      <point x="806" y="369"/>
      <point x="806" y="280" type="curve" smooth="yes"/>
      <point x="806" y="0" type="line"/>
      <point x="1077" y="0" type="line"/>
      <point x="1077" y="613" type="line"/>
      <point x="881" y="768" type="line"/>
      <point x="492" y="613" type="line"/>
      <point x="492" y="436" type="line"/>
      <point x="506" y="428"/>
      <point x="511" y="410"/>
      <point x="511" y="385" type="curve" smooth="yes"/>
      <point x="511" y="273" type="line" smooth="yes"/>
      <point x="511" y="227"/>
      <point x="501" y="199"/>
      <point x="467" y="199" type="curve" smooth="yes"/>
      <point x="433" y="199"/>
      <point x="422" y="227"/>
      <point x="422" y="273" type="curve" smooth="yes"/>
      <point x="422" y="458" type="line" smooth="yes"/>
      <point x="422" y="510"/>
      <point x="431" y="534"/>
      <point x="459" y="545" type="curve"/>
      <point x="459" y="800" type="line"/>
      <point x="365" y="780"/>
      <point x="304" y="729"/>
      <point x="260" y="650" type="curve"/>
      <point x="192" y="558" type="line"/>
      <point x="155" y="506"/>
      <point x="153" y="471"/>
      <point x="153" y="412" type="curve" smooth="yes"/>
      <point x="153" y="299" type="line" smooth="yes"/>
      <point x="153" y="97"/>
      <point x="252" y="-17"/>
    </contour>
  </outline>
</glyph>
<glyph name="Jha.or" format="2">
  <advance width="1242"/>
  <unicode hex="0B1D"/>
  <anchor x="737" y="66" name="bottom"/>
  <anchor x="630" y="66" name="nukta"/>
  <anchor x="630" y="1804" name="top1"/>
  <anchor x="898" y="1423" name="top2"/>
  <outline>
    <contour>
      <point x="265" y="396" type="curve"/>
      <point x="398" y="653" type="line"/>
      <point x="356" y="677"/>
      <point x="339" y="717"/>
      <point x="339" y="780" type="curve" smooth="yes"/>
      <point x="339" y="882" type="line" smooth="yes"/>
      <point x="339" y="1051"/>
      <point x="426" y="1137"/>
      <point x="591" y="1137" type="curve" smooth="yes"/>
      <point x="663" y="1137"/>
      <point x="716" y="1132"/>
      <point x="761" y="1119" type="curve"/>
      <point x="560" y="1306" type="line"/>
      <point x="560" y="1254"/>
      <point x="560" y="1201"/>
      <point x="560" y="1148" type="curve" smooth="yes"/>
      <point x="560" y="1100" type="line" smooth="yes"/>
      <point x="560" y="892"/>
      <point x="665" y="782"/>
      <point x="886" y="782" type="curve" smooth="yes"/>
      <point x="1103" y="782"/>
      <point x="1212" y="905"/>
      <point x="1212" y="1106" type="curve" smooth="yes"/>
      <point x="1212" y="1203" type="line" smooth="yes"/>
      <point x="1212" y="1260"/>
      <point x="1212" y="1316"/>
      <point x="1212" y="1373" type="curve"/>
      <point x="939" y="1373" type="line"/>
      <point x="939" y="1316"/>
      <point x="939" y="1260"/>
      <point x="939" y="1203" type="curve" smooth="yes"/>
      <point x="939" y="1098" type="line" smooth="yes"/>
      <point x="939" y="1035"/>
      <point x="926" y="1005"/>
      <point x="886" y="1005" type="curve" smooth="yes"/>
      <point x="846" y="1005"/>
      <point x="833" y="1035"/>
      <point x="833" y="1098" type="curve" smooth="yes"/>
      <point x="833" y="1198" type="line" smooth="yes"/>
      <point x="833" y="1253"/>
      <point x="833" y="1307"/>
      <point x="833" y="1362" type="curve"/>
      <point x="768" y="1384"/>
      <point x="702" y="1402"/>
      <point x="582" y="1402" type="curve" smooth="yes"/>
      <point x="252" y="1402"/>
      <point x="46" y="1208"/>
      <point x="46" y="877" type="curve" smooth="yes"/>
      <point x="46" y="775" type="line" smooth="yes"/>
      <point x="46" y="578"/>
      <point x="120" y="466"/>
    </contour>
    <contour>
      <point x="1139" y="-184" type="line"/>
      <point x="1139" y="101" type="line"/>
      <point x="871" y="243" type="line"/>
      <point x="725" y="57" type="line"/>
    </contour>
    <contour>
      <point x="569" y="-20" type="curve" smooth="yes"/>
      <point x="696" y="-20"/>
      <point x="755" y="22"/>
      <point x="801" y="75" type="curve"/>
      <point x="887" y="199" type="line"/>
      <point x="907" y="245"/>
      <point x="915" y="293"/>
      <point x="915" y="348" type="curve" smooth="yes"/>
      <point x="915" y="408" type="line" smooth="yes"/>
      <point x="915" y="642"/>
      <point x="812" y="765"/>
      <point x="604" y="765" type="curve" smooth="yes"/>
      <point x="448" y="765"/>
      <point x="381" y="690"/>
      <point x="324" y="589" type="curve"/>
      <point x="260" y="508" type="line"/>
      <point x="253" y="479"/>
      <point x="249" y="439"/>
      <point x="249" y="408" type="curve" smooth="yes"/>
      <point x="249" y="337" type="line" smooth="yes"/>
      <point x="249" y="105"/>
      <point x="361" y="-20"/>
    </contour>
    <contour>
      <point x="582" y="198" type="curve" smooth="yes"/>
      <point x="538" y="198"/>
      <point x="525" y="231"/>
      <point x="525" y="299" type="curve" smooth="yes"/>
      <point x="525" y="443" type="line" smooth="yes"/>
      <point x="525" y="511"/>
      <point x="538" y="545"/>
      <point x="582" y="545" type="curve" smooth="yes"/>
      <point x="626" y="545"/>
      <point x="639" y="511"/>
      <point x="639" y="443" type="curve" smooth="yes"/>
      <point x="639" y="299" type="line" smooth="yes"/>
      <point x="639" y="231"/>
      <point x="626" y="198"/>
    </contour>
  </outline>
</glyph>
<glyph name="Nya.or" format="2">
  <advance width="1318"/>
  <unicode hex="0B1E"/>
  <anchor x="835" y="66" name="bottom"/>
  <anchor x="667" y="66" name="nukta"/>
  <anchor x="667" y="1804" name="top1"/>
  <anchor x="1060" y="1423" name="top2"/>
  <outline>
    <contour>
      <point x="440" y="346" type="curve"/>
      <point x="670" y="328" type="line"/>
      <point x="660" y="368"/>
      <point x="657" y="400"/>
      <point x="657" y="440" type="curve" smooth="yes"/>
      <point x="657" y="526" type="line" smooth="yes"/>
      <point x="657" y="566"/>
      <point x="663" y="587"/>
      <point x="692" y="587" type="curve" smooth="yes"/>
      <point x="720" y="587"/>
      <point x="727" y="566"/>
      <point x="727" y="526" type="curve" smooth="yes"/>
      <point x="728" y="359" type="line"/>
      <point x="934" y="359" type="line"/>
      <point x="935" y="529" type="line" smooth="yes"/>
      <point x="935" y="569"/>
      <point x="941" y="590"/>
      <point x="970" y="590" type="curve" smooth="yes"/>
      <point x="998" y="590"/>
      <point x="1005" y="569"/>
      <point x="1005" y="529" type="curve" smooth="yes"/>
      <point x="1005" y="423" type="line" smooth="yes"/>
      <point x="1005" y="293"/>
      <point x="905" y="223"/>
      <point x="680" y="223" type="curve" smooth="yes"/>
      <point x="444" y="223"/>
      <point x="333" y="306"/>
      <point x="333" y="483" type="curve" smooth="yes"/>
      <point x="333" y="521" type="line" smooth="yes"/>
      <point x="333" y="576"/>
      <point x="339" y="609"/>
      <point x="363" y="635" type="curve"/>
      <point x="149" y="802" type="line"/>
      <point x="86" y="725"/>
      <point x="57" y="636"/>
      <point x="57" y="520" type="curve" smooth="yes"/>
      <point x="57" y="449" type="line" smooth="yes"/>
      <point x="57" y="139"/>
      <point x="296" y="-27"/>
      <point x="678" y="-27" type="curve" smooth="yes"/>
      <point x="1057" y="-27"/>
      <point x="1265" y="134"/>
      <point x="1265" y="427" type="curve" smooth="yes"/>
      <point x="1265" y="525" type="line" smooth="yes"/>
      <point x="1265" y="698"/>
      <point x="1196" y="784"/>
      <point x="1033" y="784" type="curve" smooth="yes"/>
      <point x="926" y="784"/>
      <point x="855" y="738"/>
      <point x="839" y="653" type="curve"/>
      <point x="832" y="653" type="line"/>
      <point x="803" y="713"/>
      <point x="747" y="731"/>
      <point x="628" y="731" type="curve" smooth="yes"/>
      <point x="474" y="731"/>
      <point x="417" y="665"/>
      <point x="417" y="530" type="curve" smooth="yes"/>
      <point x="417" y="484" type="line" smooth="yes"/>
      <point x="417" y="429"/>
      <point x="424" y="388"/>
    </contour>
    <contour>
      <point x="434" y="918" type="curve"/>
      <point x="668" y="900" type="line"/>
      <point x="658" y="940"/>
      <point x="655" y="972"/>
      <point x="655" y="1012" type="curve" smooth="yes"/>
      <point x="655" y="1098" type="line" smooth="yes"/>
      <point x="655" y="1138"/>
      <point x="662" y="1159"/>
      <point x="690" y="1159" type="curve" smooth="yes"/>
      <point x="719" y="1159"/>
      <point x="725" y="1138"/>
      <point x="725" y="1098" type="curve" smooth="yes"/>
      <point x="726" y="931" type="line"/>
      <point x="934" y="931" type="line"/>
      <point x="935" y="1098" type="line" smooth="yes"/>
      <point x="935" y="1138"/>
      <point x="942" y="1159"/>
      <point x="970" y="1159" type="curve" smooth="yes"/>
      <point x="999" y="1159"/>
      <point x="1005" y="1138"/>
      <point x="1005" y="1098" type="curve" smooth="yes"/>
      <point x="1005" y="1006" type="line" smooth="yes"/>
      <point x="1005" y="846"/>
      <point x="905" y="788"/>
      <point x="697" y="788" type="curve" smooth="yes"/>
      <point x="444" y="788"/>
      <point x="333" y="880"/>
      <point x="333" y="1068" type="curve" smooth="yes"/>
      <point x="333" y="1104" type="line" smooth="yes"/>
      <point x="333" y="1192"/>
      <point x="341" y="1264"/>
      <point x="396" y="1367" type="curve"/>
      <point x="123" y="1367" type="line"/>
      <point x="70" y="1277"/>
      <point x="57" y="1188"/>
      <point x="57" y="1098" type="curve" smooth="yes"/>
      <point x="57" y="1056" type="line" smooth="yes"/>
      <point x="57" y="922"/>
      <point x="81" y="826"/>
      <point x="164" y="751" type="curve"/>
      <point x="313" y="638" type="line"/>
      <point x="358" y="596"/>
      <point x="436" y="573"/>
      <point x="501" y="567" type="curve"/>
      <point x="613" y="592" type="line"/>
      <point x="701" y="613" type="line"/>
      <point x="832" y="622"/>
      <point x="958" y="618"/>
      <point x="1081" y="681" type="curve"/>
      <point x="1206" y="744"/>
      <point x="1265" y="846"/>
      <point x="1265" y="986" type="curve" smooth="yes"/>
      <point x="1265" y="1100" type="line" smooth="yes"/>
      <point x="1265" y="1288"/>
      <point x="1194" y="1380"/>
      <point x="1033" y="1380" type="curve" smooth="yes"/>
      <point x="920" y="1380"/>
      <point x="854" y="1323"/>
      <point x="834" y="1231" type="curve"/>
      <point x="827" y="1231" type="line"/>
      <point x="807" y="1325"/>
      <point x="752" y="1380"/>
      <point x="635" y="1380" type="curve" smooth="yes"/>
      <point x="492" y="1380"/>
      <point x="412" y="1293"/>
      <point x="412" y="1116" type="curve" smooth="yes"/>
      <point x="412" y="1056" type="line" smooth="yes"/>
      <point x="412" y="1001"/>
      <point x="418" y="960"/>
    </contour>
  </outline>
</glyph>
<glyph name="Tta.or" format="2">
  <advance width="1265"/>
  <unicode hex="0B1F"/>
  <anchor x="763" y="66" name="bottom"/>
  <anchor x="634" y="66" name="nukta"/>
  <anchor x="634" y="1801" name="top1"/>
  <anchor x="858" y="1423" name="top2"/>
  <outline>
    <contour>
      <point x="276" y="377" type="curve"/>
      <point x="390" y="642" type="line"/>
      <point x="351" y="670"/>
      <point x="339" y="703"/>
      <point x="339" y="769" type="curve" smooth="yes"/>
      <point x="339" y="854" type="line" smooth="yes"/>
      <point x="339" y="1039"/>
      <point x="432" y="1137"/>
      <point x="632" y="1137" type="curve" smooth="yes"/>
      <point x="832" y="1137"/>
      <point x="944" y="1025"/>
      <point x="948" y="823" type="curve"/>
      <point x="957" y="1132" type="line"/>
      <point x="928" y="1304"/>
      <point x="810" y="1408"/>
      <point x="564" y="1408" type="curve" smooth="yes"/>
      <point x="243" y="1408"/>
      <point x="46" y="1203"/>
      <point x="46" y="863" type="curve" smooth="yes"/>
      <point x="46" y="747" type="line" smooth="yes"/>
      <point x="46" y="554"/>
      <point x="132" y="434"/>
    </contour>
    <contour>
      <point x="608" y="-20" type="curve" smooth="yes"/>
      <point x="831" y="-20"/>
      <point x="941" y="103"/>
      <point x="941" y="337" type="curve" smooth="yes"/>
      <point x="941" y="420" type="line" smooth="yes"/>
      <point x="941" y="654"/>
      <point x="838" y="776"/>
      <point x="630" y="776" type="curve" smooth="yes"/>
      <point x="474" y="776"/>
      <point x="408" y="701"/>
      <point x="351" y="600" type="curve"/>
      <point x="286" y="519" type="line"/>
      <point x="279" y="490"/>
      <point x="275" y="451"/>
      <point x="275" y="420" type="curve" smooth="yes"/>
      <point x="275" y="337" type="line" smooth="yes"/>
      <point x="275" y="103"/>
      <point x="384" y="-20"/>
    </contour>
    <contour>
      <point x="608" y="198" type="curve" smooth="yes"/>
      <point x="564" y="198"/>
      <point x="551" y="231"/>
      <point x="551" y="299" type="curve" smooth="yes"/>
      <point x="551" y="454" type="line" smooth="yes"/>
      <point x="551" y="522"/>
      <point x="564" y="556"/>
      <point x="608" y="556" type="curve" smooth="yes"/>
      <point x="652" y="556"/>
      <point x="665" y="522"/>
      <point x="665" y="454" type="curve" smooth="yes"/>
      <point x="665" y="299" type="line" smooth="yes"/>
      <point x="665" y="231"/>
      <point x="652" y="198"/>
    </contour>
    <contour>
      <point x="948" y="675" type="line"/>
      <point x="1215" y="675" type="line"/>
      <point x="1215" y="1373" type="line"/>
      <point x="957" y="1373" type="line"/>
      <point x="962" y="1163" type="line"/>
      <point x="928" y="1163" type="line"/>
      <point x="948" y="1096" type="line"/>
    </contour>
  </outline>
</glyph>
<glyph name="Ttha.or" format="2">
  <advance width="1114"/>
  <unicode hex="0B20"/>
  <anchor x="712" y="66" name="bottom"/>
  <anchor x="557" y="66" name="nukta"/>
  <anchor x="557" y="1804" name="top1"/>
  <anchor x="859" y="1423" name="top2"/>
  <outline>
    <contour>
      <point x="557" y="-18" type="curve" smooth="yes"/>
      <point x="888" y="-18"/>
      <point x="1057" y="165"/>
      <point x="1057" y="499" type="curve" smooth="yes"/>
      <point x="1057" y="885" type="line" smooth="yes"/>
      <point x="1057" y="1215"/>
      <point x="886" y="1402"/>
      <point x="557" y="1402" type="curve" smooth="yes"/>
      <point x="226" y="1402"/>
      <point x="57" y="1219"/>
      <point x="57" y="885" type="curve" smooth="yes"/>
      <point x="57" y="499" type="line" smooth="yes"/>
      <point x="57" y="165"/>
      <point x="224" y="-18"/>
    </contour>
    <contour>
      <point x="557" y="243" type="curve" smooth="yes"/>
      <point x="412" y="243"/>
      <point x="351" y="329"/>
      <point x="351" y="499" type="curve" smooth="yes"/>
      <point x="351" y="885" type="line" smooth="yes"/>
      <point x="351" y="1055"/>
      <point x="412" y="1141"/>
      <point x="557" y="1141" type="curve" smooth="yes"/>
      <point x="702" y="1141"/>
      <point x="763" y="1055"/>
      <point x="763" y="885" type="curve" smooth="yes"/>
      <point x="763" y="499" type="line" smooth="yes"/>
      <point x="763" y="329"/>
      <point x="702" y="243"/>
    </contour>
  </outline>
</glyph>
<glyph name="Dda.or" format="2">
  <advance width="1336"/>
  <unicode hex="0B21"/>
  <anchor x="764" y="66" name="bottom"/>
  <anchor x="620" y="66" name="nukta"/>
  <anchor x="668" y="1804" name="top1"/>
  <anchor x="1044" y="1423" name="top2"/>
  <outline>
    <contour>
      <point x="274" y="370" type="curve"/>
      <point x="377" y="637" type="line"/>
      <point x="342" y="665"/>
      <point x="337" y="697"/>
      <point x="337" y="756" type="curve" smooth="yes"/>
      <point x="337" y="834" type="line" smooth="yes"/>
      <point x="337" y="1040"/>
      <point x="452" y="1141"/>
      <point x="669" y="1141" type="curve" smooth="yes"/>
      <point x="890" y="1141"/>
      <point x="1004" y="1027"/>
      <point x="1004" y="817" type="curve" smooth="yes"/>
      <point x="1004" y="637" type="line" smooth="yes"/>
      <point x="1004" y="569"/>
      <point x="997" y="515"/>
      <point x="982" y="443" type="curve"/>
      <point x="1252" y="475" type="line"/>
      <point x="1276" y="536"/>
      <point x="1289" y="637"/>
      <point x="1289" y="707" type="curve" smooth="yes"/>
      <point x="1289" y="817" type="line" smooth="yes"/>
      <point x="1289" y="1210"/>
      <point x="1067" y="1408"/>
      <point x="668" y="1408" type="curve" smooth="yes"/>
      <point x="287" y="1408"/>
      <point x="46" y="1203"/>
      <point x="46" y="830" type="curve" smooth="yes"/>
      <point x="46" y="745" type="line" smooth="yes"/>
      <point x="46" y="552"/>
      <point x="130" y="422"/>
    </contour>
    <contour>
      <point x="600" y="-22" type="curve" smooth="yes"/>
      <point x="839" y="-22"/>
      <point x="966" y="98"/>
      <point x="966" y="315" type="curve" smooth="yes"/>
      <point x="966" y="335" type="line" smooth="yes"/>
      <point x="966" y="449"/>
      <point x="934" y="493"/>
      <point x="861" y="523" type="curve"/>
      <point x="861" y="559" type="line"/>
      <point x="690" y="438" type="line"/>
      <point x="702" y="420"/>
      <point x="704" y="403"/>
      <point x="704" y="364" type="curve" smooth="yes"/>
      <point x="704" y="328" type="line" smooth="yes"/>
      <point x="704" y="260"/>
      <point x="681" y="206"/>
      <point x="609" y="206" type="curve" smooth="yes"/>
      <point x="537" y="206"/>
      <point x="513" y="260"/>
      <point x="513" y="325" type="curve" smooth="yes"/>
      <point x="513" y="432" type="line" smooth="yes"/>
      <point x="513" y="482"/>
      <point x="526" y="504"/>
      <point x="554" y="521" type="curve"/>
      <point x="554" y="795" type="line"/>
      <point x="456" y="776"/>
      <point x="366" y="721"/>
      <point x="322" y="633" type="curve"/>
      <point x="257" y="545" type="line"/>
      <point x="237" y="495"/>
      <point x="237" y="458"/>
      <point x="237" y="403" type="curve" smooth="yes"/>
      <point x="237" y="332" type="line" smooth="yes"/>
      <point x="237" y="100"/>
      <point x="354" y="-22"/>
    </contour>
    <contour>
      <point x="609" y="351" type="line"/>
      <point x="736" y="445" type="line"/>
      <point x="837" y="512" type="line"/>
      <point x="948" y="589" type="line"/>
      <point x="948" y="851" type="line"/>
      <point x="609" y="624" type="line"/>
    </contour>
  </outline>
</glyph>
<glyph name="Ddha.or" format="2">
  <advance width="1342"/>
  <unicode hex="0B22"/>
  <anchor x="783" y="66" name="bottom"/>
  <anchor x="672" y="66" name="nukta"/>
  <anchor x="672" y="1804" name="top1"/>
  <anchor x="1049" y="1423" name="top2"/>
  <outline>
    <contour>
      <point x="274" y="388" type="curve"/>
      <point x="377" y="655" type="line"/>
      <point x="342" y="682"/>
      <point x="337" y="715"/>
      <point x="337" y="773" type="curve" smooth="yes"/>
      <point x="337" y="832" type="line" smooth="yes"/>
      <point x="337" y="1037"/>
      <point x="454" y="1141"/>
      <point x="672" y="1141" type="curve" smooth="yes"/>
      <point x="893" y="1141"/>
      <point x="1010" y="1023"/>
      <point x="1010" y="815" type="curve" smooth="yes"/>
      <point x="1010" y="635" type="line" smooth="yes"/>
      <point x="1010" y="568"/>
      <point x="1003" y="514"/>
      <point x="988" y="443" type="curve"/>
      <point x="1258" y="475" type="line"/>
      <point x="1282" y="535"/>
      <point x="1295" y="636"/>
      <point x="1295" y="705" type="curve" smooth="yes"/>
      <point x="1295" y="815" type="line" smooth="yes"/>
      <point x="1295" y="1207"/>
      <point x="1069" y="1408"/>
      <point x="671" y="1408" type="curve" smooth="yes"/>
      <point x="291" y="1408"/>
      <point x="46" y="1200"/>
      <point x="46" y="828" type="curve" smooth="yes"/>
      <point x="46" y="762" type="line" smooth="yes"/>
      <point x="46" y="570"/>
      <point x="130" y="439"/>
    </contour>
    <contour>
      <point x="1122" y="-67" type="curve"/>
      <point x="1122" y="152" type="line"/>
      <point x="1070" y="153"/>
      <point x="1008" y="159"/>
      <point x="966" y="174" type="curve"/>
      <point x="760" y="56" type="line"/>
      <point x="856" y="-14"/>
      <point x="990" y="-60"/>
    </contour>
    <contour>
      <point x="610" y="-17" type="curve" smooth="yes"/>
      <point x="726" y="-17"/>
      <point x="786" y="6"/>
      <point x="843" y="39" type="curve"/>
      <point x="957" y="134" type="line"/>
      <point x="1030" y="182"/>
      <point x="1059" y="255"/>
      <point x="1059" y="373" type="curve" smooth="yes"/>
      <point x="1059" y="458" type="line" smooth="yes"/>
      <point x="1059" y="632"/>
      <point x="968" y="721"/>
      <point x="797" y="721" type="curve" smooth="yes"/>
      <point x="635" y="721"/>
      <point x="539" y="633"/>
      <point x="539" y="462" type="curve" smooth="yes"/>
      <point x="539" y="380" type="line" smooth="yes"/>
      <point x="539" y="274"/>
      <point x="576" y="209"/>
      <point x="668" y="171" type="curve"/>
      <point x="822" y="234" type="line"/>
      <point x="787" y="252"/>
      <point x="758" y="285"/>
      <point x="758" y="354" type="curve" smooth="yes"/>
      <point x="758" y="483" type="line" smooth="yes"/>
      <point x="758" y="518"/>
      <point x="768" y="534"/>
      <point x="793" y="534" type="curve" smooth="yes"/>
      <point x="819" y="534"/>
      <point x="829" y="518"/>
      <point x="829" y="483" type="curve" smooth="yes"/>
      <point x="829" y="332" type="line" smooth="yes"/>
      <point x="829" y="278"/>
      <point x="816" y="252"/>
      <point x="780" y="230" type="curve"/>
      <point x="681" y="193" type="line"/>
      <point x="659" y="186"/>
      <point x="650" y="186"/>
      <point x="628" y="186" type="curve" smooth="yes"/>
      <point x="512" y="186"/>
      <point x="459" y="246"/>
      <point x="459" y="355" type="curve" smooth="yes"/>
      <point x="459" y="432" type="line" smooth="yes"/>
      <point x="459" y="495"/>
      <point x="478" y="523"/>
      <point x="507" y="543" type="curve"/>
      <point x="507" y="802" type="line"/>
      <point x="417" y="780"/>
      <point x="338" y="726"/>
      <point x="288" y="638" type="curve"/>
      <point x="229" y="563" type="line"/>
      <point x="207" y="510"/>
      <point x="199" y="471"/>
      <point x="199" y="408" type="curve" smooth="yes"/>
      <point x="199" y="346" type="line" smooth="yes"/>
      <point x="199" y="107"/>
      <point x="349" y="-17"/>
    </contour>
  </outline>
</glyph>
<glyph name="Nna.or" format="2">
  <advance width="1201"/>
  <unicode hex="0B23"/>
  <anchor x="1133" y="66" name="bottom"/>
  <anchor x="622" y="66" name="nukta"/>
  <anchor x="598" y="1801" name="top1"/>
  <anchor x="980" y="1423" name="top2"/>
  <outline>
    <contour>
      <point x="1133" y="0" type="line"/>
      <point x="1133" y="1373" type="line"/>
      <point x="876" y="1373" type="line"/>
      <point x="881" y="1222" type="line"/>
      <point x="857" y="1222" type="line"/>
      <point x="857" y="1151" type="line"/>
      <point x="857" y="0" type="line"/>
    </contour>
    <contour>
      <point x="612" y="1408" type="curve" smooth="yes"/>
      <point x="386" y="1408"/>
      <point x="269" y="1273"/>
      <point x="269" y="1047" type="curve" smooth="yes"/>
      <point x="269" y="1026"/>
      <point x="270" y="1004"/>
      <point x="276" y="975" type="curve"/>
      <point x="583" y="999" type="line"/>
      <point x="574" y="1016"/>
      <point x="572" y="1028"/>
      <point x="572" y="1047" type="curve" smooth="yes"/>
      <point x="572" y="1125"/>
      <point x="616" y="1167"/>
      <point x="702" y="1167" type="curve" smooth="yes"/>
      <point x="806" y="1167"/>
      <point x="857" y="1105"/>
      <point x="857" y="994" type="curve"/>
      <point x="931" y="993" type="line"/>
      <point x="874" y="1189" type="line"/>
      <point x="864" y="1327"/>
      <point x="778" y="1408"/>
    </contour>
    <contour>
      <point x="699" y="804" type="curve"/>
      <point x="687" y="1034" type="line"/>
      <point x="630" y="1058"/>
      <point x="556" y="1069"/>
      <point x="486" y="1069" type="curve"/>
      <point x="371" y="1067" type="line"/>
      <point x="170" y="1045"/>
      <point x="46" y="892"/>
      <point x="46" y="627" type="curve" smooth="yes"/>
      <point x="46" y="353" type="line" smooth="yes"/>
      <point x="46" y="113"/>
      <point x="162" y="-20"/>
      <point x="404" y="-20" type="curve" smooth="yes"/>
      <point x="646" y="-20"/>
      <point x="762" y="110"/>
      <point x="762" y="352" type="curve" smooth="yes"/>
      <point x="762" y="421" type="line" smooth="yes"/>
      <point x="762" y="638"/>
      <point x="691" y="754"/>
      <point x="534" y="754" type="curve" smooth="yes"/>
      <point x="412" y="754"/>
      <point x="347" y="692"/>
      <point x="332" y="592" type="curve"/>
      <point x="298" y="592" type="line"/>
      <point x="327" y="438" type="line"/>
      <point x="333" y="483"/>
      <point x="359" y="524"/>
      <point x="410" y="524" type="curve" smooth="yes"/>
      <point x="466" y="524"/>
      <point x="482" y="481"/>
      <point x="482" y="409" type="curve" smooth="yes"/>
      <point x="482" y="324" type="line" smooth="yes"/>
      <point x="482" y="249"/>
      <point x="467" y="206"/>
      <point x="412" y="206" type="curve" smooth="yes"/>
      <point x="351" y="206"/>
      <point x="337" y="249"/>
      <point x="337" y="326" type="curve" smooth="yes"/>
      <point x="337" y="515" type="line"/>
      <point x="322" y="550" type="line"/>
      <point x="322" y="631" type="line" smooth="yes"/>
      <point x="322" y="778"/>
      <point x="392" y="841"/>
      <point x="523" y="841" type="curve" smooth="yes"/>
      <point x="580" y="841"/>
      <point x="646" y="828"/>
    </contour>
  </outline>
</glyph>
<glyph name="Ta.or" format="2">
  <advance width="1324"/>
  <unicode hex="0B24"/>
  <anchor x="802" y="66" name="bottom"/>
  <anchor x="663" y="66" name="nukta"/>
  <anchor x="663" y="1804" name="top1"/>
  <anchor x="1034" y="1423" name="top2"/>
  <outline>
    <contour>
      <point x="274" y="370" type="curve"/>
      <point x="377" y="637" type="line"/>
      <point x="342" y="665"/>
      <point x="337" y="697"/>
      <point x="337" y="756" type="curve" smooth="yes"/>
      <point x="337" y="833" type="line" smooth="yes"/>
      <point x="337" y="1039"/>
      <point x="450" y="1141"/>
      <point x="663" y="1141" type="curve" smooth="yes"/>
      <point x="881" y="1141"/>
      <point x="992" y="1026"/>
      <point x="992" y="816" type="curve" smooth="yes"/>
      <point x="992" y="637" type="line" smooth="yes"/>
      <point x="992" y="569"/>
      <point x="987" y="515"/>
      <point x="974" y="443" type="curve"/>
      <point x="1240" y="475" type="line"/>
      <point x="1264" y="536"/>
      <point x="1277" y="637"/>
      <point x="1277" y="707" type="curve" smooth="yes"/>
      <point x="1277" y="816" type="line" smooth="yes"/>
      <point x="1277" y="1210"/>
      <point x="1057" y="1408"/>
      <point x="661" y="1408" type="curve" smooth="yes"/>
      <point x="285" y="1408"/>
      <point x="46" y="1203"/>
      <point x="46" y="829" type="curve" smooth="yes"/>
      <point x="46" y="745" type="line" smooth="yes"/>
      <point x="46" y="552"/>
      <point x="130" y="422"/>
    </contour>
    <contour>
      <point x="639" y="-22" type="curve" smooth="yes"/>
      <point x="882" y="-22"/>
      <point x="1026" y="108"/>
      <point x="1026" y="359" type="curve" smooth="yes"/>
      <point x="1026" y="437" type="line" smooth="yes"/>
      <point x="1026" y="650"/>
      <point x="944" y="732"/>
      <point x="819" y="732" type="curve" smooth="yes"/>
      <point x="704" y="732"/>
      <point x="635" y="660"/>
      <point x="635" y="542" type="curve" smooth="yes"/>
      <point x="635" y="515" type="line" smooth="yes"/>
      <point x="635" y="409"/>
      <point x="699" y="341"/>
      <point x="785" y="341" type="curve" smooth="yes"/>
      <point x="896" y="341"/>
      <point x="929" y="407"/>
      <point x="929" y="479" type="curve"/>
      <point x="929" y="518" type="line" smooth="yes"/>
      <point x="929" y="581"/>
      <point x="890" y="628"/>
      <point x="820" y="642" type="curve"/>
      <point x="677" y="510" type="line"/>
      <point x="694" y="514"/>
      <point x="703" y="515"/>
      <point x="714" y="515" type="curve"/>
      <point x="741" y="515"/>
      <point x="772" y="489"/>
      <point x="772" y="420" type="curve" smooth="yes"/>
      <point x="772" y="346" type="line" smooth="yes"/>
      <point x="772" y="262"/>
      <point x="740" y="202"/>
      <point x="647" y="202" type="curve" smooth="yes"/>
      <point x="552" y="202"/>
      <point x="516" y="267"/>
      <point x="516" y="346" type="curve" smooth="yes"/>
      <point x="516" y="422" type="line" smooth="yes"/>
      <point x="516" y="480"/>
      <point x="532" y="502"/>
      <point x="568" y="521" type="curve"/>
      <point x="568" y="795" type="line"/>
      <point x="463" y="774"/>
      <point x="368" y="721"/>
      <point x="321" y="633" type="curve"/>
      <point x="240" y="440" type="line"/>
      <point x="240" y="359" type="line" smooth="yes"/>
      <point x="240" y="109"/>
      <point x="369" y="-22"/>
    </contour>
  </outline>
</glyph>
<glyph name="Tha.or" format="2">
  <advance width="1267"/>
  <unicode hex="0B25"/>
  <anchor x="1199" y="66" name="bottom"/>
  <anchor x="653" y="66" name="nukta"/>
  <anchor x="653" y="1801" name="top1"/>
  <anchor x="1046" y="1423" name="top2"/>
  <outline>
    <contour>
      <point x="498" y="-20" type="curve" smooth="yes"/>
      <point x="781" y="-20"/>
      <point x="879" y="76"/>
      <point x="919" y="212" type="curve"/>
      <point x="1048" y="212" type="line"/>
      <point x="934" y="475" type="line"/>
      <point x="914" y="354"/>
      <point x="782" y="248"/>
      <point x="572" y="248" type="curve" smooth="yes"/>
      <point x="401" y="248"/>
      <point x="336" y="302"/>
      <point x="336" y="382" type="curve" smooth="yes"/>
      <point x="336" y="397" type="line" smooth="yes"/>
      <point x="336" y="467"/>
      <point x="373" y="497"/>
      <point x="476" y="534" type="curve" smooth="yes"/>
      <point x="561" y="565" type="line" smooth="yes"/>
      <point x="765" y="638"/>
      <point x="840" y="746"/>
      <point x="840" y="940" type="curve" smooth="yes"/>
      <point x="840" y="1075" type="line" smooth="yes"/>
      <point x="840" y="1287"/>
      <point x="735" y="1400"/>
      <point x="516" y="1400" type="curve" smooth="yes"/>
      <point x="301" y="1400"/>
      <point x="185" y="1286"/>
      <point x="185" y="1091" type="curve" smooth="yes"/>
      <point x="185" y="1016" type="line" smooth="yes"/>
      <point x="185" y="966"/>
      <point x="193" y="931"/>
      <point x="204" y="891" type="curve"/>
      <point x="461" y="872" type="line"/>
      <point x="454" y="914"/>
      <point x="450" y="955"/>
      <point x="450" y="990" type="curve" smooth="yes"/>
      <point x="450" y="1076" type="line" smooth="yes"/>
      <point x="450" y="1140"/>
      <point x="463" y="1172"/>
      <point x="507" y="1172" type="curve" smooth="yes"/>
      <point x="551" y="1172"/>
      <point x="564" y="1140"/>
      <point x="564" y="1076" type="curve" smooth="yes"/>
      <point x="564" y="946" type="line" smooth="yes"/>
      <point x="564" y="865"/>
      <point x="542" y="820"/>
      <point x="465" y="793" type="curve" smooth="yes"/>
      <point x="360" y="756" type="line" smooth="yes"/>
      <point x="123" y="673"/>
      <point x="36" y="585"/>
      <point x="36" y="392" type="curve" smooth="yes"/>
      <point x="36" y="362" type="line" smooth="yes"/>
      <point x="36" y="123"/>
      <point x="187" y="-20"/>
    </contour>
    <contour>
      <point x="927" y="0" type="line"/>
      <point x="1199" y="0" type="line"/>
      <point x="1199" y="1373" type="line"/>
      <point x="923" y="1373" type="line"/>
      <point x="923" y="329" type="line"/>
      <point x="930" y="219" type="line"/>
    </contour>
  </outline>
</glyph>
<glyph name="Dha.or" format="2">
  <advance width="1185"/>
  <unicode hex="0B27"/>
  <guideline y="305"/>
  <anchor x="1117" y="66" name="bottom"/>
  <anchor x="622" y="66" name="nukta"/>
  <anchor x="572" y="1801" name="top1"/>
  <anchor x="964" y="1423" name="top2"/>
  <outline>
    <contour>
      <point x="506" y="-20" type="curve" smooth="yes"/>
      <point x="720" y="-20"/>
      <point x="815" y="64"/>
      <point x="840" y="181" type="curve"/>
      <point x="967" y="181" type="line"/>
      <point x="853" y="435" type="line"/>
      <point x="839" y="326"/>
      <point x="752" y="250"/>
      <point x="593" y="250" type="curve" smooth="yes"/>
      <point x="424" y="250"/>
      <point x="351" y="335"/>
      <point x="351" y="477" type="curve" smooth="yes"/>
      <point x="351" y="507" type="line" smooth="yes"/>
      <point x="351" y="646"/>
      <point x="426" y="731"/>
      <point x="575" y="745" type="curve" smooth="yes"/>
      <point x="617" y="749"/>
      <point x="654" y="749"/>
      <point x="683" y="747" type="curve"/>
      <point x="573" y="999" type="line"/>
      <point x="539" y="993"/>
      <point x="510" y="988"/>
      <point x="471" y="981" type="curve" smooth="yes"/>
      <point x="204" y="933"/>
      <point x="55" y="770"/>
      <point x="55" y="508" type="curve" smooth="yes"/>
      <point x="55" y="449" type="line" smooth="yes"/>
      <point x="55" y="152"/>
      <point x="220" y="-20"/>
    </contour>
    <contour>
      <point x="354" y="1373" type="line"/>
      <point x="18" y="1373" type="line"/>
      <point x="18" y="1373" type="line"/>
      <point x="392" y="904" type="line"/>
      <point x="475" y="799" type="line"/>
      <point x="703" y="512" type="line"/>
      <point x="718" y="512" type="line"/>
      <point x="718" y="894" type="line"/>
    </contour>
    <contour>
      <point x="845" y="0" type="line"/>
      <point x="1117" y="0" type="line"/>
      <point x="1117" y="1373" type="line"/>
      <point x="841" y="1373" type="line"/>
      <point x="841" y="302" type="line"/>
      <point x="760" y="188" type="line"/>
      <point x="851" y="188" type="line"/>
    </contour>
  </outline>
</glyph>
<glyph name="Pha.or" format="2">
  <advance width="1505"/>
  <unicode hex="0B2B"/>
  <anchor x="1149" y="66" name="bottom"/>
  <anchor x="652" y="66" name="nukta"/>
  <anchor x="595" y="1801" name="top1"/>
  <anchor x="996" y="1423" name="top2"/>
  <anchor x="1149" y="1418" name="top3"/>
  <outline>
    <contour>
      <point x="239" y="403" type="curve"/>
      <point x="379" y="666" type="line"/>
      <point x="346" y="694"/>
      <point x="339" y="725"/>
      <point x="339" y="782" type="curve" smooth="yes"/>
      <point x="339" y="881" type="line" smooth="yes"/>
      <point x="339" y="1048"/>
      <point x="419" y="1141"/>
      <point x="597" y="1141" type="curve" smooth="yes"/>
      <point x="774" y="1141"/>
      <point x="873" y="1035"/>
      <point x="877" y="844" type="curve"/>
      <point x="969" y="844" type="line"/>
      <point x="884" y="1133" type="line"/>
      <point x="862" y="1304"/>
      <point x="751" y="1408"/>
      <point x="519" y="1408" type="curve" smooth="yes"/>
      <point x="225" y="1408"/>
      <point x="46" y="1216"/>
      <point x="46" y="899" type="curve" smooth="yes"/>
      <point x="46" y="775" type="line" smooth="yes"/>
      <point x="46" y="580"/>
      <point x="116" y="466"/>
    </contour>
    <contour>
      <point x="586" y="-20" type="curve" smooth="yes"/>
      <point x="774" y="-20"/>
      <point x="851" y="65"/>
      <point x="873" y="189" type="curve"/>
      <point x="1000" y="189" type="line"/>
      <point x="886" y="388" type="line"/>
      <point x="877" y="305"/>
      <point x="817" y="226"/>
      <point x="683" y="226" type="curve" smooth="yes"/>
      <point x="559" y="226"/>
      <point x="506" y="284"/>
      <point x="506" y="391" type="curve" smooth="yes"/>
      <point x="506" y="410" type="line" smooth="yes"/>
      <point x="506" y="494"/>
      <point x="552" y="543"/>
      <point x="639" y="561" type="curve"/>
      <point x="639" y="813" type="line"/>
      <point x="499" y="797"/>
      <point x="387" y="743"/>
      <point x="320" y="648" type="curve"/>
      <point x="249" y="548" type="line"/>
      <point x="223" y="479"/>
      <point x="223" y="464"/>
      <point x="223" y="415" type="curve" smooth="yes"/>
      <point x="223" y="345" type="line" smooth="yes"/>
      <point x="223" y="115"/>
      <point x="353" y="-20"/>
    </contour>
    <contour>
      <point x="879" y="0" type="line"/>
      <point x="1149" y="0" type="line"/>
      <point x="1149" y="1373" type="line"/>
      <point x="884" y="1373" type="line"/>
      <point x="890" y="1164" type="line"/>
      <point x="875" y="1164" type="line"/>
      <point x="877" y="1063" type="line"/>
      <point x="877" y="301" type="line"/>
      <point x="884" y="196" type="line"/>
    </contour>
    <contour>
      <point x="1202" y="877" type="curve" smooth="yes"/>
      <point x="1164" y="877"/>
      <point x="1149" y="903"/>
      <point x="1149" y="962" type="curve" smooth="yes"/>
      <point x="1149" y="1005" type="line" smooth="yes"/>
      <point x="1149" y="1065"/>
      <point x="1164" y="1091"/>
      <point x="1201" y="1091" type="curve" smooth="yes"/>
      <point x="1241" y="1091"/>
      <point x="1253" y="1064"/>
      <point x="1253" y="1001" type="curve" smooth="yes"/>
      <point x="1253" y="966" type="line" smooth="yes"/>
      <point x="1253" y="904"/>
      <point x="1241" y="877"/>
    </contour>
    <contour>
      <point x="1286" y="694" type="curve" smooth="yes"/>
      <point x="1427" y="694"/>
      <point x="1490" y="789"/>
      <point x="1490" y="946" type="curve" smooth="yes"/>
      <point x="1490" y="1031" type="line" smooth="yes"/>
      <point x="1490" y="1188"/>
      <point x="1428" y="1282"/>
      <point x="1293" y="1282" type="curve" smooth="yes"/>
      <point x="1199" y="1282"/>
      <point x="1146" y="1234"/>
      <point x="1127" y="1160" type="curve"/>
      <point x="1116" y="801" type="line"/>
      <point x="1137" y="735"/>
      <point x="1190" y="694"/>
    </contour>
  </outline>
</glyph>
<glyph name="Ba.or" format="2">
  <advance width="1317"/>
  <unicode hex="0B2C"/>
  <anchor x="935" y="66" name="bottom"/>
  <anchor x="662" y="66" name="nukta"/>
  <anchor x="662" y="1804" name="top1"/>
  <anchor x="1030" y="1423" name="top2"/>
  <outline>
    <contour>
      <point x="605" y="282" type="curve" smooth="yes"/>
      <point x="563" y="282"/>
      <point x="550" y="313"/>
      <point x="550" y="377" type="curve" smooth="yes"/>
      <point x="550" y="456" type="line" smooth="yes"/>
      <point x="550" y="520"/>
      <point x="563" y="552"/>
      <point x="605" y="552" type="curve" smooth="yes"/>
      <point x="647" y="552"/>
      <point x="660" y="520"/>
      <point x="660" y="456" type="curve"/>
      <point x="660" y="375" type="line" smooth="yes"/>
      <point x="660" y="312"/>
      <point x="647" y="282"/>
    </contour>
    <contour>
      <point x="664" y="0" type="line"/>
      <point x="935" y="0" type="line"/>
      <point x="935" y="421" type="line"/>
      <point x="935" y="657"/>
      <point x="841" y="780"/>
      <point x="631" y="780" type="curve" smooth="yes"/>
      <point x="471" y="780"/>
      <point x="383" y="698"/>
      <point x="348" y="613" type="curve"/>
      <point x="274" y="416" type="line"/>
      <point x="274" y="350" type="line" smooth="yes"/>
      <point x="274" y="166"/>
      <point x="342" y="63"/>
      <point x="484" y="63" type="curve" smooth="yes"/>
      <point x="600" y="63"/>
      <point x="644" y="125"/>
      <point x="659" y="215" type="curve"/>
      <point x="668" y="215" type="line"/>
      <point x="664" y="92" type="line"/>
    </contour>
    <contour>
      <point x="281" y="370" type="curve"/>
      <point x="389" y="644" type="line"/>
      <point x="343" y="675"/>
      <point x="337" y="711"/>
      <point x="337" y="775" type="curve" smooth="yes"/>
      <point x="337" y="840" type="line" smooth="yes"/>
      <point x="337" y="1038"/>
      <point x="449" y="1141"/>
      <point x="662" y="1141" type="curve" smooth="yes"/>
      <point x="881" y="1141"/>
      <point x="985" y="1028"/>
      <point x="985" y="824" type="curve" smooth="yes"/>
      <point x="985" y="632" type="line" smooth="yes"/>
      <point x="985" y="565"/>
      <point x="980" y="513"/>
      <point x="967" y="443" type="curve"/>
      <point x="1231" y="475" type="line"/>
      <point x="1257" y="534"/>
      <point x="1270" y="633"/>
      <point x="1270" y="702" type="curve" smooth="yes"/>
      <point x="1270" y="824" type="line" smooth="yes"/>
      <point x="1270" y="1212"/>
      <point x="1057" y="1408"/>
      <point x="660" y="1408" type="curve" smooth="yes"/>
      <point x="284" y="1408"/>
      <point x="46" y="1205"/>
      <point x="46" y="837" type="curve" smooth="yes"/>
      <point x="46" y="759" type="line" smooth="yes"/>
      <point x="46" y="556"/>
      <point x="125" y="422"/>
    </contour>
  </outline>
</glyph>
<glyph name="Bha.or" format="2">
  <advance width="1445"/>
  <unicode hex="0B2D"/>
  <anchor x="784" y="66" name="bottom"/>
  <anchor x="703" y="66" name="nukta"/>
  <anchor x="703" y="1804" name="top1"/>
  <anchor x="1105" y="1423" name="top2"/>
  <outline>
    <contour>
      <point x="1479" y="-196" type="line"/>
      <point x="1479" y="93" type="line"/>
      <point x="1281" y="145" type="line"/>
      <point x="1298" y="125" type="line"/>
      <point x="1363" y="180"/>
      <point x="1374" y="254"/>
      <point x="1374" y="331" type="curve" smooth="yes"/>
      <point x="1374" y="771" type="line" smooth="yes"/>
      <point x="1374" y="1192"/>
      <point x="1122" y="1408"/>
      <point x="701" y="1408" type="curve" smooth="yes"/>
      <point x="298" y="1408"/>
      <point x="46" y="1192"/>
      <point x="46" y="841" type="curve" smooth="yes"/>
      <point x="46" y="725" type="line" smooth="yes"/>
      <point x="46" y="556"/>
      <point x="109" y="453"/>
      <point x="225" y="405" type="curve"/>
      <point x="390" y="585" type="line"/>
      <point x="353" y="614"/>
      <point x="337" y="663"/>
      <point x="337" y="718" type="curve" smooth="yes"/>
      <point x="337" y="841" type="line" smooth="yes"/>
      <point x="337" y="1036"/>
      <point x="459" y="1141"/>
      <point x="703" y="1141" type="curve" smooth="yes"/>
      <point x="951" y="1141"/>
      <point x="1089" y="1005"/>
      <point x="1089" y="751" type="curve" smooth="yes"/>
      <point x="1089" y="241" type="line" smooth="yes"/>
      <point x="1089" y="162"/>
      <point x="1069" y="79"/>
      <point x="1016" y="15" type="curve"/>
    </contour>
    <contour>
      <point x="598" y="-17" type="curve" smooth="yes"/>
      <point x="866" y="-17"/>
      <point x="1013" y="120"/>
      <point x="1013" y="366" type="curve" smooth="yes"/>
      <point x="1013" y="524" type="line" smooth="yes"/>
      <point x="1013" y="585"/>
      <point x="1013" y="646"/>
      <point x="1013" y="707" type="curve"/>
      <point x="778" y="707" type="line"/>
      <point x="778" y="659"/>
      <point x="778" y="574"/>
      <point x="778" y="526" type="curve" smooth="yes"/>
      <point x="778" y="402" type="line"/>
      <point x="781" y="371" type="line"/>
      <point x="781" y="259"/>
      <point x="726" y="199"/>
      <point x="609" y="199" type="curve" smooth="yes"/>
      <point x="488" y="199"/>
      <point x="429" y="269"/>
      <point x="429" y="390" type="curve" smooth="yes"/>
      <point x="429" y="539" type="line" smooth="yes"/>
      <point x="429" y="627"/>
      <point x="446" y="694"/>
      <point x="475" y="760" type="curve"/>
      <point x="284" y="760" type="line"/>
      <point x="264" y="720"/>
      <point x="249" y="682"/>
      <point x="225" y="629" type="curve"/>
      <point x="166" y="453" type="line"/>
      <point x="166" y="377" type="line" smooth="yes"/>
      <point x="166" y="127"/>
      <point x="315" y="-17"/>
    </contour>
    <contour>
      <point x="644" y="256" type="curve" smooth="yes"/>
      <point x="730" y="256"/>
      <point x="762" y="302"/>
      <point x="774" y="357" type="curve"/>
      <point x="818" y="357" type="line"/>
      <point x="778" y="474" type="line"/>
      <point x="778" y="438"/>
      <point x="766" y="427"/>
      <point x="745" y="427" type="curve" smooth="yes"/>
      <point x="724" y="427"/>
      <point x="712" y="440"/>
      <point x="712" y="476" type="curve" smooth="yes"/>
      <point x="712" y="550" type="line" smooth="yes"/>
      <point x="712" y="613"/>
      <point x="716" y="654"/>
      <point x="727" y="707" type="curve"/>
      <point x="521" y="707" type="line"/>
      <point x="501" y="654"/>
      <point x="491" y="598"/>
      <point x="491" y="535" type="curve" smooth="yes"/>
      <point x="491" y="441" type="line" smooth="yes"/>
      <point x="491" y="345"/>
      <point x="524" y="256"/>
    </contour>
  </outline>
</glyph>
<glyph name="Ma.or" format="2">
  <advance width="1166"/>
  <unicode hex="0B2E"/>
  <guideline y="923"/>
  <guideline y="802"/>
  <anchor x="1098" y="66" name="bottom"/>
  <anchor x="605" y="66" name="nukta"/>
  <anchor x="575" y="1801" name="top1"/>
  <anchor x="945" y="1423" name="top2"/>
  <outline>
    <contour>
      <point x="492" y="1408" type="curve" smooth="yes"/>
      <point x="225" y="1408"/>
      <point x="54" y="1239"/>
      <point x="54" y="923" type="curve" smooth="yes"/>
      <point x="54" y="802" type="line" smooth="yes"/>
      <point x="54" y="528"/>
      <point x="184" y="391"/>
      <point x="419" y="344" type="curve" smooth="yes"/>
      <point x="448" y="338"/>
      <point x="506" y="333"/>
      <point x="535" y="331" type="curve"/>
      <point x="741" y="545" type="line"/>
      <point x="712" y="545"/>
      <point x="662" y="547"/>
      <point x="605" y="554" type="curve" smooth="yes"/>
      <point x="432" y="576"/>
      <point x="349" y="668"/>
      <point x="349" y="815" type="curve" smooth="yes"/>
      <point x="349" y="897" type="line" smooth="yes"/>
      <point x="349" y="1056"/>
      <point x="426" y="1137"/>
      <point x="577" y="1137" type="curve" smooth="yes"/>
      <point x="738" y="1137"/>
      <point x="815" y="1042"/>
      <point x="822" y="868" type="curve"/>
      <point x="831" y="1140" type="line"/>
      <point x="805" y="1307"/>
      <point x="704" y="1408"/>
    </contour>
    <contour>
      <point x="391" y="-2" type="line"/>
      <point x="871" y="512" type="line"/>
      <point x="862" y="836" type="line"/>
      <point x="533" y="518" type="line"/>
      <point x="398" y="385" type="line"/>
      <point x="26" y="-2" type="line"/>
      <point x="26" y="-2" type="line"/>
    </contour>
    <contour>
      <point x="822" y="0" type="line"/>
      <point x="1098" y="0" type="line"/>
      <point x="1098" y="1373" type="line"/>
      <point x="831" y="1373" type="line"/>
      <point x="836" y="1171" type="line"/>
      <point x="794" y="1171" type="line"/>
      <point x="822" y="1089" type="line"/>
    </contour>
  </outline>
</glyph>
<glyph name="Ya.or" format="2">
  <advance width="1219"/>
  <unicode hex="0B2F"/>
  <anchor x="1151" y="66" name="bottom"/>
  <anchor x="652" y="66" name="nukta"/>
  <anchor x="597" y="1801" name="top1"/>
  <anchor x="998" y="1423" name="top2"/>
  <outline>
    <contour>
      <point x="39" y="97" type="line"/>
      <point x="350" y="337" type="line"/>
      <point x="516" y="460" type="line"/>
      <point x="669" y="583" type="line"/>
      <point x="669" y="891" type="line"/>
      <point x="350" y="652" type="line"/>
      <point x="219" y="547" type="line"/>
      <point x="39" y="417" type="line"/>
    </contour>
    <contour>
      <point x="881" y="0" type="line"/>
      <point x="1151" y="0" type="line"/>
      <point x="1151" y="1373" type="line"/>
      <point x="887" y="1373" type="line"/>
      <point x="892" y="1164" type="line"/>
      <point x="879" y="1164" type="line"/>
      <point x="879" y="1048" type="line"/>
      <point x="879" y="302" type="line"/>
      <point x="887" y="197" type="line"/>
    </contour>
    <contour>
      <point x="250" y="483" type="curve"/>
      <point x="441" y="649" type="line"/>
      <point x="360" y="678"/>
      <point x="341" y="732"/>
      <point x="341" y="814" type="curve" smooth="yes"/>
      <point x="341" y="891" type="line" smooth="yes"/>
      <point x="341" y="1050"/>
      <point x="431" y="1137"/>
      <point x="599" y="1137" type="curve" smooth="yes"/>
      <point x="776" y="1137"/>
      <point x="875" y="1033"/>
      <point x="879" y="844" type="curve"/>
      <point x="977" y="844" type="line"/>
      <point x="886" y="1133" type="line"/>
      <point x="864" y="1304"/>
      <point x="751" y="1408"/>
      <point x="515" y="1408" type="curve" smooth="yes"/>
      <point x="235" y="1408"/>
      <point x="48" y="1220"/>
      <point x="48" y="909" type="curve" smooth="yes"/>
      <point x="48" y="806" type="line" smooth="yes"/>
      <point x="48" y="636"/>
      <point x="114" y="539"/>
    </contour>
    <contour>
      <point x="609" y="-19" type="curve" smooth="yes"/>
      <point x="777" y="-19"/>
      <point x="852" y="66"/>
      <point x="875" y="190" type="curve"/>
      <point x="1002" y="190" type="line"/>
      <point x="888" y="389" type="line"/>
      <point x="879" y="306"/>
      <point x="827" y="227"/>
      <point x="709" y="227" type="curve" smooth="yes"/>
      <point x="598" y="227"/>
      <point x="548" y="284"/>
      <point x="548" y="392" type="curve" smooth="yes"/>
      <point x="548" y="433" type="line" smooth="yes"/>
      <point x="548" y="472"/>
      <point x="553" y="491"/>
      <point x="581" y="513" type="curve"/>
      <point x="305" y="549" type="line"/>
      <point x="279" y="480"/>
      <point x="279" y="465"/>
      <point x="279" y="416" type="curve" smooth="yes"/>
      <point x="279" y="339" type="line" smooth="yes"/>
      <point x="279" y="113"/>
      <point x="394" y="-19"/>
    </contour>
  </outline>
</glyph>
<glyph name="Ra.or" format="2">
  <advance width="1297"/>
  <unicode hex="0B30"/>
  <anchor x="680" y="66" name="bottom"/>
  <anchor x="639" y="66" name="nukta"/>
  <anchor x="639" y="1804" name="top1"/>
  <anchor x="998" y="1423" name="top2"/>
  <outline>
    <contour>
      <point x="1331" y="-196" type="line"/>
      <point x="1331" y="93" type="line"/>
      <point x="1133" y="145" type="line"/>
      <point x="1150" y="125" type="line"/>
      <point x="1215" y="180"/>
      <point x="1226" y="254"/>
      <point x="1226" y="331" type="curve" smooth="yes"/>
      <point x="1226" y="822" type="line" smooth="yes"/>
      <point x="1226" y="1212"/>
      <point x="1021" y="1408"/>
      <point x="641" y="1408" type="curve" smooth="yes"/>
      <point x="269" y="1408"/>
      <point x="46" y="1209"/>
      <point x="46" y="844" type="curve" smooth="yes"/>
      <point x="46" y="771" type="line" smooth="yes"/>
      <point x="46" y="580"/>
      <point x="115" y="466"/>
      <point x="236" y="407" type="curve"/>
      <point x="380" y="657" type="line"/>
      <point x="347" y="685"/>
      <point x="340" y="716"/>
      <point x="340" y="775" type="curve" smooth="yes"/>
      <point x="340" y="844" type="line" smooth="yes"/>
      <point x="340" y="1036"/>
      <point x="441" y="1137"/>
      <point x="639" y="1137" type="curve" smooth="yes"/>
      <point x="842" y="1137"/>
      <point x="941" y="1024"/>
      <point x="941" y="818" type="curve" smooth="yes"/>
      <point x="941" y="241" type="line" smooth="yes"/>
      <point x="941" y="162"/>
      <point x="921" y="79"/>
      <point x="868" y="15" type="curve"/>
    </contour>
    <contour>
      <point x="525" y="-20" type="curve" smooth="yes"/>
      <point x="748" y="-20"/>
      <point x="858" y="103"/>
      <point x="858" y="337" type="curve" smooth="yes"/>
      <point x="858" y="420" type="line" smooth="yes"/>
      <point x="858" y="654"/>
      <point x="755" y="776"/>
      <point x="547" y="776" type="curve" smooth="yes"/>
      <point x="391" y="776"/>
      <point x="324" y="701"/>
      <point x="267" y="600" type="curve"/>
      <point x="203" y="519" type="line"/>
      <point x="196" y="490"/>
      <point x="192" y="451"/>
      <point x="192" y="420" type="curve" smooth="yes"/>
      <point x="192" y="337" type="line" smooth="yes"/>
      <point x="192" y="103"/>
      <point x="301" y="-20"/>
    </contour>
    <contour>
      <point x="525" y="198" type="curve" smooth="yes"/>
      <point x="481" y="198"/>
      <point x="468" y="231"/>
      <point x="468" y="299" type="curve" smooth="yes"/>
      <point x="468" y="454" type="line" smooth="yes"/>
      <point x="468" y="522"/>
      <point x="481" y="556"/>
      <point x="525" y="556" type="curve" smooth="yes"/>
      <point x="569" y="556"/>
      <point x="582" y="522"/>
      <point x="582" y="454" type="curve" smooth="yes"/>
      <point x="582" y="299" type="line" smooth="yes"/>
      <point x="582" y="231"/>
      <point x="569" y="198"/>
    </contour>
  </outline>
</glyph>
<glyph name="Va.or" format="2">
  <advance width="1317"/>
  <unicode hex="0B35"/>
  <anchor x="935" y="66" name="bottom"/>
  <anchor x="662" y="66" name="nukta"/>
  <anchor x="662" y="1804" name="top1"/>
  <anchor x="1030" y="1423" name="top2"/>
  <outline>
    <contour>
      <point x="281" y="370" type="curve"/>
      <point x="389" y="644" type="line"/>
      <point x="343" y="675"/>
      <point x="337" y="711"/>
      <point x="337" y="775" type="curve" smooth="yes"/>
      <point x="337" y="840" type="line" smooth="yes"/>
      <point x="337" y="1038"/>
      <point x="449" y="1141"/>
      <point x="662" y="1141" type="curve" smooth="yes"/>
      <point x="881" y="1141"/>
      <point x="985" y="1028"/>
      <point x="985" y="824" type="curve" smooth="yes"/>
      <point x="985" y="632" type="line" smooth="yes"/>
      <point x="985" y="565"/>
      <point x="980" y="513"/>
      <point x="967" y="443" type="curve"/>
      <point x="1231" y="475" type="line"/>
      <point x="1257" y="534"/>
      <point x="1270" y="633"/>
      <point x="1270" y="702" type="curve" smooth="yes"/>
      <point x="1270" y="824" type="line" smooth="yes"/>
      <point x="1270" y="1212"/>
      <point x="1057" y="1408"/>
      <point x="660" y="1408" type="curve" smooth="yes"/>
      <point x="284" y="1408"/>
      <point x="46" y="1205"/>
      <point x="46" y="837" type="curve" smooth="yes"/>
      <point x="46" y="759" type="line" smooth="yes"/>
      <point x="46" y="556"/>
      <point x="125" y="422"/>
    </contour>
    <contour>
      <point x="664" y="0" type="line"/>
      <point x="935" y="0" type="line"/>
      <point x="935" y="421" type="line" smooth="yes"/>
      <point x="935" y="657"/>
      <point x="841" y="780"/>
      <point x="631" y="780" type="curve" smooth="yes"/>
      <point x="471" y="780"/>
      <point x="383" y="698"/>
      <point x="348" y="613" type="curve"/>
      <point x="274" y="421" type="line"/>
      <point x="274" y="350" type="line" smooth="yes"/>
      <point x="274" y="166"/>
      <point x="342" y="63"/>
      <point x="484" y="63" type="curve" smooth="yes"/>
      <point x="600" y="63"/>
      <point x="644" y="125"/>
      <point x="659" y="215" type="curve"/>
      <point x="668" y="215" type="line"/>
      <point x="664" y="92" type="line"/>
    </contour>
    <contour>
      <point x="602" y="272" type="curve" smooth="yes"/>
      <point x="539" y="272"/>
      <point x="519" y="314"/>
      <point x="519" y="386" type="curve" smooth="yes"/>
      <point x="519" y="449" type="line" smooth="yes"/>
      <point x="519" y="515"/>
      <point x="539" y="563"/>
      <point x="605" y="563" type="curve" smooth="yes"/>
      <point x="668" y="563"/>
      <point x="688" y="517"/>
      <point x="688" y="451" type="curve"/>
      <point x="688" y="386" type="line" smooth="yes"/>
      <point x="688" y="318"/>
      <point x="666" y="272"/>
    </contour>
    <contour>
      <point x="604" y="305" type="curve" smooth="yes"/>
      <point x="643" y="305"/>
      <point x="651" y="331"/>
      <point x="651" y="388" type="curve" smooth="yes"/>
      <point x="651" y="443" type="line" smooth="yes"/>
      <point x="651" y="502"/>
      <point x="643" y="528"/>
      <point x="604" y="528" type="curve" smooth="yes"/>
      <point x="567" y="528"/>
      <point x="558" y="502"/>
      <point x="558" y="443" type="curve" smooth="yes"/>
      <point x="558" y="388" type="line" smooth="yes"/>
      <point x="558" y="331"/>
      <point x="567" y="305"/>
    </contour>
  </outline>
</glyph>
<glyph name="Ssa.or" format="2">
  <advance width="1217"/>
  <unicode hex="0B37"/>
  <anchor x="1149" y="66" name="bottom"/>
  <anchor x="652" y="66" name="nukta"/>
  <anchor x="595" y="1801" name="top1"/>
  <anchor x="996" y="1423" name="top2"/>
  <outline>
    <contour>
      <point x="239" y="403" type="curve"/>
      <point x="379" y="666" type="line"/>
      <point x="346" y="694"/>
      <point x="339" y="725"/>
      <point x="339" y="782" type="curve" smooth="yes"/>
      <point x="339" y="891" type="line" smooth="yes"/>
      <point x="339" y="1003"/>
      <point x="380" y="1081"/>
      <point x="460" y="1119" type="curve"/>
      <point x="536" y="1143" type="line"/>
      <point x="555" y="1146"/>
      <point x="575" y="1147"/>
      <point x="597" y="1147" type="curve" smooth="yes"/>
      <point x="774" y="1147"/>
      <point x="873" y="1039"/>
      <point x="877" y="844" type="curve"/>
      <point x="967" y="844" type="line"/>
      <point x="884" y="1133" type="line"/>
      <point x="862" y="1304"/>
      <point x="750" y="1408"/>
      <point x="513" y="1408" type="curve" smooth="yes"/>
      <point x="231" y="1408"/>
      <point x="46" y="1216"/>
      <point x="46" y="899" type="curve" smooth="yes"/>
      <point x="46" y="775" type="line" smooth="yes"/>
      <point x="46" y="580"/>
      <point x="116" y="466"/>
    </contour>
    <contour>
      <point x="586" y="-20" type="curve" smooth="yes"/>
      <point x="774" y="-20"/>
      <point x="851" y="65"/>
      <point x="873" y="189" type="curve"/>
      <point x="960" y="189" type="line"/>
      <point x="886" y="388" type="line"/>
      <point x="877" y="305"/>
      <point x="817" y="226"/>
      <point x="681" y="226" type="curve" smooth="yes"/>
      <point x="558" y="226"/>
      <point x="506" y="284"/>
      <point x="506" y="391" type="curve" smooth="yes"/>
      <point x="506" y="410" type="line" smooth="yes"/>
      <point x="506" y="496"/>
      <point x="554" y="540"/>
      <point x="631" y="559" type="curve" smooth="yes"/>
      <point x="654" y="565"/>
      <point x="666" y="565"/>
      <point x="682" y="568" type="curve"/>
      <point x="654" y="804" type="line"/>
      <point x="628" y="803"/>
      <point x="608" y="800"/>
      <point x="562" y="791" type="curve" smooth="yes"/>
      <point x="477" y="774"/>
      <point x="376" y="729"/>
      <point x="320" y="648" type="curve"/>
      <point x="249" y="548" type="line"/>
      <point x="223" y="479"/>
      <point x="223" y="464"/>
      <point x="223" y="415" type="curve" smooth="yes"/>
      <point x="223" y="345" type="line" smooth="yes"/>
      <point x="223" y="115"/>
      <point x="353" y="-20"/>
    </contour>
    <contour>
      <point x="762" y="215" type="line"/>
      <point x="910" y="303" type="line"/>
      <point x="570" y="1235" type="line"/>
      <point x="389" y="1192" type="line"/>
    </contour>
    <contour>
      <point x="879" y="0" type="line"/>
      <point x="1149" y="0" type="line"/>
      <point x="1149" y="1373" type="line"/>
      <point x="884" y="1373" type="line"/>
      <point x="890" y="1164" type="line"/>
      <point x="875" y="1164" type="line"/>
      <point x="877" y="1063" type="line"/>
      <point x="877" y="318" type="line"/>
      <point x="884" y="196" type="line"/>
    </contour>
  </outline>
</glyph>
<glyph name="Sa.or" format="2">
  <advance width="1157"/>
  <unicode hex="0B38"/>
  <anchor x="1089" y="66" name="bottom"/>
  <anchor x="632" y="66" name="nukta"/>
  <anchor x="567" y="1801" name="top1"/>
  <anchor x="936" y="1423" name="top2"/>
  <outline>
    <contour>
      <point x="822" y="1373" type="line"/>
      <point x="827" y="1171" type="line"/>
      <point x="812" y="1171" type="line"/>
      <point x="817" y="852" type="line"/>
      <point x="817" y="696" type="line"/>
      <point x="817" y="213" type="line"/>
      <point x="854" y="258" type="line"/>
      <point x="498" y="360" type="line"/>
      <point x="498" y="373" type="line"/>
      <point x="848" y="631" type="line"/>
      <point x="848" y="926" type="line"/>
      <point x="437" y="626" type="line"/>
      <point x="349" y="552" type="line"/>
      <point x="148" y="402" type="line"/>
      <point x="148" y="203" type="line"/>
      <point x="835" y="0" type="line"/>
      <point x="1089" y="0" type="line"/>
      <point x="1089" y="1373" type="line"/>
    </contour>
    <contour>
      <point x="556" y="640" type="line"/>
      <point x="411" y="664"/>
      <point x="339" y="754"/>
      <point x="339" y="875" type="curve" smooth="yes"/>
      <point x="339" y="910" type="line" smooth="yes"/>
      <point x="339" y="1059"/>
      <point x="413" y="1141"/>
      <point x="566" y="1141" type="curve" smooth="yes"/>
      <point x="725" y="1141"/>
      <point x="813" y="1053"/>
      <point x="817" y="891" type="curve"/>
      <point x="933" y="891" type="line"/>
      <point x="822" y="1140" type="line"/>
      <point x="797" y="1307"/>
      <point x="696" y="1408"/>
      <point x="483" y="1408" type="curve" smooth="yes"/>
      <point x="213" y="1408"/>
      <point x="46" y="1234"/>
      <point x="46" y="927" type="curve" smooth="yes"/>
      <point x="46" y="869" type="line" smooth="yes"/>
      <point x="46" y="629"/>
      <point x="170" y="518"/>
      <point x="385" y="466" type="curve"/>
    </contour>
  </outline>
</glyph>
<glyph name="Nukta.or" format="2">
  <unicode hex="0B3C"/>
  <anchor x="-712" y="66" name="_nukta"/>
  <outline>
    <contour>
      <point x="-712" y="-389" type="curve" smooth="yes"/>
      <point x="-619" y="-389"/>
      <point x="-571" y="-336"/>
      <point x="-571" y="-248" type="curve" smooth="yes"/>
      <point x="-571" y="-234" type="line" smooth="yes"/>
      <point x="-571" y="-147"/>
      <point x="-618" y="-92"/>
      <point x="-712" y="-92" type="curve" smooth="yes"/>
      <point x="-806" y="-92"/>
      <point x="-852" y="-147"/>
      <point x="-852" y="-234" type="curve" smooth="yes"/>
      <point x="-852" y="-248" type="line" smooth="yes"/>
      <point x="-852" y="-336"/>
      <point x="-806" y="-389"/>
    </contour>
  </outline>
</glyph>
<glyph name="Avagraha.or" format="2">
  <advance width="656"/>
  <unicode hex="0B3D"/>
  <outline>
    <contour>
      <point x="46" y="1058" type="line"/>
      <point x="596" y="1403" type="line"/>
      <point x="596" y="1105" type="line"/>
      <point x="220" y="871" type="line"/>
      <point x="209" y="1045" type="line"/>
      <point x="583" y="773" type="line"/>
      <point x="583" y="602" type="line"/>
      <point x="211" y="333" type="line"/>
      <point x="209" y="507" type="line"/>
      <point x="596" y="270" type="line"/>
      <point x="596" y="-26" type="line"/>
      <point x="46" y="312" type="line"/>
      <point x="46" y="521" type="line"/>
      <point x="316" y="710" type="line"/>
      <point x="308" y="671" type="line"/>
      <point x="46" y="856" type="line"/>
    </contour>
  </outline>
</glyph>
<glyph name="MatraAa.or" format="2">
  <advance width="412"/>
  <unicode hex="0B3E"/>
  <outline>
    <contour>
      <point x="344" y="1373" type="line"/>
      <point x="344" y="0" type="line"/>
      <point x="68" y="0" type="line"/>
      <point x="68" y="1373" type="line"/>
    </contour>
  </outline>
</glyph>
<glyph name="MatraI.or" format="2">
  <unicode hex="0B3F"/>
  <anchor x="-653" y="1804" name="_top1"/>
  <outline>
    <contour>
      <point x="-1160" y="1408" type="line"/>
      <point x="-1027" y="1494"/>
      <point x="-870" y="1567"/>
      <point x="-653" y="1567" type="curve" smooth="yes"/>
      <point x="-436" y="1567"/>
      <point x="-279" y="1494"/>
      <point x="-146" y="1408" type="curve"/>
      <point x="-162" y="1650" type="line"/>
      <point x="-291" y="1748"/>
      <point x="-450" y="1804"/>
      <point x="-653" y="1804" type="curve" smooth="yes"/>
      <point x="-856" y="1804"/>
      <point x="-1015" y="1748"/>
      <point x="-1144" y="1650" type="curve"/>
    </contour>
  </outline>
</glyph>
<glyph name="MatraIi.or" format="2">
  <advance width="617"/>
  <unicode hex="0B40"/>
  <outline>
    <contour>
      <point x="273" y="0" type="line"/>
      <point x="549" y="0" type="line"/>
      <point x="549" y="1373" type="line"/>
      <point x="266" y="1373" type="line"/>
      <point x="24" y="1106" type="line"/>
      <point x="24" y="732" type="line"/>
      <point x="39" y="732" type="line"/>
      <point x="260" y="1005" type="line"/>
      <point x="273" y="1005" type="line"/>
    </contour>
  </outline>
</glyph>
<glyph name="MatraU.or" format="2">
  <unicode hex="0B41"/>
  <guideline y="15"/>
  <anchor x="-68" y="66" name="_bottom"/>
  <outline>
    <contour>
      <point x="-447" y="-684" type="curve" smooth="yes"/>
      <point x="-262" y="-684"/>
      <point x="-171" y="-602"/>
      <point x="-130" y="-392" type="curve"/>
      <point x="-117" y="-364" type="line"/>
      <point x="-111" y="-350" type="line"/>
      <point x="-82" y="-267"/>
      <point x="-68" y="-118"/>
      <point x="-68" y="-5" type="curve" smooth="yes"/>
      <point x="-68" y="226" type="line"/>
      <point x="-344" y="226" type="line"/>
      <point x="-344" y="-5" type="line" smooth="yes"/>
      <point x="-344" y="-86"/>
      <point x="-344" y="-133"/>
      <point x="-344" y="-191" type="curve"/>
      <point x="-362" y="-257" type="line"/>
      <point x="-360" y="-332" type="line"/>
      <point x="-360" y="-445"/>
      <point x="-381" y="-480"/>
      <point x="-432" y="-480" type="curve" smooth="yes"/>
      <point x="-478" y="-480"/>
      <point x="-498" y="-453"/>
      <point x="-498" y="-407" type="curve" smooth="yes"/>
      <point x="-498" y="-386" type="line" smooth="yes"/>
      <point x="-498" y="-340"/>
      <point x="-478" y="-315"/>
      <point x="-436" y="-315" type="curve" smooth="yes"/>
      <point x="-395" y="-315"/>
      <point x="-365" y="-334"/>
      <point x="-338" y="-364" type="curve"/>
      <point x="-272" y="-219" type="line"/>
      <point x="-338" y="-153"/>
      <point x="-389" y="-118"/>
      <point x="-489" y="-118" type="curve" smooth="yes"/>
      <point x="-639" y="-118"/>
      <point x="-728" y="-213"/>
      <point x="-728" y="-385" type="curve" smooth="yes"/>
      <point x="-728" y="-412" type="line" smooth="yes"/>
      <point x="-728" y="-590"/>
      <point x="-636" y="-684"/>
    </contour>
    <contour>
      <point x="133" y="-684" type="curve"/>
      <point x="133" y="-404" type="line"/>
      <point x="37" y="-385"/>
      <point x="-85" y="-331"/>
      <point x="-164" y="-247" type="curve"/>
      <point x="-259" y="-449" type="line"/>
      <point x="-155" y="-553"/>
      <point x="-19" y="-637"/>
    </contour>
  </outline>
</glyph>
<glyph name="MatraUu.or" format="2">
  <unicode hex="0B42"/>
  <anchor x="-68" y="66" name="_bottom"/>
  <outline>
    <contour>
      <point x="210" y="-827" type="curve"/>
      <point x="210" y="-557" type="line"/>
      <point x="107" y="-528"/>
      <point x="18" y="-481"/>
      <point x="-54" y="-416" type="curve"/>
      <point x="-87" y="-433"/>
      <point x="-132" y="-449"/>
      <point x="-186" y="-449" type="curve" smooth="yes"/>
      <point x="-267" y="-449"/>
      <point x="-296" y="-426"/>
      <point x="-296" y="-385" type="curve" smooth="yes"/>
      <point x="-296" y="-379" type="line" smooth="yes"/>
      <point x="-296" y="-340"/>
      <point x="-271" y="-318"/>
      <point x="-193" y="-318" type="curve" smooth="yes"/>
      <point x="-151" y="-318"/>
      <point x="-111" y="-323"/>
      <point x="-68" y="-332" type="curve"/>
      <point x="-68" y="226" type="line"/>
      <point x="-344" y="226" type="line"/>
      <point x="-344" y="-182" type="line"/>
      <point x="-190" y="-138" type="line"/>
      <point x="-217" y="-135"/>
      <point x="-236" y="-131"/>
      <point x="-270" y="-131" type="curve" smooth="yes"/>
      <point x="-441" y="-131"/>
      <point x="-542" y="-227"/>
      <point x="-542" y="-385" type="curve" smooth="yes"/>
      <point x="-542" y="-406" type="line" smooth="yes"/>
      <point x="-542" y="-571"/>
      <point x="-441" y="-663"/>
      <point x="-252" y="-663" type="curve" smooth="yes"/>
      <point x="-159" y="-663"/>
      <point x="-96" y="-642"/>
      <point x="-43" y="-607" type="curve"/>
      <point x="-147" y="-599" type="line"/>
      <point x="-46" y="-693"/>
      <point x="71" y="-770"/>
    </contour>
  </outline>
</glyph>
<glyph name="MatraVocalicRr.or" format="2">
  <unicode hex="0B44"/>
  <anchor x="-68" y="66" name="_bottom"/>
  <outline>
    <contour>
      <point x="-204" y="-795" type="curve" smooth="yes"/>
      <point x="-20" y="-795"/>
      <point x="80" y="-704"/>
      <point x="80" y="-548" type="curve" smooth="yes"/>
      <point x="80" y="-541" type="line" smooth="yes"/>
      <point x="80" y="-409"/>
      <point x="11" y="-338"/>
      <point x="-117" y="-338" type="curve" smooth="yes"/>
      <point x="-142" y="-338"/>
      <point x="-164" y="-341"/>
      <point x="-186" y="-348" type="curve"/>
      <point x="-186" y="-514" type="line"/>
      <point x="-182" y="-513"/>
      <point x="-175" y="-512"/>
      <point x="-166" y="-512" type="curve" smooth="yes"/>
      <point x="-137" y="-512"/>
      <point x="-124" y="-524"/>
      <point x="-124" y="-548" type="curve" smooth="yes"/>
      <point x="-124" y="-549" type="line" smooth="yes"/>
      <point x="-124" y="-577"/>
      <point x="-148" y="-592"/>
      <point x="-191" y="-592" type="curve" smooth="yes"/>
      <point x="-246" y="-592"/>
      <point x="-274" y="-565"/>
      <point x="-274" y="-523" type="curve" smooth="yes"/>
      <point x="-274" y="-518" type="line" smooth="yes"/>
      <point x="-274" y="-484"/>
      <point x="-259" y="-461"/>
      <point x="-223" y="-458" type="curve"/>
      <point x="-223" y="-298" type="line"/>
      <point x="-254" y="-295"/>
      <point x="-271" y="-285"/>
      <point x="-271" y="-261" type="curve" smooth="yes"/>
      <point x="-271" y="-260" type="line" smooth="yes"/>
      <point x="-271" y="-235"/>
      <point x="-249" y="-222"/>
      <point x="-196" y="-222" type="curve" smooth="yes"/>
      <point x="-168" y="-222"/>
      <point x="-142" y="-225"/>
      <point x="-120" y="-229" type="curve"/>
      <point x="-137" y="-49" type="line"/>
      <point x="-174" y="-36"/>
      <point x="-218" y="-29"/>
      <point x="-272" y="-29" type="curve" smooth="yes"/>
      <point x="-416" y="-29"/>
      <point x="-497" y="-100"/>
      <point x="-497" y="-203" type="curve" smooth="yes"/>
      <point x="-497" y="-212" type="line" smooth="yes"/>
      <point x="-497" y="-289"/>
      <point x="-457" y="-339"/>
      <point x="-397" y="-364" type="curve"/>
      <point x="-397" y="-369" type="line"/>
      <point x="-473" y="-403"/>
      <point x="-503" y="-463"/>
      <point x="-503" y="-551" type="curve" smooth="yes"/>
      <point x="-503" y="-557" type="line" smooth="yes"/>
      <point x="-503" y="-701"/>
      <point x="-396" y="-795"/>
    </contour>
  </outline>
</glyph>
<glyph name="MatraE.or" format="2">
  <advance width="838"/>
  <unicode hex="0B47"/>
  <outline>
    <contour>
      <point x="427" y="-20" type="curve" smooth="yes"/>
      <point x="677" y="-20"/>
      <point x="798" y="118"/>
      <point x="798" y="397" type="curve" smooth="yes"/>
      <point x="798" y="513" type="line" smooth="yes"/>
      <point x="798" y="749"/>
      <point x="741" y="887"/>
      <point x="577" y="887" type="curve" smooth="yes"/>
      <point x="426" y="887"/>
      <point x="376" y="784"/>
      <point x="362" y="680" type="curve"/>
      <point x="308" y="680" type="line"/>
      <point x="347" y="545" type="line"/>
      <point x="356" y="599"/>
      <point x="384" y="631"/>
      <point x="434" y="631" type="curve" smooth="yes"/>
      <point x="494" y="631"/>
      <point x="514" y="590"/>
      <point x="514" y="498" type="curve" smooth="yes"/>
      <point x="514" y="387" type="line" smooth="yes"/>
      <point x="514" y="286"/>
      <point x="496" y="244"/>
      <point x="433" y="244" type="curve" smooth="yes"/>
      <point x="369" y="244"/>
      <point x="351" y="286"/>
      <point x="351" y="387" type="curve"/>
      <point x="351" y="892" type="line"/>
      <point x="351" y="1068"/>
      <point x="410" y="1137"/>
      <point x="550" y="1137" type="curve" smooth="yes"/>
      <point x="635" y="1137"/>
      <point x="698" y="1113"/>
      <point x="746" y="1091" type="curve"/>
      <point x="728" y="1352" type="line"/>
      <point x="678" y="1376"/>
      <point x="591" y="1404"/>
      <point x="474" y="1404" type="curve" smooth="yes"/>
      <point x="198" y="1404"/>
      <point x="60" y="1229"/>
      <point x="60" y="904" type="curve" smooth="yes"/>
      <point x="60" y="407" type="line" smooth="yes"/>
      <point x="60" y="118"/>
      <point x="181" y="-20"/>
    </contour>
  </outline>
</glyph>
<glyph name="LengthmarkAi.or" format="2">
  <unicode hex="0B56"/>
  <outline>
    <contour>
      <point x="-829" y="1861" type="line"/>
      <point x="-827" y="1840" type="line" smooth="yes"/>
      <point x="-821" y="1774"/>
      <point x="-787" y="1743"/>
      <point x="-704" y="1741" type="curve" smooth="yes"/>
      <point x="-447" y="1735" type="line" smooth="yes"/>
      <point x="-180" y="1729"/>
      <point x="-68" y="1636"/>
      <point x="-68" y="1423" type="curve" smooth="yes"/>
      <point x="-68" y="1418" type="line"/>
      <point x="-339" y="1418" type="line"/>
      <point x="-339" y="1419" type="line" smooth="yes"/>
      <point x="-339" y="1473"/>
      <point x="-369" y="1500"/>
      <point x="-439" y="1501" type="curve" smooth="yes"/>
      <point x="-717" y="1505" type="line" smooth="yes"/>
      <point x="-993" y="1509"/>
      <point x="-1103" y="1609"/>
      <point x="-1103" y="1833" type="curve" smooth="yes"/>
      <point x="-1103" y="1861" type="line"/>
    </contour>
  </outline>
</glyph>
<glyph name="LengthmarkAu.or" format="2">
  <advance width="412"/>
  <unicode hex="0B57"/>
  <outline>
    <contour>
      <point x="68" y="0" type="line"/>
      <point x="344" y="0" type="line"/>
      <point x="344" y="1347" type="line" smooth="yes"/>
      <point x="344" y="1619"/>
      <point x="226" y="1721"/>
      <point x="-53" y="1726" type="curve" smooth="yes"/>
      <point x="-292" y="1730" type="line" smooth="yes"/>
      <point x="-375" y="1731"/>
      <point x="-411" y="1763"/>
      <point x="-415" y="1829" type="curve" smooth="yes"/>
      <point x="-417" y="1861" type="line"/>
      <point x="-691" y="1861" type="line"/>
      <point x="-691" y="1822" type="line" smooth="yes"/>
      <point x="-691" y="1598"/>
      <point x="-581" y="1499"/>
      <point x="-305" y="1494" type="curve" smooth="yes"/>
      <point x="-77" y="1490" type="line" smooth="yes"/>
      <point x="39" y="1488"/>
      <point x="68" y="1444"/>
      <point x="68" y="1343" type="curve" smooth="yes"/>
    </contour>
  </outline>
</glyph>
<glyph name="Yya.or" format="2">
  <advance width="1219"/>
  <unicode hex="0B5F"/>
  <anchor x="1193" y="-198" name="bottom"/>
  <anchor x="597" y="1801" name="top1"/>
  <anchor x="998" y="1423" name="top2"/>
  <outline>
    <contour>
      <point x="1292" y="-464" type="line"/>
      <point x="1292" y="-173" type="line"/>
      <point x="1027" y="-100" type="line"/>
      <point x="1037" y="-143" type="line"/>
      <point x="1078" y="-131" type="line"/>
      <point x="1200" y="-116"/>
      <point x="1246" y="-44"/>
      <point x="1246" y="77" type="curve" smooth="yes"/>
      <point x="1246" y="150" type="line" smooth="yes"/>
      <point x="1246" y="297"/>
      <point x="1201" y="359"/>
      <point x="1122" y="399" type="curve"/>
      <point x="942" y="421" type="line"/>
      <point x="895" y="421"/>
      <point x="853" y="397"/>
      <point x="767" y="320" type="curve" smooth="yes"/>
      <point x="713" y="272"/>
      <point x="676" y="244"/>
      <point x="626" y="244" type="curve" smooth="yes"/>
      <point x="572" y="244"/>
      <point x="548" y="284"/>
      <point x="548" y="356" type="curve" smooth="yes"/>
      <point x="548" y="433" type="line" smooth="yes"/>
      <point x="548" y="472"/>
      <point x="553" y="491"/>
      <point x="581" y="513" type="curve"/>
      <point x="305" y="549" type="line"/>
      <point x="279" y="480"/>
      <point x="279" y="465"/>
      <point x="279" y="416" type="curve"/>
      <point x="279" y="293" type="line" smooth="yes"/>
      <point x="279" y="100"/>
      <point x="381" y="-16"/>
      <point x="560" y="-16" type="curve" smooth="yes"/>
      <point x="679" y="-16"/>
      <point x="745" y="24"/>
      <point x="834" y="104" type="curve" smooth="yes"/>
      <point x="883" y="148"/>
      <point x="902" y="175"/>
      <point x="935" y="175" type="curve" smooth="yes"/>
      <point x="971" y="175"/>
      <point x="981" y="146"/>
      <point x="981" y="90" type="curve" smooth="yes"/>
      <point x="981" y="51" type="line" smooth="yes"/>
      <point x="981" y="-18"/>
      <point x="955" y="-52"/>
      <point x="891" y="-56" type="curve" smooth="yes"/>
      <point x="856" y="-58" type="line"/>
      <point x="856" y="-257" type="line"/>
    </contour>
    <contour>
      <point x="39" y="95" type="line"/>
      <point x="350" y="335" type="line"/>
      <point x="516" y="460" type="line"/>
      <point x="669" y="583" type="line"/>
      <point x="669" y="891" type="line"/>
      <point x="350" y="652" type="line"/>
      <point x="219" y="547" type="line"/>
      <point x="39" y="417" type="line"/>
    </contour>
    <contour>
      <point x="250" y="483" type="curve"/>
      <point x="441" y="649" type="line"/>
      <point x="360" y="678"/>
      <point x="341" y="732"/>
      <point x="341" y="814" type="curve" smooth="yes"/>
      <point x="341" y="891" type="line" smooth="yes"/>
      <point x="341" y="1050"/>
      <point x="431" y="1137"/>
      <point x="599" y="1137" type="curve" smooth="yes"/>
      <point x="776" y="1137"/>
      <point x="875" y="1033"/>
      <point x="879" y="844" type="curve"/>
      <point x="971" y="844" type="line"/>
      <point x="886" y="1133" type="line"/>
      <point x="864" y="1304"/>
      <point x="751" y="1408"/>
      <point x="515" y="1408" type="curve" smooth="yes"/>
      <point x="235" y="1408"/>
      <point x="48" y="1220"/>
      <point x="48" y="909" type="curve" smooth="yes"/>
      <point x="48" y="806" type="line" smooth="yes"/>
      <point x="48" y="636"/>
      <point x="114" y="539"/>
    </contour>
    <contour>
      <point x="879" y="230" type="line"/>
      <point x="1151" y="230" type="line"/>
      <point x="1151" y="1373" type="line"/>
      <point x="887" y="1373" type="line"/>
      <point x="892" y="1164" type="line"/>
      <point x="879" y="1164" type="line"/>
      <point x="879" y="1048" type="line"/>
    </contour>
  </outline>
</glyph>
<glyph name="VocalicRr.or" format="2">
  <advance width="1358"/>
  <unicode hex="0B60"/>
  <anchor x="661" y="1804" name="top1"/>
  <anchor x="1062" y="1423" name="top2"/>
  <outline>
    <contour>
      <point x="1363" y="-196" type="line"/>
      <point x="1363" y="91" type="line"/>
      <point x="1102" y="163" type="line"/>
      <point x="1114" y="127" type="line"/>
      <point x="1169" y="132" type="line"/>
      <point x="1267" y="136"/>
      <point x="1322" y="189"/>
      <point x="1322" y="268" type="curve" smooth="yes"/>
      <point x="1322" y="281" type="line" smooth="yes"/>
      <point x="1322" y="353"/>
      <point x="1291" y="395"/>
      <point x="1222" y="414" type="curve"/>
      <point x="1222" y="419" type="line"/>
      <point x="1285" y="436"/>
      <point x="1318" y="477"/>
      <point x="1318" y="548" type="curve" smooth="yes"/>
      <point x="1318" y="560" type="line" smooth="yes"/>
      <point x="1318" y="638"/>
      <point x="1281" y="684"/>
      <point x="1205" y="703" type="curve"/>
      <point x="1226" y="668" type="line"/>
      <point x="1266" y="701"/>
      <point x="1275" y="756"/>
      <point x="1275" y="824" type="curve" smooth="yes"/>
      <point x="1275" y="848" type="line" smooth="yes"/>
      <point x="1275" y="1207"/>
      <point x="1058" y="1408"/>
      <point x="664" y="1408" type="curve" smooth="yes"/>
      <point x="280" y="1408"/>
      <point x="46" y="1205"/>
      <point x="46" y="841" type="curve" smooth="yes"/>
      <point x="46" y="765" type="line" smooth="yes"/>
      <point x="46" y="578"/>
      <point x="116" y="467"/>
      <point x="239" y="407" type="curve"/>
      <point x="381" y="657" type="line"/>
      <point x="344" y="684"/>
      <point x="337" y="716"/>
      <point x="337" y="775" type="curve" smooth="yes"/>
      <point x="337" y="843" type="line" smooth="yes"/>
      <point x="337" y="1034"/>
      <point x="445" y="1141"/>
      <point x="662" y="1141" type="curve" smooth="yes"/>
      <point x="886" y="1141"/>
      <point x="992" y="1028"/>
      <point x="992" y="833" type="curve" smooth="yes"/>
      <point x="992" y="784" type="line" smooth="yes"/>
      <point x="992" y="753"/>
      <point x="985" y="731"/>
      <point x="959" y="730" type="curve" smooth="yes"/>
      <point x="941" y="729" type="line"/>
      <point x="941" y="561" type="line"/>
      <point x="999" y="559" type="line" smooth="yes"/>
      <point x="1047" y="557"/>
      <point x="1065" y="543"/>
      <point x="1065" y="515" type="curve"/>
      <point x="1065" y="512" type="line"/>
      <point x="1065" y="476"/>
      <point x="1043" y="466"/>
      <point x="997" y="465" type="curve" smooth="yes"/>
      <point x="951" y="464" type="line"/>
      <point x="951" y="302" type="line"/>
      <point x="999" y="300" type="line" smooth="yes"/>
      <point x="1045" y="298"/>
      <point x="1067" y="289"/>
      <point x="1067" y="254" type="curve"/>
      <point x="1067" y="250" type="line"/>
      <point x="1067" y="222"/>
      <point x="1049" y="207"/>
      <point x="999" y="205" type="curve" smooth="yes"/>
      <point x="939" y="202" type="line"/>
      <point x="939" y="11" type="line"/>
    </contour>
    <contour>
      <point x="536" y="-20" type="curve" smooth="yes"/>
      <point x="760" y="-20"/>
      <point x="871" y="103"/>
      <point x="871" y="337" type="curve" smooth="yes"/>
      <point x="871" y="420" type="line" smooth="yes"/>
      <point x="871" y="651"/>
      <point x="766" y="776"/>
      <point x="562" y="776" type="curve" smooth="yes"/>
      <point x="405" y="776"/>
      <point x="335" y="699"/>
      <point x="284" y="600" type="curve"/>
      <point x="217" y="519" type="line"/>
      <point x="210" y="489"/>
      <point x="206" y="451"/>
      <point x="206" y="420" type="curve" smooth="yes"/>
      <point x="206" y="337" type="line" smooth="yes"/>
      <point x="206" y="103"/>
      <point x="311" y="-20"/>
    </contour>
    <contour>
      <point x="538" y="198" type="curve" smooth="yes"/>
      <point x="493" y="198"/>
      <point x="481" y="231"/>
      <point x="481" y="299" type="curve" smooth="yes"/>
      <point x="481" y="454" type="line" smooth="yes"/>
      <point x="481" y="523"/>
      <point x="493" y="556"/>
      <point x="538" y="556" type="curve" smooth="yes"/>
      <point x="582" y="556"/>
      <point x="595" y="523"/>
      <point x="595" y="454" type="curve" smooth="yes"/>
      <point x="595" y="299" type="line" smooth="yes"/>
      <point x="595" y="231"/>
      <point x="582" y="198"/>
    </contour>
  </outline>
</glyph>
<glyph name="VocalicLl.or" format="2">
  <advance width="1097"/>
  <unicode hex="0B61"/>
  <anchor x="850" y="1423" name="top2"/>
  <outline>
    <contour>
      <point x="563" y="-6" type="curve" smooth="yes"/>
      <point x="659" y="-6"/>
      <point x="751" y="11"/>
      <point x="812" y="40" type="curve"/>
      <point x="942" y="134" type="line"/>
      <point x="1016" y="186"/>
      <point x="1057" y="280"/>
      <point x="1057" y="383" type="curve" smooth="yes"/>
      <point x="1057" y="432" type="line" smooth="yes"/>
      <point x="1057" y="627"/>
      <point x="959" y="729"/>
      <point x="768" y="729" type="curve" smooth="yes"/>
      <point x="585" y="729"/>
      <point x="473" y="633"/>
      <point x="473" y="445" type="curve" smooth="yes"/>
      <point x="473" y="408" type="line" smooth="yes"/>
      <point x="473" y="300"/>
      <point x="517" y="234"/>
      <point x="605" y="191" type="curve"/>
      <point x="784" y="248" type="line"/>
      <point x="744" y="269"/>
      <point x="720" y="305"/>
      <point x="720" y="370" type="curve" smooth="yes"/>
      <point x="720" y="453" type="line" smooth="yes"/>
      <point x="720" y="502"/>
      <point x="729" y="526"/>
      <point x="760" y="526" type="curve" smooth="yes"/>
      <point x="792" y="526"/>
      <point x="801" y="502"/>
      <point x="801" y="453" type="curve" smooth="yes"/>
      <point x="801" y="392" type="line" smooth="yes"/>
      <point x="801" y="331"/>
      <point x="790" y="280"/>
      <point x="740" y="258" type="curve"/>
      <point x="679" y="241" type="line"/>
      <point x="639" y="236"/>
      <point x="615" y="234"/>
      <point x="574" y="234" type="curve" smooth="yes"/>
      <point x="411" y="234"/>
      <point x="343" y="313"/>
      <point x="343" y="443" type="curve" smooth="yes"/>
      <point x="343" y="477" type="line" smooth="yes"/>
      <point x="343" y="587"/>
      <point x="381" y="631"/>
      <point x="492" y="694" type="curve" smooth="yes"/>
      <point x="609" y="760" type="line" smooth="yes"/>
      <point x="801" y="868"/>
      <point x="896" y="933"/>
      <point x="896" y="1102" type="curve" smooth="yes"/>
      <point x="896" y="1117" type="line" smooth="yes"/>
      <point x="896" y="1297"/>
      <point x="768" y="1404"/>
      <point x="551" y="1404" type="curve" smooth="yes"/>
      <point x="339" y="1404"/>
      <point x="195" y="1299"/>
      <point x="195" y="1113" type="curve" smooth="yes"/>
      <point x="195" y="1093" type="line" smooth="yes"/>
      <point x="195" y="1060"/>
      <point x="201" y="1038"/>
      <point x="212" y="1008" type="curve"/>
      <point x="468" y="1008" type="line"/>
      <point x="459" y="1034"/>
      <point x="455" y="1051"/>
      <point x="455" y="1082" type="curve" smooth="yes"/>
      <point x="455" y="1095" type="line" smooth="yes"/>
      <point x="455" y="1148"/>
      <point x="484" y="1179"/>
      <point x="538" y="1179" type="curve" smooth="yes"/>
      <point x="591" y="1179"/>
      <point x="620" y="1152"/>
      <point x="620" y="1100" type="curve" smooth="yes"/>
      <point x="620" y="1087" type="line" smooth="yes"/>
      <point x="620" y="1027"/>
      <point x="551" y="995"/>
      <point x="451" y="942" type="curve" smooth="yes"/>
      <point x="355" y="891" type="line" smooth="yes"/>
      <point x="162" y="786"/>
      <point x="48" y="699"/>
      <point x="48" y="466" type="curve" smooth="yes"/>
      <point x="48" y="423" type="line" smooth="yes"/>
      <point x="48" y="153"/>
      <point x="238" y="-6"/>
    </contour>
    <contour>
      <point x="1108" y="-81" type="curve"/>
      <point x="1108" y="138" type="line"/>
      <point x="1057" y="140"/>
      <point x="996" y="147"/>
      <point x="952" y="160" type="curve"/>
      <point x="746" y="42" type="line"/>
      <point x="841" y="-26"/>
      <point x="977" y="-74"/>
    </contour>
  </outline>
</glyph>
<glyph name="MatraVocalicL.or" format="2">
  <unicode hex="0B62"/>
  <outline>
    <contour>
      <point x="-121" y="-773" type="curve" smooth="yes"/>
      <point x="52" y="-773"/>
      <point x="161" y="-694"/>
      <point x="161" y="-546" type="curve" smooth="yes"/>
      <point x="161" y="-525" type="line" smooth="yes"/>
      <point x="161" y="-424"/>
      <point x="105" y="-368"/>
      <point x="-2" y="-368" type="curve" smooth="yes"/>
      <point x="-105" y="-368"/>
      <point x="-168" y="-420"/>
      <point x="-168" y="-518" type="curve" smooth="yes"/>
      <point x="-168" y="-532" type="line" smooth="yes"/>
      <point x="-168" y="-597"/>
      <point x="-145" y="-629"/>
      <point x="-94" y="-657" type="curve"/>
      <point x="7" y="-627" type="line"/>
      <point x="-17" y="-615"/>
      <point x="-31" y="-595"/>
      <point x="-31" y="-558" type="curve" smooth="yes"/>
      <point x="-31" y="-514" type="line" smooth="yes"/>
      <point x="-31" y="-491"/>
      <point x="-26" y="-477"/>
      <point x="-7" y="-477" type="curve" smooth="yes"/>
      <point x="13" y="-477"/>
      <point x="18" y="-491"/>
      <point x="18" y="-514" type="curve" smooth="yes"/>
      <point x="18" y="-546" type="line" smooth="yes"/>
      <point x="18" y="-580"/>
      <point x="14" y="-608"/>
      <point x="-18" y="-621" type="curve"/>
      <point x="-52" y="-631" type="line"/>
      <point x="-75" y="-634"/>
      <point x="-88" y="-635"/>
      <point x="-111" y="-635" type="curve" smooth="yes"/>
      <point x="-200" y="-635"/>
      <point x="-241" y="-592"/>
      <point x="-241" y="-521" type="curve" smooth="yes"/>
      <point x="-241" y="-507" type="line" smooth="yes"/>
      <point x="-241" y="-443"/>
      <point x="-215" y="-420"/>
      <point x="-151" y="-385" type="curve" smooth="yes"/>
      <point x="-92" y="-353" type="line" smooth="yes"/>
      <point x="17" y="-294"/>
      <point x="70" y="-260"/>
      <point x="70" y="-170" type="curve" smooth="yes"/>
      <point x="70" y="-162" type="line" smooth="yes"/>
      <point x="70" y="-61"/>
      <point x="-3" y="-2"/>
      <point x="-126" y="-2" type="curve" smooth="yes"/>
      <point x="-255" y="-2"/>
      <point x="-325" y="-60"/>
      <point x="-325" y="-164" type="curve" smooth="yes"/>
      <point x="-325" y="-170" type="line" smooth="yes"/>
      <point x="-325" y="-189"/>
      <point x="-321" y="-203"/>
      <point x="-315" y="-217" type="curve"/>
      <point x="-169" y="-217" type="line"/>
      <point x="-174" y="-203"/>
      <point x="-176" y="-195"/>
      <point x="-176" y="-183" type="curve" smooth="yes"/>
      <point x="-176" y="-179" type="line" smooth="yes"/>
      <point x="-176" y="-146"/>
      <point x="-160" y="-131"/>
      <point x="-128" y="-131" type="curve" smooth="yes"/>
      <point x="-102" y="-131"/>
      <point x="-85" y="-145"/>
      <point x="-85" y="-172" type="curve" smooth="yes"/>
      <point x="-85" y="-178" type="line" smooth="yes"/>
      <point x="-85" y="-204"/>
      <point x="-123" y="-218"/>
      <point x="-180" y="-247" type="curve" smooth="yes"/>
      <point x="-227" y="-271" type="line" smooth="yes"/>
      <point x="-339" y="-328"/>
      <point x="-408" y="-377"/>
      <point x="-408" y="-511" type="curve" smooth="yes"/>
      <point x="-408" y="-530" type="line" smooth="yes"/>
      <point x="-408" y="-680"/>
      <point x="-301" y="-773"/>
    </contour>
  </outline>
</glyph>
<glyph name="MatraVocalicLl.or" format="2">
  <unicode hex="0B63"/>
  <outline>
    <contour>
      <point x="-251" y="-773" type="curve" smooth="yes"/>
      <point x="-194" y="-773"/>
      <point x="-144" y="-763"/>
      <point x="-103" y="-744" type="curve"/>
      <point x="-32" y="-694" type="line"/>
      <point x="9" y="-659"/>
      <point x="31" y="-609"/>
      <point x="31" y="-546" type="curve" smooth="yes"/>
      <point x="31" y="-525" type="line" smooth="yes"/>
      <point x="31" y="-424"/>
      <point x="-25" y="-368"/>
      <point x="-132" y="-368" type="curve" smooth="yes"/>
      <point x="-235" y="-368"/>
      <point x="-298" y="-420"/>
      <point x="-298" y="-518" type="curve" smooth="yes"/>
      <point x="-298" y="-532" type="line" smooth="yes"/>
      <point x="-298" y="-597"/>
      <point x="-275" y="-629"/>
      <point x="-224" y="-657" type="curve"/>
      <point x="-123" y="-627" type="line"/>
      <point x="-147" y="-615"/>
      <point x="-161" y="-595"/>
      <point x="-161" y="-558" type="curve" smooth="yes"/>
      <point x="-161" y="-514" type="line" smooth="yes"/>
      <point x="-161" y="-491"/>
      <point x="-156" y="-477"/>
      <point x="-137" y="-477" type="curve" smooth="yes"/>
      <point x="-117" y="-477"/>
      <point x="-112" y="-491"/>
      <point x="-112" y="-514" type="curve" smooth="yes"/>
      <point x="-112" y="-546" type="line" smooth="yes"/>
      <point x="-112" y="-580"/>
      <point x="-116" y="-608"/>
      <point x="-148" y="-621" type="curve"/>
      <point x="-182" y="-631" type="line"/>
      <point x="-205" y="-634"/>
      <point x="-218" y="-635"/>
      <point x="-241" y="-635" type="curve" smooth="yes"/>
      <point x="-330" y="-635"/>
      <point x="-371" y="-592"/>
      <point x="-371" y="-521" type="curve" smooth="yes"/>
      <point x="-371" y="-507" type="line" smooth="yes"/>
      <point x="-371" y="-443"/>
      <point x="-345" y="-420"/>
      <point x="-281" y="-385" type="curve" smooth="yes"/>
      <point x="-222" y="-353" type="line" smooth="yes"/>
      <point x="-113" y="-294"/>
      <point x="-60" y="-260"/>
      <point x="-60" y="-170" type="curve" smooth="yes"/>
      <point x="-60" y="-162" type="line" smooth="yes"/>
      <point x="-60" y="-61"/>
      <point x="-133" y="-2"/>
      <point x="-256" y="-2" type="curve" smooth="yes"/>
      <point x="-385" y="-2"/>
      <point x="-455" y="-60"/>
      <point x="-455" y="-164" type="curve" smooth="yes"/>
      <point x="-455" y="-170" type="line" smooth="yes"/>
      <point x="-455" y="-189"/>
      <point x="-451" y="-203"/>
      <point x="-445" y="-217" type="curve"/>
      <point x="-299" y="-217" type="line"/>
      <point x="-304" y="-203"/>
      <point x="-306" y="-195"/>
      <point x="-306" y="-183" type="curve" smooth="yes"/>
      <point x="-306" y="-179" type="line" smooth="yes"/>
      <point x="-306" y="-146"/>
      <point x="-290" y="-131"/>
      <point x="-258" y="-131" type="curve" smooth="yes"/>
      <point x="-232" y="-131"/>
      <point x="-215" y="-145"/>
      <point x="-215" y="-172" type="curve" smooth="yes"/>
      <point x="-215" y="-178" type="line" smooth="yes"/>
      <point x="-215" y="-204"/>
      <point x="-253" y="-218"/>
      <point x="-310" y="-247" type="curve" smooth="yes"/>
      <point x="-357" y="-271" type="line" smooth="yes"/>
      <point x="-469" y="-328"/>
      <point x="-538" y="-377"/>
      <point x="-538" y="-511" type="curve" smooth="yes"/>
      <point x="-538" y="-530" type="line" smooth="yes"/>
      <point x="-538" y="-680"/>
      <point x="-431" y="-773"/>
    </contour>
    <contour>
      <point x="59" y="-815" type="curve"/>
      <point x="59" y="-681" type="line"/>
      <point x="28" y="-680"/>
      <point x="-9" y="-676"/>
      <point x="-35" y="-668" type="curve"/>
      <point x="-159" y="-739" type="line"/>
      <point x="-101" y="-781"/>
      <point x="-19" y="-811"/>
    </contour>
  </outline>
</glyph>
<glyph name="zero.or" format="2">
  <advance width="869"/>
  <unicode hex="0B66"/>
  <guideline y="-11"/>
  <outline>
    <contour>
      <point x="50" y="951" type="curve" smooth="yes"/>
      <point x="50" y="436" type="line" smooth="yes"/>
      <point x="50" y="123"/>
      <point x="180" y="-20"/>
      <point x="434" y="-20" type="curve" smooth="yes"/>
      <point x="690" y="-20"/>
      <point x="819" y="121"/>
      <point x="819" y="436" type="curve" smooth="yes"/>
      <point x="819" y="951" type="line" smooth="yes"/>
      <point x="819" y="1266"/>
      <point x="690" y="1408"/>
      <point x="434" y="1408" type="curve" smooth="yes"/>
      <point x="179" y="1408"/>
      <point x="50" y="1266"/>
    </contour>
    <contour>
      <point x="341" y="413" type="curve" smooth="yes"/>
      <point x="341" y="976" type="line" smooth="yes"/>
      <point x="341" y="1097"/>
      <point x="365" y="1141"/>
      <point x="434" y="1141" type="curve" smooth="yes"/>
      <point x="504" y="1141"/>
      <point x="528" y="1097"/>
      <point x="528" y="976" type="curve" smooth="yes"/>
      <point x="528" y="413" type="line" smooth="yes"/>
      <point x="528" y="291"/>
      <point x="504" y="247"/>
      <point x="434" y="247" type="curve" smooth="yes"/>
      <point x="365" y="247"/>
      <point x="341" y="291"/>
    </contour>
  </outline>
</glyph>
<glyph name="one.or" format="2">
  <advance width="825"/>
  <unicode hex="0B67"/>
  <outline>
    <contour>
      <point x="410" y="1408" type="curve" smooth="yes"/>
      <point x="661" y="1408"/>
      <point x="782" y="1268"/>
      <point x="782" y="1008" type="curve" smooth="yes"/>
      <point x="782" y="840" type="line" smooth="yes"/>
      <point x="782" y="625"/>
      <point x="708" y="509"/>
      <point x="546" y="509" type="curve" smooth="yes"/>
      <point x="430" y="509"/>
      <point x="370" y="569"/>
      <point x="354" y="680" type="curve"/>
      <point x="327" y="680" type="line"/>
      <point x="342" y="874" type="line"/>
      <point x="342" y="794"/>
      <point x="360" y="752"/>
      <point x="420" y="752" type="curve" smooth="yes"/>
      <point x="477" y="752"/>
      <point x="495" y="794"/>
      <point x="495" y="874" type="curve" smooth="yes"/>
      <point x="495" y="1022" type="line" smooth="yes"/>
      <point x="495" y="1105"/>
      <point x="478" y="1148"/>
      <point x="420" y="1148" type="curve" smooth="yes"/>
      <point x="360" y="1148"/>
      <point x="342" y="1105"/>
      <point x="342" y="1022" type="curve" smooth="yes"/>
      <point x="342" y="743" type="line"/>
      <point x="344" y="703" type="line"/>
      <point x="345" y="548" type="line"/>
      <point x="339" y="352"/>
      <point x="444" y="267"/>
      <point x="631" y="267" type="curve" smooth="yes"/>
      <point x="740" y="267" type="line"/>
      <point x="703" y="0" type="line"/>
      <point x="570" y="0" type="line" smooth="yes"/>
      <point x="247" y="0"/>
      <point x="50" y="173"/>
      <point x="50" y="548" type="curve" smooth="yes"/>
      <point x="50" y="1008" type="line" smooth="yes"/>
      <point x="50" y="1271"/>
      <point x="165" y="1408"/>
    </contour>
  </outline>
</glyph>
<glyph name="two.or" format="2">
  <advance width="825"/>
  <unicode hex="0B68"/>
  <outline>
    <contour>
      <point x="415" y="1408" type="curve" smooth="yes"/>
      <point x="660" y="1408"/>
      <point x="775" y="1271"/>
      <point x="775" y="1008" type="curve" smooth="yes"/>
      <point x="775" y="548" type="line" smooth="yes"/>
      <point x="775" y="173"/>
      <point x="578" y="0"/>
      <point x="255" y="0" type="curve" smooth="yes"/>
      <point x="122" y="0" type="line"/>
      <point x="85" y="267" type="line"/>
      <point x="194" y="267" type="line" smooth="yes"/>
      <point x="381" y="267"/>
      <point x="480" y="352"/>
      <point x="480" y="548" type="curve" smooth="yes"/>
      <point x="480" y="709" type="line"/>
      <point x="483" y="752" type="line"/>
      <point x="483" y="1022" type="line"/>
      <point x="484" y="1105"/>
      <point x="465" y="1148"/>
      <point x="405" y="1148" type="curve" smooth="yes"/>
      <point x="347" y="1148"/>
      <point x="330" y="1105"/>
      <point x="330" y="1022" type="curve" smooth="yes"/>
      <point x="330" y="874" type="line" smooth="yes"/>
      <point x="330" y="794"/>
      <point x="348" y="752"/>
      <point x="405" y="752" type="curve" smooth="yes"/>
      <point x="465" y="752"/>
      <point x="483" y="794"/>
      <point x="483" y="874" type="curve"/>
      <point x="498" y="680" type="line"/>
      <point x="471" y="680" type="line"/>
      <point x="455" y="569"/>
      <point x="395" y="509"/>
      <point x="279" y="509" type="curve" smooth="yes"/>
      <point x="117" y="509"/>
      <point x="43" y="625"/>
      <point x="43" y="840" type="curve" smooth="yes"/>
      <point x="43" y="1008" type="line" smooth="yes"/>
      <point x="43" y="1268"/>
      <point x="164" y="1408"/>
    </contour>
  </outline>
</glyph>
<glyph name="three.or" format="2">
  <advance width="1197"/>
  <unicode hex="0B69"/>
  <outline>
    <contour>
      <point x="353" y="1408" type="curve" smooth="yes"/>
      <point x="154" y="1408"/>
      <point x="43" y="1268"/>
      <point x="43" y="1020" type="curve" smooth="yes"/>
      <point x="43" y="781" type="line" smooth="yes"/>
      <point x="43" y="572"/>
      <point x="112" y="464"/>
      <point x="261" y="464" type="curve" smooth="yes"/>
      <point x="384" y="464"/>
      <point x="427" y="534"/>
      <point x="443" y="642" type="curve"/>
      <point x="507" y="642" type="line"/>
      <point x="461" y="805" type="line"/>
      <point x="460" y="748"/>
      <point x="442" y="712"/>
      <point x="396" y="712" type="curve" smooth="yes"/>
      <point x="345" y="712"/>
      <point x="330" y="753"/>
      <point x="330" y="825" type="curve" smooth="yes"/>
      <point x="330" y="1050" type="line" smooth="yes"/>
      <point x="330" y="1122"/>
      <point x="345" y="1159"/>
      <point x="395" y="1159" type="curve" smooth="yes"/>
      <point x="447" y="1159"/>
      <point x="462" y="1122"/>
      <point x="462" y="1050" type="curve" smooth="yes"/>
      <point x="460" y="660" type="line"/>
      <point x="455" y="660" type="line"/>
      <point x="447" y="356" type="line"/>
      <point x="447" y="0" type="line"/>
      <point x="724" y="0" type="line"/>
      <point x="724" y="1047" type="line" smooth="yes"/>
      <point x="724" y="1122"/>
      <point x="739" y="1159"/>
      <point x="786" y="1159" type="curve" smooth="yes"/>
      <point x="834" y="1159"/>
      <point x="846" y="1122"/>
      <point x="846" y="1047" type="curve" smooth="yes"/>
      <point x="846" y="0" type="line"/>
      <point x="1132" y="0" type="line"/>
      <point x="1132" y="1022" type="line" smooth="yes"/>
      <point x="1132" y="1285"/>
      <point x="1061" y="1408"/>
      <point x="856" y="1408" type="curve" smooth="yes"/>
      <point x="726" y="1408"/>
      <point x="633" y="1337"/>
      <point x="608" y="1229" type="curve"/>
      <point x="600" y="1229" type="line"/>
      <point x="577" y="1350"/>
      <point x="478" y="1408"/>
    </contour>
  </outline>
</glyph>
<glyph name="four.or" format="2">
  <advance width="890"/>
  <unicode hex="0B6A"/>
  <guideline y="765"/>
  <outline>
    <contour>
      <point x="512" y="701" type="line"/>
      <point x="975" y="1371" type="line"/>
      <point x="975" y="1372" type="line"/>
      <point x="658" y="1372" type="line"/>
      <point x="324" y="855" type="line"/>
    </contour>
    <contour>
      <point x="319" y="811" type="line"/>
      <point x="539" y="925" type="line"/>
      <point x="240" y="1372" type="line"/>
      <point x="-85" y="1372" type="line"/>
      <point x="-85" y="1371" type="line"/>
    </contour>
    <contour>
      <point x="445" y="-21" type="curve" smooth="yes"/>
      <point x="702" y="-21"/>
      <point x="829" y="118"/>
      <point x="829" y="350" type="curve" smooth="yes"/>
      <point x="829" y="394" type="line" smooth="yes"/>
      <point x="829" y="531"/>
      <point x="770" y="652"/>
      <point x="675" y="775" type="curve" smooth="yes"/>
      <point x="588" y="887" type="line"/>
      <point x="420" y="678" type="line"/>
      <point x="491" y="570" type="line" smooth="yes"/>
      <point x="528" y="514"/>
      <point x="539" y="467"/>
      <point x="539" y="400" type="curve" smooth="yes"/>
      <point x="539" y="369" type="line" smooth="yes"/>
      <point x="539" y="289"/>
      <point x="513" y="239"/>
      <point x="449" y="239" type="curve" smooth="yes"/>
      <point x="386" y="239"/>
      <point x="359" y="290"/>
      <point x="359" y="369" type="curve" smooth="yes"/>
      <point x="359" y="396" type="line" smooth="yes"/>
      <point x="359" y="462"/>
      <point x="365" y="506"/>
      <point x="410" y="570" type="curve" smooth="yes"/>
      <point x="511" y="714" type="line"/>
      <point x="305" y="882" type="line"/>
      <point x="232" y="779" type="line" smooth="yes"/>
      <point x="137" y="645"/>
      <point x="69" y="541"/>
      <point x="69" y="394" type="curve" smooth="yes"/>
      <point x="69" y="350" type="line" smooth="yes"/>
      <point x="69" y="115"/>
      <point x="193" y="-21"/>
    </contour>
  </outline>
</glyph>
<glyph name="five.or" format="2">
  <advance width="1092"/>
  <unicode hex="0B6B"/>
  <outline>
    <contour>
      <point x="521" y="594" type="curve"/>
      <point x="593" y="579"/>
      <point x="612" y="548"/>
      <point x="612" y="472" type="curve" smooth="yes"/>
      <point x="612" y="360" type="line" smooth="yes"/>
      <point x="612" y="283"/>
      <point x="591" y="238"/>
      <point x="531" y="238" type="curve" smooth="yes"/>
      <point x="470" y="238"/>
      <point x="448" y="281"/>
      <point x="448" y="360" type="curve" smooth="yes"/>
      <point x="448" y="472" type="line" smooth="yes"/>
      <point x="448" y="546"/>
      <point x="473" y="581"/>
    </contour>
    <contour>
      <point x="568" y="804" type="curve"/>
      <point x="497" y="820"/>
      <point x="478" y="848"/>
      <point x="478" y="926" type="curve" smooth="yes"/>
      <point x="478" y="1030" type="line" smooth="yes"/>
      <point x="478" y="1107"/>
      <point x="498" y="1152"/>
      <point x="557" y="1152" type="curve" smooth="yes"/>
      <point x="617" y="1152"/>
      <point x="638" y="1109"/>
      <point x="638" y="1030" type="curve" smooth="yes"/>
      <point x="638" y="926" type="line" smooth="yes"/>
      <point x="638" y="847"/>
      <point x="619" y="817"/>
    </contour>
    <contour>
      <point x="559" y="1408" type="curve" smooth="yes"/>
      <point x="317" y="1408"/>
      <point x="192" y="1280"/>
      <point x="192" y="1051" type="curve" smooth="yes"/>
      <point x="192" y="1039" type="line" smooth="yes"/>
      <point x="192" y="917"/>
      <point x="220" y="876"/>
      <point x="283" y="829" type="curve"/>
      <point x="318" y="676" type="line"/>
      <point x="190" y="631"/>
      <point x="157" y="547"/>
      <point x="157" y="374" type="curve" smooth="yes"/>
      <point x="157" y="345" type="line" smooth="yes"/>
      <point x="157" y="107"/>
      <point x="277" y="-20"/>
      <point x="533" y="-20" type="curve" smooth="yes"/>
      <point x="775" y="-20"/>
      <point x="900" y="107"/>
      <point x="900" y="335" type="curve" smooth="yes"/>
      <point x="900" y="367" type="line" smooth="yes"/>
      <point x="900" y="491"/>
      <point x="865" y="533"/>
      <point x="724" y="581" type="curve"/>
      <point x="734" y="716" type="line"/>
      <point x="904" y="750"/>
      <point x="935" y="852"/>
      <point x="935" y="1022" type="curve" smooth="yes"/>
      <point x="935" y="1041" type="line" smooth="yes"/>
      <point x="935" y="1280"/>
      <point x="815" y="1408"/>
    </contour>
    <contour>
      <point x="1086" y="439" type="line"/>
      <point x="1086" y="697" type="line"/>
      <point x="672" y="803" type="line"/>
      <point x="664" y="563" type="line"/>
    </contour>
    <contour>
      <point x="6" y="935" type="line"/>
      <point x="6" y="677" type="line"/>
      <point x="356" y="593" type="line"/>
      <point x="383" y="825" type="line"/>
    </contour>
  </outline>
</glyph>
<glyph name="six.or" format="2">
  <advance width="927"/>
  <unicode hex="0B6C"/>
  <outline>
    <contour>
      <point x="426" y="1154" type="curve" smooth="yes"/>
      <point x="523" y="1154"/>
      <point x="586" y="1080"/>
      <point x="586" y="934" type="curve" smooth="yes"/>
      <point x="586" y="631" type="line" smooth="yes"/>
      <point x="586" y="368"/>
      <point x="446" y="261"/>
      <point x="180" y="261" type="curve" smooth="yes"/>
      <point x="90" y="261" type="line"/>
      <point x="117" y="0" type="line"/>
      <point x="218" y="0" type="line" smooth="yes"/>
      <point x="622" y="0"/>
      <point x="877" y="198"/>
      <point x="877" y="621" type="curve" smooth="yes"/>
      <point x="877" y="902" type="line" smooth="yes"/>
      <point x="877" y="1243"/>
      <point x="722" y="1408"/>
      <point x="430" y="1408" type="curve" smooth="yes"/>
      <point x="259" y="1408"/>
      <point x="115" y="1308"/>
      <point x="65" y="1188" type="curve"/>
      <point x="65" y="986" type="line"/>
      <point x="172" y="973"/>
      <point x="216" y="943"/>
      <point x="216" y="866" type="curve" smooth="yes"/>
      <point x="216" y="836" type="line" smooth="yes"/>
      <point x="216" y="746"/>
      <point x="189" y="715"/>
      <point x="132" y="715" type="curve" smooth="yes"/>
      <point x="99" y="715"/>
      <point x="63" y="735"/>
      <point x="38" y="757" type="curve"/>
      <point x="50" y="526" type="line"/>
      <point x="90" y="495"/>
      <point x="145" y="474"/>
      <point x="211" y="474" type="curve" smooth="yes"/>
      <point x="379" y="474"/>
      <point x="486" y="582"/>
      <point x="486" y="791" type="curve" smooth="yes"/>
      <point x="486" y="882" type="line" smooth="yes"/>
      <point x="486" y="1088"/>
      <point x="372" y="1166"/>
      <point x="154" y="1182" type="curve"/>
      <point x="237" y="1021" type="line"/>
      <point x="285" y="1093"/>
      <point x="333" y="1154"/>
    </contour>
  </outline>
</glyph>
<glyph name="seven.or" format="2">
  <advance width="1037"/>
  <unicode hex="0B6D"/>
  <outline>
    <contour>
      <point x="506" y="1408" type="curve" smooth="yes"/>
      <point x="829" y="1408"/>
      <point x="987" y="1241"/>
      <point x="987" y="896" type="curve" smooth="yes"/>
      <point x="987" y="621" type="line" smooth="yes"/>
      <point x="987" y="197"/>
      <point x="733" y="0"/>
      <point x="330" y="0" type="curve" smooth="yes"/>
      <point x="205" y="0" type="line"/>
      <point x="178" y="261" type="line"/>
      <point x="292" y="261" type="line" smooth="yes"/>
      <point x="558" y="261"/>
      <point x="698" y="367"/>
      <point x="698" y="631" type="curve" smooth="yes"/>
      <point x="698" y="910" type="line" smooth="yes"/>
      <point x="698" y="1075"/>
      <point x="636" y="1147"/>
      <point x="499" y="1147" type="curve" smooth="yes"/>
      <point x="367" y="1147"/>
      <point x="304" y="1081"/>
      <point x="304" y="916" type="curve" smooth="yes"/>
      <point x="304" y="880" type="line"/>
      <point x="304" y="856" type="line"/>
      <point x="304" y="744" type="line" smooth="yes"/>
      <point x="304" y="702"/>
      <point x="315" y="681"/>
      <point x="347" y="681" type="curve" smooth="yes"/>
      <point x="380" y="681"/>
      <point x="390" y="702"/>
      <point x="390" y="744" type="curve" smooth="yes"/>
      <point x="390" y="785" type="line" smooth="yes"/>
      <point x="390" y="829"/>
      <point x="380" y="848"/>
      <point x="348" y="848" type="curve" smooth="yes"/>
      <point x="324" y="848"/>
      <point x="307" y="834"/>
      <point x="303" y="811" type="curve"/>
      <point x="298" y="914" type="line"/>
      <point x="315" y="914" type="line"/>
      <point x="330" y="1010"/>
      <point x="378" y="1063"/>
      <point x="468" y="1063" type="curve" smooth="yes"/>
      <point x="575" y="1063"/>
      <point x="623" y="983"/>
      <point x="623" y="816" type="curve" smooth="yes"/>
      <point x="623" y="769" type="line" smooth="yes"/>
      <point x="623" y="573"/>
      <point x="534" y="464"/>
      <point x="336" y="464" type="curve" smooth="yes"/>
      <point x="142" y="464"/>
      <point x="43" y="566"/>
      <point x="43" y="795" type="curve" smooth="yes"/>
      <point x="43" y="914" type="line" smooth="yes"/>
      <point x="43" y="1226"/>
      <point x="203" y="1408"/>
    </contour>
  </outline>
</glyph>
<glyph name="eight.or" format="2">
  <advance width="741"/>
  <unicode hex="0B6E"/>
  <outline>
    <contour>
      <point x="359" y="0" type="line"/>
      <point x="68" y="0" type="line"/>
      <point x="68" y="1372" type="line"/>
      <point x="721" y="1372" type="line"/>
      <point x="721" y="1111" type="line"/>
      <point x="359" y="1111" type="line"/>
    </contour>
  </outline>
</glyph>
<glyph name="nine.or" format="2">
  <advance width="875"/>
  <unicode hex="0B6F"/>
  <outline>
    <contour>
      <point x="825" y="620" type="line"/>
      <point x="825" y="1372" type="line"/>
      <point x="568" y="1372" type="line"/>
      <point x="568" y="1235" type="line" smooth="yes"/>
      <point x="568" y="1120"/>
      <point x="572" y="1001"/>
      <point x="578" y="916" type="curve"/>
      <point x="595" y="916" type="line"/>
      <point x="331" y="1372" type="line"/>
      <point x="50" y="1372" type="line"/>
      <point x="50" y="1034"/>
      <point x="50" y="975"/>
      <point x="50" y="687" type="curve" smooth="yes"/>
      <point x="50" y="622" type="line" smooth="yes"/>
      <point x="50" y="205"/>
      <point x="253" y="0"/>
      <point x="670" y="0" type="curve" smooth="yes"/>
      <point x="779" y="0" type="line"/>
      <point x="806" y="261" type="line"/>
      <point x="697" y="261" type="line" smooth="yes"/>
      <point x="474" y="261"/>
      <point x="341" y="380"/>
      <point x="341" y="622" type="curve" smooth="yes"/>
      <point x="341" y="684" type="line" smooth="yes"/>
      <point x="341" y="793"/>
      <point x="337" y="949"/>
      <point x="337" y="1075" type="curve"/>
      <point x="278" y="1068" type="line"/>
      <point x="553" y="620" type="line"/>
    </contour>
  </outline>
</glyph>
<glyph name="Isshar.or" format="2">
  <advance width="1119"/>
  <unicode hex="0B70"/>
  <outline>
    <contour>
      <point x="263" y="959" type="line"/>
      <point x="500" y="298" type="line"/>
      <point x="520" y="298" type="line"/>
      <point x="856" y="1386" type="line"/>
      <point x="1129" y="1386" type="line"/>
      <point x="703" y="0" type="line"/>
      <point x="330" y="0" type="line"/>
      <point x="-10" y="959" type="line"/>
    </contour>
    <contour>
      <point x="496" y="831" type="curve" smooth="yes"/>
      <point x="584" y="831"/>
      <point x="629" y="883"/>
      <point x="629" y="970" type="curve" smooth="yes"/>
      <point x="629" y="975" type="line" smooth="yes"/>
      <point x="629" y="1061"/>
      <point x="585" y="1115"/>
      <point x="496" y="1115" type="curve" smooth="yes"/>
      <point x="405" y="1115"/>
      <point x="364" y="1061"/>
      <point x="364" y="975" type="curve" smooth="yes"/>
      <point x="364" y="970" type="line" smooth="yes"/>
      <point x="364" y="883"/>
      <point x="405" y="831"/>
    </contour>
  </outline>
</glyph>
<glyph name="Wa.or" format="2">
  <advance width="1095"/>
  <unicode hex="0B71"/>
  <anchor x="958" y="6" name="bottom"/>
  <anchor x="1346" y="-14" name="rasmall"/>
  <anchor x="561" y="1804" name="top1"/>
  <outline>
    <contour>
      <point x="447" y="1014" type="curve"/>
      <point x="678" y="1002" type="line"/>
      <point x="671" y="1035"/>
      <point x="667" y="1065"/>
      <point x="667" y="1094" type="curve" smooth="yes"/>
      <point x="667" y="1115" type="line" smooth="yes"/>
      <point x="667" y="1170"/>
      <point x="679" y="1196"/>
      <point x="716" y="1196" type="curve" smooth="yes"/>
      <point x="751" y="1196"/>
      <point x="764" y="1170"/>
      <point x="764" y="1115" type="curve" smooth="yes"/>
      <point x="764" y="1073" type="line" smooth="yes"/>
      <point x="764" y="966"/>
      <point x="718" y="928"/>
      <point x="594" y="923" type="curve" smooth="yes"/>
      <point x="542" y="921" type="line"/>
      <point x="542" y="707" type="line"/>
      <point x="580" y="707" type="line" smooth="yes"/>
      <point x="659" y="707"/>
      <point x="736" y="720"/>
      <point x="794" y="750" type="curve"/>
      <point x="891" y="818" type="line"/>
      <point x="1000" y="884"/>
      <point x="1027" y="969"/>
      <point x="1027" y="1076" type="curve" smooth="yes"/>
      <point x="1027" y="1111" type="line" smooth="yes"/>
      <point x="1027" y="1302"/>
      <point x="927" y="1408"/>
      <point x="721" y="1408" type="curve" smooth="yes"/>
      <point x="527" y="1408"/>
      <point x="433" y="1298"/>
      <point x="433" y="1133" type="curve" smooth="yes"/>
      <point x="433" y="1112" type="line" smooth="yes"/>
      <point x="433" y="1075"/>
      <point x="439" y="1046"/>
    </contour>
    <contour>
      <point x="570" y="344" type="curve" smooth="yes"/>
      <point x="857" y="344"/>
      <point x="1035" y="477"/>
      <point x="1035" y="663" type="curve" smooth="yes"/>
      <point x="1035" y="681" type="line" smooth="yes"/>
      <point x="1035" y="785"/>
      <point x="992" y="860"/>
      <point x="891" y="902" type="curve"/>
      <point x="690" y="778" type="line"/>
      <point x="728" y="761"/>
      <point x="752" y="733"/>
      <point x="752" y="696" type="curve" smooth="yes"/>
      <point x="752" y="690" type="line" smooth="yes"/>
      <point x="752" y="624"/>
      <point x="699" y="584"/>
      <point x="580" y="584" type="curve" smooth="yes"/>
      <point x="395" y="584"/>
      <point x="334" y="698"/>
      <point x="334" y="874" type="curve" smooth="yes"/>
      <point x="334" y="997" type="line" smooth="yes"/>
      <point x="334" y="1128"/>
      <point x="338" y="1235"/>
      <point x="409" y="1387" type="curve"/>
      <point x="144" y="1387" type="line"/>
      <point x="76" y="1255"/>
      <point x="65" y="1124"/>
      <point x="65" y="992" type="curve" smooth="yes"/>
      <point x="65" y="867" type="line" smooth="yes"/>
      <point x="65" y="539"/>
      <point x="227" y="344"/>
    </contour>
    <contour>
      <point x="417" y="306" type="curve" smooth="yes"/>
      <point x="417" y="315" type="line" smooth="yes"/>
      <point x="417" y="346"/>
      <point x="429" y="369"/>
      <point x="459" y="395" type="curve"/>
      <point x="254" y="542" type="line"/>
      <point x="182" y="475"/>
      <point x="147" y="401"/>
      <point x="147" y="309" type="curve" smooth="yes"/>
      <point x="147" y="282" type="line" smooth="yes"/>
      <point x="147" y="78"/>
      <point x="250" y="-34"/>
      <point x="442" y="-34" type="curve" smooth="yes"/>
      <point x="600" y="-34"/>
      <point x="660" y="33"/>
      <point x="682" y="129" type="curve"/>
      <point x="691" y="129" type="line"/>
      <point x="687" y="11" type="line"/>
      <point x="687" y="-70" type="line"/>
      <point x="958" y="-70" type="line"/>
      <point x="958" y="505" type="line"/>
      <point x="687" y="505" type="line"/>
      <point x="687" y="226" type="line"/>
      <point x="691" y="298" type="line"/>
      <point x="684" y="249"/>
      <point x="645" y="195"/>
      <point x="548" y="195" type="curve" smooth="yes"/>
      <point x="453" y="195"/>
      <point x="417" y="241"/>
    </contour>
  </outline>
</glyph>
<glyph name="onequarter.or" format="2">
  <advance width="412"/>
  <unicode hex="0B72"/>
  <outline>
    <contour>
      <point x="68" y="1231" type="line"/>
      <point x="344" y="1231" type="line"/>
      <point x="344" y="0" type="line"/>
      <point x="68" y="0" type="line"/>
    </contour>
  </outline>
</glyph>
<glyph name="onehalf.or" format="2">
  <advance width="757"/>
  <unicode hex="0B73"/>
  <outline>
    <contour>
      <point x="317" y="1231" type="curve"/>
      <point x="45" y="1231" type="line"/>
      <point x="45" y="1179"/>
      <point x="45" y="1060"/>
      <point x="45" y="1006" type="curve" smooth="yes"/>
      <point x="45" y="811" type="line" smooth="yes"/>
      <point x="45" y="641"/>
      <point x="107" y="548"/>
      <point x="244" y="548" type="curve" smooth="yes"/>
      <point x="345" y="548"/>
      <point x="391" y="591"/>
      <point x="408" y="655" type="curve"/>
      <point x="489" y="655" type="line"/>
      <point x="419" y="819" type="line"/>
      <point x="413" y="787"/>
      <point x="398" y="770"/>
      <point x="368" y="770" type="curve" smooth="yes"/>
      <point x="329" y="770"/>
      <point x="317" y="799"/>
      <point x="317" y="850" type="curve" smooth="yes"/>
      <point x="317" y="1056" type="line" smooth="yes"/>
      <point x="317" y="1111"/>
      <point x="317" y="1175"/>
    </contour>
    <contour>
      <point x="413" y="0" type="line"/>
      <point x="689" y="0" type="line"/>
      <point x="689" y="1231" type="line"/>
      <point x="417" y="1231" type="line"/>
      <point x="417" y="774" type="line"/>
      <point x="416" y="756" type="line"/>
      <point x="413" y="618" type="line"/>
    </contour>
  </outline>
</glyph>
<glyph name="threequarter.or" format="2">
  <advance width="1109"/>
  <unicode hex="0B74"/>
  <outline>
    <contour>
      <point x="673" y="1231" type="curve"/>
      <point x="413" y="1231" type="line"/>
      <point x="413" y="1179"/>
      <point x="413" y="1060"/>
      <point x="413" y="1006" type="curve" smooth="yes"/>
      <point x="413" y="813" type="line" smooth="yes"/>
      <point x="413" y="642"/>
      <point x="473" y="548"/>
      <point x="605" y="548" type="curve" smooth="yes"/>
      <point x="700" y="548"/>
      <point x="744" y="591"/>
      <point x="760" y="656" type="curve"/>
      <point x="841" y="656" type="line"/>
      <point x="771" y="820" type="line"/>
      <point x="766" y="787"/>
      <point x="751" y="771"/>
      <point x="721" y="771" type="curve" smooth="yes"/>
      <point x="683" y="771"/>
      <point x="673" y="800"/>
      <point x="673" y="857" type="curve" smooth="yes"/>
      <point x="673" y="1056" type="line" smooth="yes"/>
      <point x="673" y="1111"/>
      <point x="673" y="1175"/>
    </contour>
    <contour>
      <point x="765" y="0" type="line"/>
      <point x="1041" y="0" type="line"/>
      <point x="1041" y="1231" type="line"/>
      <point x="769" y="1231" type="line"/>
      <point x="769" y="877" type="line"/>
      <point x="769" y="840" type="line"/>
      <point x="765" y="621" type="line"/>
    </contour>
    <contour>
      <point x="317" y="1231" type="curve"/>
      <point x="45" y="1231" type="line"/>
      <point x="45" y="1179"/>
      <point x="45" y="1060"/>
      <point x="45" y="1006" type="curve" smooth="yes"/>
      <point x="45" y="811" type="line" smooth="yes"/>
      <point x="45" y="641"/>
      <point x="113" y="548"/>
      <point x="256" y="548" type="curve" smooth="yes"/>
      <point x="365" y="548"/>
      <point x="416" y="591"/>
      <point x="434" y="656" type="curve"/>
      <point x="484" y="656" type="line"/>
      <point x="414" y="820" type="line"/>
      <point x="409" y="787"/>
      <point x="394" y="771"/>
      <point x="364" y="771" type="curve" smooth="yes"/>
      <point x="326" y="771"/>
      <point x="317" y="800"/>
      <point x="317" y="857" type="curve" smooth="yes"/>
      <point x="317" y="1056" type="line" smooth="yes"/>
      <point x="317" y="1111"/>
      <point x="317" y="1175"/>
    </contour>
  </outline>
</glyph>
<glyph name="onesixteenth.or" format="2">
  <advance width="756"/>
  <unicode hex="0B75"/>
  <outline>
    <contour>
      <point x="-10" y="0" type="line"/>
      <point x="473" y="1231" type="line"/>
      <point x="767" y="1231" type="line"/>
      <point x="284" y="0" type="line"/>
    </contour>
  </outline>
</glyph>
<glyph name="oneeigth.or" format="2">
  <advance width="1543"/>
  <unicode hex="0B76"/>
  <outline>
    <contour>
      <point x="349" y="-29" type="curve" smooth="yes"/>
      <point x="130" y="-29"/>
      <point x="25" y="86"/>
      <point x="25" y="307" type="curve" smooth="yes"/>
      <point x="25" y="402" type="line" smooth="yes"/>
      <point x="25" y="701"/>
      <point x="200" y="875"/>
      <point x="484" y="875" type="curve" smooth="yes"/>
      <point x="780" y="875"/>
      <point x="931" y="717"/>
      <point x="931" y="405" type="curve" smooth="yes"/>
      <point x="931" y="376"/>
      <point x="929" y="341"/>
      <point x="925" y="309" type="curve"/>
      <point x="934" y="309" type="line"/>
      <point x="975" y="475"/>
      <point x="1002" y="587"/>
      <point x="1048" y="703" type="curve" smooth="yes"/>
      <point x="1256" y="1231" type="line"/>
      <point x="1553" y="1231" type="line"/>
      <point x="1067" y="0" type="line"/>
      <point x="684" y="0" type="line"/>
      <point x="706" y="85"/>
      <point x="719" y="156"/>
      <point x="719" y="243" type="curve" smooth="yes"/>
      <point x="719" y="354" type="line" smooth="yes"/>
      <point x="719" y="529"/>
      <point x="649" y="630"/>
      <point x="487" y="630" type="curve" smooth="yes"/>
      <point x="344" y="630"/>
      <point x="281" y="553"/>
      <point x="281" y="409" type="curve" smooth="yes"/>
      <point x="281" y="392" type="line"/>
      <point x="290" y="339" type="line"/>
      <point x="290" y="239" type="line" smooth="yes"/>
      <point x="290" y="190"/>
      <point x="300" y="164"/>
      <point x="335" y="164" type="curve" smooth="yes"/>
      <point x="369" y="164"/>
      <point x="379" y="190"/>
      <point x="379" y="239" type="curve" smooth="yes"/>
      <point x="379" y="299" type="line" smooth="yes"/>
      <point x="379" y="348"/>
      <point x="369" y="374"/>
      <point x="335" y="374" type="curve" smooth="yes"/>
      <point x="300" y="374"/>
      <point x="290" y="348"/>
      <point x="290" y="299" type="curve"/>
      <point x="238" y="402" type="line"/>
      <point x="288" y="402" type="line"/>
      <point x="301" y="493"/>
      <point x="348" y="567"/>
      <point x="458" y="567" type="curve" smooth="yes"/>
      <point x="572" y="567"/>
      <point x="633" y="484"/>
      <point x="633" y="332" type="curve" smooth="yes"/>
      <point x="633" y="241" type="line" smooth="yes"/>
      <point x="633" y="64"/>
      <point x="539" y="-29"/>
    </contour>
  </outline>
</glyph>
<glyph name="threesixteenth.or" format="2">
  <advance width="1536"/>
  <unicode hex="0B77"/>
  <outline>
    <contour>
      <point x="289" y="742" type="curve" smooth="yes"/>
      <point x="404" y="742"/>
      <point x="475" y="691"/>
      <point x="494" y="586" type="curve"/>
      <point x="501" y="586" type="line"/>
      <point x="523" y="680"/>
      <point x="591" y="742"/>
      <point x="707" y="742" type="curve" smooth="yes"/>
      <point x="851" y="742"/>
      <point x="917" y="648"/>
      <point x="917" y="499" type="curve" smooth="yes"/>
      <point x="917" y="439"/>
      <point x="915" y="379"/>
      <point x="911" y="309" type="curve"/>
      <point x="921" y="309" type="line"/>
      <point x="967" y="475"/>
      <point x="1000" y="589"/>
      <point x="1044" y="703" type="curve" smooth="yes"/>
      <point x="1252" y="1231" type="line"/>
      <point x="1546" y="1231" type="line"/>
      <point x="1062" y="0" type="line"/>
      <point x="692" y="0" type="line"/>
      <point x="692" y="431" type="line" smooth="yes"/>
      <point x="692" y="477"/>
      <point x="683" y="503"/>
      <point x="652" y="503" type="curve" smooth="yes"/>
      <point x="621" y="503"/>
      <point x="611" y="477"/>
      <point x="611" y="431" type="curve" smooth="yes"/>
      <point x="611" y="0" type="line"/>
      <point x="374" y="0" type="line"/>
      <point x="374" y="431" type="line" smooth="yes"/>
      <point x="374" y="477"/>
      <point x="365" y="503"/>
      <point x="334" y="503" type="curve" smooth="yes"/>
      <point x="302" y="503"/>
      <point x="293" y="477"/>
      <point x="293" y="431" type="curve" smooth="yes"/>
      <point x="293" y="250" type="line" smooth="yes"/>
      <point x="293" y="156"/>
      <point x="297" y="74"/>
      <point x="308" y="0" type="curve"/>
      <point x="45" y="0" type="line"/>
      <point x="30" y="74"/>
      <point x="26" y="136"/>
      <point x="26" y="230" type="curve" smooth="yes"/>
      <point x="26" y="412" type="line" smooth="yes"/>
      <point x="26" y="636"/>
      <point x="124" y="742"/>
    </contour>
  </outline>
</glyph>
